{"glyphs":{"0":{"ha":932,"x_min":80,"x_max":852,"o":"m 667 631 q 652 653 667 631 q 585 700 637 675 q 470 725 534 725 q 362 708 407 725 q 289 661 317 690 q 241 589 260 631 q 206 401 206 513 q 363 92 206 153 q 466 75 408 75 q 570 94 524 75 q 644 142 616 112 q 692 218 673 174 q 726 387 726 297 q 711 532 726 477 q 667 631 697 587 m 808 615 q 830 568 808 615 q 852 400 852 521 q 808 185 852 279 q 675 35 764 91 q 480 -21 587 -21 q 300 12 374 -21 q 179 102 227 45 q 80 400 80 220 q 176 700 80 583 q 298 789 224 757 q 479 821 372 821 q 676 765 587 821 q 808 615 765 709 z "},"1":{"ha":441,"x_min":60,"x_max":363,"o":"m 236 0 l 236 717 l 96 649 l 60 734 l 234 815 l 363 815 l 363 0 l 236 0 z "},"2":{"ha":715,"x_min":80,"x_max":633,"o":"m 229 103 l 633 103 l 633 0 l 80 0 l 80 99 l 357 326 q 488 458 459 411 q 523 564 523 515 q 507 642 523 613 q 465 688 492 671 q 331 719 412 719 q 156 673 250 718 l 120 751 q 351 812 208 812 q 551 758 473 812 q 633 573 632 699 q 479 302 633 444 q 393 229 431 258 q 303 160 356 200 q 229 103 251 121 z "},"3":{"ha":670,"x_min":37,"x_max":629,"o":"m 491 572 q 476 646 491 616 q 432 692 460 675 q 287 721 380 720 q 94 673 193 721 l 60 763 q 299 818 182 818 q 506 768 418 818 q 577 696 551 742 q 603 576 603 650 q 547 436 603 502 q 407 370 492 370 q 570 282 511 348 q 629 113 629 217 q 601 2 629 51 q 526 -76 572 -47 q 301 -134 432 -134 q 37 -69 171 -134 l 74 21 q 191 -23 125 -7 q 330 -40 257 -40 q 455 0 404 -40 q 507 126 507 40 q 279 319 507 294 l 279 416 q 423 448 363 416 q 491 572 491 486 z "},"4":{"ha":850,"x_min":75,"x_max":774,"o":"m 538 819 l 648 793 l 648 140 l 774 140 l 774 46 l 648 46 l 648 -176 l 532 -176 l 532 46 l 94 46 l 75 139 l 538 819 m 532 631 l 200 139 l 532 139 l 532 631 z "},"5":{"ha":671,"x_min":39,"x_max":631,"o":"m 299 -38 q 514 165 514 -38 q 463 323 514 265 q 313 381 412 381 q 110 317 240 381 l 64 364 l 64 793 l 571 793 l 571 690 l 162 690 l 162 422 q 234 461 186 448 q 325 473 281 473 q 546 389 462 473 q 631 163 631 305 q 539 -60 631 20 q 298 -140 447 -140 q 176 -125 233 -140 q 39 -77 120 -110 l 74 21 q 299 -38 190 -38 z "},"6":{"ha":838,"x_min":79,"x_max":760,"o":"m 641 223 q 641 273 641 223 q 589 385 641 323 q 444 446 538 446 q 313 419 389 446 q 203 355 237 392 q 199 253 199 328 q 229 110 199 178 q 421 -9 281 -9 q 582 57 524 -9 q 641 223 641 123 m 79 288 q 209 680 79 517 q 564 895 340 842 l 593 796 q 344 672 449 766 q 213 440 239 578 q 439 538 294 538 q 672 453 585 538 q 760 222 760 368 q 666 -14 760 77 q 421 -106 572 -106 q 160 8 245 -106 q 79 288 79 117 z "},"7":{"ha":755,"x_min":79,"x_max":684,"o":"m 646 833 l 684 751 l 296 -119 l 182 -68 l 538 728 l 79 728 l 79 833 l 646 833 z "},"8":{"ha":804,"x_min":81,"x_max":723,"o":"m 400 905 q 585 868 506 905 q 723 655 723 803 q 675 515 723 572 q 545 430 628 458 q 679 329 635 401 q 723 157 723 256 q 625 -41 723 23 q 525 -86 581 -71 q 406 -100 470 -100 q 286 -86 342 -100 q 183 -41 230 -71 q 109 40 136 -12 q 81 174 81 91 q 125 330 81 258 q 259 431 169 403 q 129 516 177 458 q 81 647 81 573 q 110 770 81 720 q 187 848 139 819 q 290 890 235 876 q 400 905 346 905 m 253 35 q 279 14 253 35 q 406 -6 304 -6 q 555 34 508 -6 q 602 167 602 73 q 548 326 602 261 q 405 390 494 390 q 259 327 316 390 q 202 170 202 264 q 253 35 202 75 m 406 469 q 446 469 406 469 q 544 522 486 469 q 602 658 602 575 q 544 779 602 741 q 482 805 517 796 q 406 813 448 813 q 330 806 365 814 q 202 655 202 777 q 264 522 202 576 q 406 469 326 469 z "},"9":{"ha":838,"x_min":78,"x_max":760,"o":"m 197 562 q 197 512 197 562 q 249 401 197 462 q 394 340 300 340 q 526 367 450 340 q 635 431 603 393 q 639 533 639 458 q 609 675 639 608 q 417 795 557 795 q 256 728 315 795 q 197 562 197 662 m 760 497 q 629 105 760 268 q 275 -109 498 -57 l 245 -11 q 494 113 389 18 q 625 345 600 208 q 398 248 544 248 q 165 332 253 248 q 78 563 78 417 q 172 800 78 708 q 417 891 266 891 q 678 777 593 891 q 760 497 760 669 z "},"\u0000":{"ha":1389,"x_min":0,"x_max":0,"o":""},"\r":{"ha":467,"x_min":0,"x_max":0,"o":""}," ":{"ha":347,"x_min":0,"x_max":0,"o":""},"!":{"ha":304,"x_min":80,"x_max":222,"o":"m 222 126 l 222 -11 l 80 -11 l 80 126 l 222 126 m 213 271 l 95 271 l 95 1071 l 213 1071 l 213 271 z "},"\"":{"ha":540,"x_min":77,"x_max":463,"o":"m 462 1071 l 463 1038 q 462 1023 463 1027 l 421 718 l 348 718 l 307 1023 q 307 1038 307 1027 l 307 1071 l 462 1071 m 233 1071 l 233 1038 q 233 1023 233 1027 l 192 718 l 119 718 l 78 1023 q 77 1038 77 1027 l 78 1071 l 233 1071 z "},"#":{"ha":716,"x_min":72,"x_max":644,"o":"m 406 380 l 280 380 l 258 200 l 162 200 l 184 380 l 72 380 l 72 464 l 191 464 l 210 614 l 91 614 l 91 699 l 219 699 l 240 888 l 334 888 l 313 699 l 441 699 l 460 886 l 557 886 l 536 699 l 644 699 l 644 614 l 528 614 l 509 464 l 629 464 l 629 380 l 501 380 l 480 200 l 385 200 l 406 380 m 288 464 l 412 464 l 430 614 l 307 614 l 288 464 z "},"$":{"ha":691,"x_min":41,"x_max":652,"o":"m 391 838 q 528 825 441 837 q 615 795 615 813 l 615 794 l 580 705 q 391 745 503 737 l 391 481 q 598 373 543 430 q 652 231 652 316 q 494 8 652 62 q 391 -12 448 -8 l 391 -121 l 321 -121 l 321 -14 q 194 8 252 -9 q 84 43 136 25 l 117 140 q 321 87 229 98 l 321 388 q 191 421 214 412 q 144 443 167 431 q 109 466 122 454 q 81 494 96 477 q 58 530 66 511 q 41 625 41 575 q 58 711 41 675 q 102 770 75 747 q 168 809 130 793 q 321 841 234 838 l 321 943 l 391 943 l 391 838 m 321 505 l 321 746 q 165 689 197 746 q 152 631 152 664 q 168 575 151 598 q 213 538 185 552 q 321 505 263 513 m 391 366 l 391 91 q 497 127 454 92 q 541 223 541 163 q 527 282 541 267 q 508 304 513 298 q 492 318 503 311 q 474 330 480 326 q 453 340 468 334 q 433 349 439 347 q 412 357 428 351 q 391 366 395 363 z "},"%":{"ha":1133,"x_min":40,"x_max":1093,"o":"m 748 265 q 748 163 748 265 q 876 60 748 60 q 1003 265 1003 60 q 876 469 1003 469 q 748 265 748 469 m 658 256 q 658 283 658 256 q 668 360 658 311 q 703 450 679 408 q 770 516 726 492 q 876 540 814 540 q 981 516 937 540 q 1048 450 1025 492 q 1083 360 1072 408 q 1093 238 1093 311 q 1061 99 1093 164 q 876 -14 1004 -15 q 709 68 765 -14 q 671 153 684 106 q 658 256 658 200 m 130 739 q 130 637 130 739 q 258 534 130 534 q 385 739 385 534 q 258 943 385 943 q 130 739 130 943 m 40 730 q 40 758 40 730 q 51 834 40 785 q 85 924 61 882 q 153 990 109 966 q 258 1014 197 1014 q 363 990 319 1014 q 431 924 407 966 q 465 834 454 882 q 475 712 475 785 q 443 574 475 639 q 258 460 387 460 q 91 543 146 460 q 53 627 65 581 q 40 730 40 674 m 288 25 l 751 1015 l 838 970 l 376 -15 l 288 25 z "},"&":{"ha":1042,"x_min":43,"x_max":1010,"o":"m 637 2 q 608 -5 637 2 q 528 -20 580 -13 q 422 -26 475 -26 q 315 -17 369 -26 q 211 15 262 -7 q 124 71 161 37 q 43 269 43 144 q 270 557 43 493 q 175 646 218 590 q 133 757 133 702 q 155 856 133 812 q 216 926 178 899 q 404 980 292 979 q 592 927 515 980 q 675 756 675 870 q 616 617 675 668 q 484 547 569 576 q 432 530 464 540 l 768 265 q 777 540 777 408 l 888 540 q 857 188 888 351 l 1010 64 l 951 -5 l 808 115 q 741 46 787 76 q 637 2 694 17 m 167 283 q 239 110 167 157 q 428 68 304 68 q 732 174 665 68 l 334 492 q 167 283 167 457 m 567 759 q 520 857 567 825 q 404 888 473 888 q 245 760 245 888 q 285 669 245 715 q 371 599 325 623 q 398 607 376 600 q 426 615 419 613 q 452 624 433 617 q 479 634 471 630 q 502 646 487 638 q 524 662 517 654 q 541 680 531 669 q 556 701 552 690 q 567 759 567 730 z "},"'":{"ha":239,"x_min":41,"x_max":197,"o":"m 196 1071 l 197 1038 q 196 1023 197 1027 l 155 718 l 82 718 l 41 1023 q 41 1038 41 1027 l 41 1071 l 196 1071 z "},"(":{"ha":317,"x_min":2,"x_max":333,"o":"m 333 1013 q 217 857 264 952 q 128 471 128 679 q 172 182 129 332 q 233 39 194 106 q 322 -66 272 -27 l 266 -139 q 146 -23 199 -96 q 64 135 94 50 q 18 306 33 220 q 2 472 2 391 q 17 638 2 553 q 62 806 33 723 q 143 962 92 889 q 258 1082 193 1036 l 333 1013 z "},")":{"ha":318,"x_min":-14,"x_max":317,"o":"m 191 471 q 109 857 191 680 q -3 1011 63 956 l 54 1084 q 172 967 120 1039 q 255 814 224 895 q 317 481 317 648 q 258 140 317 304 q 54 -139 192 -43 l -14 -67 q 138 171 85 19 q 191 471 191 323 z "},"*":{"ha":690,"x_min":77,"x_max":612,"o":"m 345 876 l 439 1063 l 509 1023 l 401 839 l 612 839 l 612 777 l 403 777 l 518 591 l 449 553 l 345 739 l 240 553 l 171 591 l 286 777 l 77 777 l 77 839 l 288 839 l 180 1023 l 250 1063 l 345 876 z "},"+":{"ha":682,"x_min":80,"x_max":601,"o":"m 601 351 l 388 351 l 388 118 l 292 118 l 292 351 l 80 351 l 80 441 l 292 441 l 292 675 l 388 675 l 388 441 l 601 441 l 601 351 z "},",":{"ha":354,"x_min":82,"x_max":273,"o":"m 82 0 l 82 199 l 273 199 l 273 30 q 233 -99 273 -47 q 117 -172 193 -150 l 83 -108 q 151 -68 130 -92 q 171 0 172 -45 l 82 0 z "},"-":{"ha":626,"x_min":83,"x_max":542,"o":"m 542 345 l 83 345 l 83 451 l 542 451 l 542 345 z "},".":{"ha":309,"x_min":80,"x_max":229,"o":"m 80 66 q 80 82 80 66 q 102 121 80 98 q 156 144 124 144 q 209 122 189 144 q 229 66 229 99 q 209 11 229 34 q 156 -12 189 -12 q 102 11 123 -12 q 80 66 80 34 z "},"/":{"ha":493,"x_min":-22,"x_max":516,"o":"m -22 -79 l 401 1174 l 516 1132 l 93 -121 l -22 -79 z "},":":{"ha":358,"x_min":87,"x_max":271,"o":"m 87 191 l 271 191 l 271 0 l 87 0 l 87 191 m 87 586 l 271 586 l 271 395 l 87 395 l 87 586 z "},";":{"ha":363,"x_min":86,"x_max":277,"o":"m 87 586 l 277 586 l 277 395 l 87 395 l 87 586 m 86 0 l 86 199 l 277 199 l 277 30 q 237 -99 277 -47 q 121 -172 197 -150 l 87 -108 q 155 -68 134 -92 q 175 0 176 -45 l 86 0 z "},"<":{"ha":589,"x_min":35,"x_max":549,"o":"m 35 450 l 479 859 l 549 784 l 175 450 l 549 115 l 479 41 l 35 450 z "},"=":{"ha":566,"x_min":83,"x_max":482,"o":"m 482 345 l 83 345 l 83 433 l 482 433 l 482 345 m 482 190 l 83 190 l 83 279 l 482 279 l 482 190 z "},">":{"ha":471,"x_min":-18,"x_max":495,"o":"m 495 450 l 51 41 l -18 115 l 355 450 l -18 784 l 51 859 l 495 450 z "},"?":{"ha":659,"x_min":21,"x_max":624,"o":"m 262 458 l 262 198 l 140 198 l 140 527 q 336 605 274 572 q 494 812 494 690 q 405 947 494 918 q 294 962 359 962 q 61 903 155 962 l 21 1000 q 154 1052 77 1033 q 289 1071 230 1071 q 393 1064 348 1071 q 482 1039 439 1057 q 556 994 526 1021 q 624 825 624 934 q 338 486 624 602 q 262 458 304 473 m 266 43 q 266 28 266 43 q 245 -6 266 14 q 194 -27 224 -27 q 144 -5 165 -27 q 124 47 124 18 q 146 95 124 76 q 197 115 169 115 q 245 93 225 115 q 266 43 266 71 z "},"@":{"ha":1270,"x_min":73,"x_max":1200,"o":"m 819 669 q 699 684 751 684 q 493 598 576 684 q 409 389 409 512 q 562 224 409 224 q 819 669 815 224 m 977 91 l 1038 28 q 922 -52 994 -20 q 640 -105 799 -105 q 303 -27 443 -104 q 102 210 156 55 q 73 404 73 292 q 116 626 73 516 q 235 815 159 736 q 418 941 310 895 q 645 987 526 987 q 862 958 764 987 q 1036 871 960 928 q 1156 722 1112 814 q 1200 513 1200 629 q 1095 216 1200 328 q 901 135 1019 134 q 827 260 827 135 q 830 321 827 283 q 833 372 833 360 q 734 200 811 266 q 545 135 658 135 q 368 208 433 135 q 304 389 304 280 q 359 583 304 498 q 503 716 414 667 q 688 765 592 765 q 882 743 749 765 l 919 669 l 919 215 l 921 215 q 1091 514 1091 215 q 828 871 1091 798 q 648 893 751 893 q 456 856 545 893 q 307 751 366 818 q 181 392 182 612 q 369 49 180 151 q 646 -11 481 -11 q 826 12 746 -11 q 977 91 906 35 z "},"A":{"ha":1018,"x_min":57,"x_max":960,"o":"m 724 329 l 509 990 l 294 329 l 724 329 m 746 260 l 271 260 l 188 0 l 57 0 l 407 1071 l 610 1071 l 960 0 l 829 0 l 746 260 z "},"B":{"ha":916,"x_min":83,"x_max":843,"o":"m 675 804 q 665 865 675 839 q 638 909 654 892 q 595 939 622 927 q 545 958 569 951 q 487 968 521 964 q 370 974 440 974 l 215 974 l 215 621 l 391 621 q 562 639 509 620 q 644 694 618 659 q 675 804 675 737 m 368 97 q 520 104 484 97 q 584 118 557 111 q 629 137 611 126 q 666 164 647 148 q 695 202 684 180 q 720 304 720 250 q 710 391 720 357 q 684 446 700 424 q 642 485 667 469 q 590 510 616 501 q 528 525 563 519 q 393 533 474 533 l 215 533 l 215 97 l 368 97 m 567 585 q 772 498 701 570 q 843 294 843 426 q 720 68 844 140 q 368 0 604 0 l 83 0 l 83 1071 l 328 1071 q 521 1063 475 1071 q 603 1045 566 1055 q 663 1023 639 1036 q 713 989 688 1010 q 753 944 739 970 q 787 794 787 886 q 732 652 787 703 q 567 585 676 601 z "},"C":{"ha":901,"x_min":77,"x_max":830,"o":"m 781 939 q 554 989 648 989 q 400 962 459 989 q 306 894 340 936 q 249 790 271 852 q 221 667 228 728 q 214 532 214 606 q 221 396 214 457 q 250 273 229 334 q 307 169 272 211 q 401 101 342 127 q 538 75 460 75 q 746 129 614 75 q 792 148 785 145 l 830 54 q 651 -12 710 5 q 509 -28 592 -28 q 347 2 425 -28 q 220 84 269 33 q 137 208 170 134 q 77 534 77 341 q 359 1063 77 963 q 538 1092 438 1092 q 660 1080 614 1092 q 719 1065 705 1069 q 764 1052 732 1061 q 811 1038 797 1042 l 781 939 z "},"D":{"ha":996,"x_min":83,"x_max":920,"o":"m 473 974 l 215 974 l 215 97 l 473 97 q 608 122 551 97 q 698 187 665 147 q 751 287 731 227 q 784 535 784 385 q 650 925 784 833 q 473 974 581 974 m 473 1071 q 920 535 920 1071 q 473 0 920 0 l 83 0 l 83 1071 l 473 1071 z "},"E":{"ha":827,"x_min":83,"x_max":750,"o":"m 750 0 l 83 0 l 83 1071 l 741 1071 l 741 974 l 215 974 l 215 604 l 675 604 l 675 526 l 215 526 l 215 97 l 750 97 l 750 0 z "},"F":{"ha":783,"x_min":83,"x_max":708,"o":"m 216 517 l 216 0 l 83 0 l 83 1071 l 708 1071 l 708 974 l 216 974 l 216 596 l 667 596 l 667 517 l 216 517 z "},"G":{"ha":999,"x_min":77,"x_max":918,"o":"m 696 6 q 672 -3 696 6 q 602 -20 649 -12 q 492 -28 555 -28 q 365 -5 429 -28 q 255 58 301 18 q 174 151 209 98 q 119 268 140 204 q 77 511 77 393 q 92 710 77 629 q 141 863 107 792 q 227 985 175 935 q 534 1092 337 1092 q 834 1001 690 1092 l 789 909 q 672 968 745 947 q 537 989 599 989 q 429 975 476 989 q 350 937 382 961 q 293 878 317 913 q 253 805 268 843 q 229 719 238 767 q 214 556 214 633 q 217 434 214 478 q 230 342 220 389 q 254 256 239 294 q 294 184 269 218 q 353 126 319 149 q 537 75 425 76 q 711 118 640 76 q 792 271 792 165 l 792 464 l 519 464 l 519 550 l 918 550 l 918 0 l 858 0 l 822 144 q 776 60 810 96 q 696 6 743 24 z "},"H":{"ha":995,"x_min":83,"x_max":911,"o":"m 779 0 l 779 518 l 215 518 l 215 0 l 83 0 l 83 1071 l 215 1071 l 215 596 l 779 596 l 779 1071 l 911 1071 l 911 0 l 779 0 z "},"I":{"ha":558,"x_min":77,"x_max":479,"o":"m 77 76 l 216 76 l 216 991 l 77 991 l 77 1071 l 479 1071 l 479 991 l 340 991 l 340 76 l 479 76 l 479 0 l 77 0 l 77 76 z "},"J":{"ha":493,"x_min":60,"x_max":409,"o":"m 92 -61 l 60 25 q 228 90 187 45 q 261 144 254 121 q 271 183 268 167 q 277 225 275 199 q 279 325 279 260 l 279 1071 l 409 1071 l 409 349 q 372 88 410 171 q 277 -21 338 12 q 92 -61 205 -61 z "},"K":{"ha":926,"x_min":83,"x_max":875,"o":"m 215 507 l 215 0 l 83 0 l 83 1071 l 215 1071 l 215 579 l 366 579 l 699 1071 l 829 1071 l 471 541 l 875 0 l 737 0 l 361 507 l 215 507 z "},"L":{"ha":797,"x_min":83,"x_max":721,"o":"m 721 0 l 83 0 l 83 1071 l 215 1071 l 215 97 l 721 97 l 721 0 z "},"M":{"ha":1206,"x_min":83,"x_max":1122,"o":"m 536 0 l 189 996 l 189 0 l 83 0 l 83 1071 l 281 1071 l 603 121 l 925 1071 l 1122 1071 l 1122 0 l 1017 0 l 1017 996 l 669 0 l 536 0 z "},"N":{"ha":1017,"x_min":83,"x_max":933,"o":"m 823 98 l 823 1071 l 933 1071 l 933 0 l 755 0 l 193 972 l 193 0 l 83 0 l 83 1071 l 261 1071 l 823 98 z "},"O":{"ha":1042,"x_min":77,"x_max":966,"o":"m 905 861 q 922 825 905 861 q 952 708 939 789 q 966 533 966 627 q 952 358 966 438 q 907 206 939 279 q 825 83 875 134 q 521 -28 716 -28 q 137 203 240 -28 q 77 532 77 336 q 216 979 77 831 q 340 1061 264 1031 q 514 1092 416 1092 q 691 1063 612 1092 q 821 983 770 1034 q 905 861 872 933 m 830 532 q 775 842 830 741 q 636 970 723 939 q 526 989 586 989 q 421 975 467 989 q 344 936 376 960 q 289 876 313 912 q 251 802 264 840 q 228 716 237 764 q 213 554 213 635 q 218 421 213 472 q 235 316 223 370 q 271 220 248 262 q 328 145 294 179 q 528 75 398 76 q 830 532 830 75 z "},"P":{"ha":902,"x_min":83,"x_max":827,"o":"m 330 532 q 523 544 475 532 q 604 571 570 556 q 656 608 636 587 q 704 724 704 657 q 693 832 704 791 q 659 899 683 873 q 609 941 635 925 q 538 963 583 956 q 361 974 467 974 l 215 974 l 215 532 l 330 532 m 827 757 q 816 661 827 702 q 787 589 805 619 q 740 534 769 559 q 682 494 711 510 q 611 466 652 478 q 535 448 570 454 q 453 439 500 442 q 290 433 378 433 l 215 433 l 215 0 l 83 0 l 83 1071 l 353 1071 q 641 1036 547 1070 q 776 941 733 1002 q 827 757 827 868 z "},"Q":{"ha":1050,"x_min":76,"x_max":976,"o":"m 840 532 q 526 989 840 989 q 212 532 212 989 q 348 127 212 231 q 526 75 418 75 q 837 438 809 76 q 840 532 840 481 m 976 538 q 966 382 976 452 q 931 242 956 312 q 866 121 905 173 q 763 31 827 69 q 618 -20 700 -7 l 875 -199 l 794 -288 l 460 -24 q 226 77 311 -7 q 109 281 141 163 q 76 514 76 399 q 91 709 76 629 q 139 860 105 789 q 224 982 173 931 q 526 1092 334 1092 q 914 859 806 1092 q 976 538 977 726 z "},"R":{"ha":904,"x_min":83,"x_max":825,"o":"m 700 0 l 703 212 q 674 393 703 345 q 598 462 647 442 q 467 492 534 488 q 337 497 399 497 l 215 497 l 215 0 l 83 0 l 83 1071 l 338 1071 q 544 1063 501 1071 q 628 1046 587 1056 q 693 1022 669 1036 q 745 987 717 1008 q 788 937 773 965 q 825 787 825 871 q 743 607 825 673 q 545 541 661 541 q 804 387 754 517 q 823 269 823 336 l 823 0 l 700 0 m 415 975 l 338 974 l 215 974 l 215 585 l 378 585 q 668 662 597 585 q 709 780 709 707 q 638 932 709 888 q 549 966 594 959 q 415 975 484 975 z "},"S":{"ha":743,"x_min":1,"x_max":743,"o":"m 47 49 l 61 151 q 199 93 138 110 q 322 75 259 75 q 424 80 385 75 q 499 99 462 85 q 562 136 536 113 q 618 282 618 186 q 540 430 618 377 q 393 499 477 473 q 258 542 309 525 q 161 583 207 559 q 79 637 115 606 q 1 825 1 705 q 30 946 1 893 q 109 1029 60 998 q 339 1092 207 1092 q 673 1006 523 1092 l 653 907 q 522 966 595 944 q 394 989 448 989 q 307 986 339 989 q 238 972 274 983 q 179 944 203 962 q 125 819 125 903 q 203 694 125 738 q 346 639 257 664 q 485 598 434 614 q 583 556 536 581 q 665 496 629 530 q 743 289 743 423 q 585 18 743 98 q 361 -28 492 -28 q 194 -8 281 -28 q 47 49 106 12 z "},"T":{"ha":909,"x_min":79,"x_max":830,"o":"m 830 974 l 519 974 l 519 0 l 391 0 l 391 974 l 79 974 l 79 1071 l 830 1071 l 830 974 z "},"U":{"ha":1017,"x_min":83,"x_max":935,"o":"m 507 -28 q 336 -2 410 -28 q 216 67 263 23 q 137 177 167 111 q 83 485 83 296 l 83 1071 l 213 1071 l 213 482 q 245 222 213 304 q 334 109 276 145 q 507 68 400 68 q 734 160 669 68 q 786 282 775 218 q 802 482 802 375 l 802 1071 l 935 1071 l 935 485 q 802 67 935 190 q 507 -28 699 -28 z "},"V":{"ha":954,"x_min":58,"x_max":895,"o":"m 395 0 l 58 1071 l 183 1071 l 477 122 l 772 1071 l 895 1071 l 560 0 l 395 0 z "},"W":{"ha":1370,"x_min":60,"x_max":1310,"o":"m 778 1010 l 977 119 l 1187 1071 l 1310 1071 l 1068 0 l 888 0 l 685 904 l 482 0 l 301 0 l 60 1071 l 182 1071 l 393 119 l 592 1010 l 778 1010 z "},"X":{"ha":952,"x_min":65,"x_max":887,"o":"m 213 0 l 65 0 l 402 543 l 66 1071 l 199 1071 l 476 626 l 753 1071 l 886 1071 l 550 543 l 887 0 l 739 0 l 476 425 q 213 0 388 283 z "},"Y":{"ha":938,"x_min":56,"x_max":882,"o":"m 472 459 l 752 1071 l 882 1071 l 533 329 l 533 0 l 404 0 l 404 329 l 56 1071 l 189 1071 q 472 459 328 759 z "},"Z":{"ha":861,"x_min":81,"x_max":781,"o":"m 779 1071 l 779 962 l 214 97 l 781 97 l 781 0 l 81 0 l 81 122 l 643 981 l 81 981 l 81 1071 l 779 1071 z "},"[":{"ha":610,"x_min":82,"x_max":532,"o":"m 82 1071 l 532 1071 l 532 974 l 213 974 l 213 97 l 532 97 l 532 0 l 82 0 l 82 1071 z "},"\\":{"ha":484,"x_min":-22,"x_max":507,"o":"m 85 1174 l 507 -77 l 399 -117 l -22 1139 l 85 1174 z "},"]":{"ha":610,"x_min":79,"x_max":529,"o":"m 79 1071 l 529 1071 l 529 0 l 79 0 l 79 97 l 398 97 l 398 974 l 79 974 l 79 1071 z "},"^":{"ha":595,"x_min":66,"x_max":528,"o":"m 297 549 l 153 293 l 66 346 l 264 686 l 330 686 l 528 346 l 441 293 l 297 549 z "},"_":{"ha":805,"x_min":83,"x_max":721,"o":"m 721 -75 l 83 -75 l 83 22 l 721 22 l 721 -75 z "},"`":{"ha":311,"x_min":20,"x_max":288,"o":"m 288 241 l 242 224 l 20 600 l 184 661 l 288 241 z "},"a":{"ha":809,"x_min":75,"x_max":729,"o":"m 372 79 q 600 184 488 79 l 600 386 q 448 400 511 400 q 354 397 384 400 q 295 383 325 393 q 247 356 266 373 q 204 236 204 318 q 245 117 204 155 q 372 79 286 79 m 600 451 l 600 484 q 552 672 600 631 q 432 710 507 710 q 170 634 289 710 l 124 717 q 269 784 202 761 q 419 807 336 807 q 565 788 503 807 q 663 726 627 770 q 714 621 700 683 q 729 465 729 559 l 729 0 l 634 0 l 615 121 q 340 -14 517 -14 q 145 48 216 -14 q 75 233 75 111 q 165 425 75 361 q 376 485 250 485 q 492 475 422 485 q 600 451 561 465 z "},"b":{"ha":849,"x_min":85,"x_max":773,"o":"m 449 -14 q 315 24 380 -14 q 199 121 250 61 l 180 0 l 85 0 l 85 1071 l 214 1095 l 214 699 q 326 775 260 744 q 455 807 391 807 q 574 783 518 807 q 666 720 629 760 q 727 627 703 681 q 773 393 773 526 q 665 71 773 183 q 449 -14 585 -14 m 650 396 q 455 710 650 710 q 327 682 397 710 q 214 612 258 653 l 214 185 q 455 79 321 79 q 581 133 537 80 q 633 239 623 186 q 650 396 650 326 z "},"c":{"ha":756,"x_min":75,"x_max":685,"o":"m 232 570 q 224 550 232 570 q 210 486 216 529 q 204 368 204 444 q 231 218 204 292 q 423 79 283 79 q 646 166 559 79 l 685 75 q 420 -14 558 -14 q 266 19 334 -14 q 158 109 199 52 q 75 393 75 224 q 159 682 76 564 q 267 774 199 741 q 422 807 335 807 q 685 717 558 807 l 646 627 q 442 705 555 705 q 273 641 329 705 q 232 570 248 612 z "},"d":{"ha":850,"x_min":77,"x_max":766,"o":"m 124 161 q 112 188 124 161 q 88 273 99 214 q 77 394 77 331 q 87 513 77 456 q 122 624 98 570 q 182 718 146 678 q 390 807 261 807 q 527 777 457 807 q 637 697 597 747 l 637 1095 l 766 1071 l 766 0 l 671 0 l 652 121 q 540 25 607 64 q 405 -14 473 -14 q 280 9 336 -14 q 186 70 224 32 q 124 161 149 109 m 398 710 q 200 395 200 710 q 402 79 200 79 q 530 109 465 79 q 637 186 595 139 l 637 612 q 398 710 509 710 z "},"e":{"ha":802,"x_min":77,"x_max":726,"o":"m 612 486 q 572 647 612 583 q 427 717 527 716 q 206 463 228 717 l 612 463 l 612 486 m 203 382 q 346 96 206 151 q 440 79 387 79 q 648 165 555 79 l 690 67 q 567 9 640 32 q 418 -14 494 -14 q 273 18 342 -14 q 161 105 203 50 q 77 392 76 217 q 161 680 77 562 q 271 773 203 739 q 420 807 339 807 q 560 780 501 807 q 654 704 618 752 q 726 458 726 608 q 719 382 726 428 l 203 382 z "},"f":{"ha":609,"x_min":45,"x_max":566,"o":"m 303 898 l 307 793 l 543 793 l 543 722 l 307 722 l 307 0 l 178 0 l 178 722 l 45 722 l 45 793 l 178 793 q 201 996 178 929 q 267 1089 222 1059 q 402 1125 319 1124 q 566 1063 481 1125 l 524 978 q 425 1028 468 1028 q 359 1018 382 1028 q 323 989 335 1008 q 303 898 302 958 z "},"g":{"ha":831,"x_min":56,"x_max":776,"o":"m 163 -69 q 163 -85 163 -69 q 171 -121 163 -101 q 197 -152 180 -140 q 241 -176 214 -164 q 366 -188 268 -188 l 410 -188 q 481 -186 433 -188 q 581 -165 529 -184 q 647 -75 647 -140 q 604 21 647 -10 q 447 52 561 52 l 229 52 q 180 -2 197 32 q 163 -69 163 -37 m 189 563 q 189 538 189 563 q 224 455 189 513 q 313 374 259 398 q 441 395 349 374 q 510 433 477 404 q 557 583 557 474 q 522 681 557 648 q 376 718 481 718 q 247 688 298 718 q 204 642 220 671 q 189 563 189 613 m 390 147 q 562 133 485 147 q 640 109 606 125 q 700 70 673 94 q 742 11 728 47 q 757 -75 757 -26 q 733 -163 757 -123 q 672 -227 709 -203 q 587 -264 636 -250 q 493 -284 537 -279 q 389 -290 448 -290 q 270 -282 330 -290 q 56 -85 56 -255 q 168 73 56 22 q 110 136 132 97 q 87 222 87 175 q 124 307 87 269 q 214 353 161 345 q 115 444 151 381 q 80 589 80 507 q 145 728 80 671 q 379 807 235 807 q 569 755 503 807 q 662 786 614 779 q 776 794 709 793 l 776 696 l 614 696 q 671 545 671 663 q 594 369 670 427 q 516 326 560 343 q 426 301 472 308 q 336 288 380 294 q 258 275 292 281 q 203 255 224 269 q 182 215 182 241 q 196 142 182 189 l 390 147 z "},"h":{"ha":833,"x_min":83,"x_max":753,"o":"m 454 710 q 329 679 403 710 q 212 602 256 648 l 212 0 l 83 0 l 83 1071 l 212 1096 l 212 686 q 337 775 275 743 q 476 807 400 807 q 687 727 621 807 q 753 493 753 646 l 753 0 l 624 0 l 624 493 q 579 666 624 614 q 454 710 541 710 z "},"i":{"ha":317,"x_min":85,"x_max":234,"o":"m 220 0 l 96 0 l 96 793 l 220 793 l 220 0 m 85 991 q 85 1007 85 991 q 107 1046 85 1023 q 161 1069 129 1069 q 214 1047 193 1069 q 234 991 234 1024 q 214 936 234 959 q 161 913 193 913 q 106 936 128 913 q 85 991 85 959 z "},"j":{"ha":411,"x_min":63,"x_max":328,"o":"m 63 -175 q 179 -18 159 -113 q 191 119 190 36 l 191 793 l 319 793 l 319 104 q 268 -115 319 -15 q 198 -202 242 -165 q 95 -253 153 -239 l 63 -175 m 178 991 q 178 1007 178 991 q 200 1046 178 1023 q 255 1069 222 1069 q 307 1047 287 1069 q 328 991 328 1024 q 307 936 328 959 q 254 913 287 913 q 200 936 222 913 q 178 991 178 959 z "},"k":{"ha":823,"x_min":85,"x_max":768,"o":"m 745 793 l 370 439 l 768 0 l 618 0 l 292 376 l 214 311 l 214 0 l 85 0 l 85 1071 l 214 1095 l 214 425 l 593 793 l 745 793 z "},"l":{"ha":296,"x_min":83,"x_max":212,"o":"m 83 0 l 83 1071 l 212 1095 l 212 0 l 83 0 z "},"m":{"ha":1289,"x_min":83,"x_max":1208,"o":"m 682 656 q 806 766 728 724 q 956 807 884 807 q 1075 784 1027 807 q 1151 720 1122 761 q 1208 519 1208 640 l 1208 0 l 1079 0 l 1079 521 q 1044 671 1080 629 q 947 710 1013 709 q 702 582 825 710 l 702 0 l 573 0 l 573 521 q 539 672 573 631 q 443 710 507 710 q 212 583 339 710 l 212 0 l 83 0 l 83 793 l 179 793 l 197 653 q 312 765 241 722 q 463 807 384 807 q 600 768 542 807 q 682 656 658 728 z "},"n":{"ha":832,"x_min":83,"x_max":751,"o":"m 212 597 l 212 0 l 83 0 l 83 793 l 178 793 l 195 666 q 331 765 241 725 q 494 806 421 806 q 617 781 567 806 q 695 712 667 756 q 751 493 751 626 l 751 0 l 622 0 l 622 493 q 579 665 621 612 q 479 710 543 709 q 336 674 416 710 q 212 597 256 637 z "},"o":{"ha":871,"x_min":76,"x_max":795,"o":"m 206 488 q 203 466 206 488 q 199 395 199 444 q 206 302 199 345 q 230 217 213 258 q 273 145 247 175 q 435 79 330 79 q 642 216 587 79 q 671 395 671 292 q 530 694 671 632 q 435 713 489 713 q 340 694 382 713 q 273 646 299 676 q 230 574 247 616 q 206 488 213 532 m 98 235 q 87 272 98 235 q 76 395 76 309 q 98 554 76 481 q 164 685 121 628 q 277 774 208 742 q 435 807 347 807 q 594 774 524 807 q 707 685 664 742 q 773 555 751 629 q 795 395 795 481 q 773 235 795 309 q 707 106 751 162 q 594 18 664 50 q 435 -14 524 -14 q 277 18 347 -14 q 164 106 208 50 q 98 235 121 162 z "},"p":{"ha":852,"x_min":85,"x_max":776,"o":"m 457 -14 q 325 21 389 -14 q 214 111 260 55 l 214 -315 l 85 -330 l 85 793 l 181 793 l 203 659 q 318 765 252 723 q 455 807 385 807 q 579 784 525 807 q 670 721 634 760 q 730 628 706 682 q 776 396 776 528 q 669 73 776 191 q 457 -14 590 -14 m 626 204 q 634 224 626 204 q 647 282 641 243 q 652 364 652 322 q 650 439 652 406 q 641 514 648 473 q 620 588 634 555 q 586 650 606 621 q 458 710 542 710 q 328 677 401 710 q 214 604 254 645 l 214 193 q 320 115 248 151 q 443 79 393 79 q 529 96 492 79 q 589 139 566 113 q 626 204 612 166 z "},"q":{"ha":844,"x_min":74,"x_max":764,"o":"m 176 720 q 193 740 176 720 q 265 783 211 760 q 390 807 319 807 q 532 765 460 807 q 646 659 604 722 l 669 793 l 764 793 l 764 -325 l 635 -340 l 635 111 q 526 21 591 55 q 394 -14 462 -14 q 272 10 326 -14 q 181 73 217 33 q 120 165 145 112 q 85 276 96 218 q 74 396 74 334 q 84 516 74 458 q 117 627 94 573 q 176 720 141 680 m 197 396 q 309 100 198 162 q 399 79 346 79 q 523 109 452 79 q 635 182 593 139 l 635 604 q 519 679 591 648 q 387 710 447 710 q 197 396 197 710 z "},"r":{"ha":564,"x_min":83,"x_max":487,"o":"m 419 807 q 487 799 458 807 l 487 696 q 433 699 473 699 q 321 670 392 699 q 212 606 250 642 l 212 0 l 83 0 l 83 793 l 180 793 l 201 663 q 419 807 312 807 z "},"s":{"ha":683,"x_min":60,"x_max":625,"o":"m 67 68 l 111 166 q 216 104 154 129 q 321 79 278 79 q 392 85 363 79 q 448 106 420 92 q 508 213 507 136 q 419 329 508 292 q 332 358 380 345 q 236 389 284 372 q 149 430 189 406 q 85 498 110 454 q 60 599 60 543 q 85 696 60 656 q 149 760 109 736 q 330 807 230 807 q 468 782 386 807 q 589 724 549 757 l 547 627 q 337 707 448 707 q 169 597 169 707 q 259 505 168 538 q 348 476 300 490 q 445 441 397 461 q 534 393 494 420 q 600 318 574 366 q 625 211 625 271 q 599 105 625 150 q 529 35 572 60 q 328 -14 444 -14 q 189 11 269 -14 q 67 68 109 35 z "},"t":{"ha":621,"x_min":65,"x_max":553,"o":"m 553 27 q 387 -9 475 -9 q 243 49 298 -9 q 189 203 189 108 l 189 722 l 65 722 l 65 793 l 208 793 l 208 1038 l 318 1069 l 318 793 l 544 793 l 544 722 l 318 722 l 318 202 q 342 118 318 152 q 416 85 366 85 q 528 115 467 85 l 553 27 z "},"u":{"ha":821,"x_min":82,"x_max":737,"o":"m 368 79 q 608 186 500 79 l 608 793 l 737 793 l 737 0 l 642 0 l 623 119 q 361 -14 505 -14 q 150 69 217 -14 q 82 300 82 151 l 82 793 l 211 793 l 211 300 q 289 98 212 141 q 368 79 321 80 z "},"v":{"ha":833,"x_min":63,"x_max":771,"o":"m 479 0 l 353 0 l 63 793 l 191 793 l 418 135 l 642 793 l 771 793 l 479 0 z "},"w":{"ha":1187,"x_min":63,"x_max":1123,"o":"m 594 675 l 426 0 l 286 0 l 63 793 l 188 793 l 357 104 l 528 793 l 665 793 l 843 102 l 1002 793 l 1123 793 l 906 0 l 766 0 l 594 675 z "},"x":{"ha":802,"x_min":62,"x_max":739,"o":"m 62 793 l 209 793 l 400 476 l 597 793 l 739 793 l 464 396 l 734 0 l 595 0 l 404 323 l 209 0 l 65 0 l 342 396 l 62 793 z "},"y":{"ha":820,"x_min":59,"x_max":760,"o":"m 423 169 l 627 793 l 760 793 l 463 -25 q 445 -75 452 -56 q 426 -122 438 -94 q 404 -167 414 -150 q 380 -206 395 -184 q 351 -242 366 -229 q 317 -270 336 -256 q 275 -293 297 -285 q 169 -311 227 -311 l 134 -227 q 271 -171 221 -210 q 365 16 323 -130 l 59 793 l 182 793 l 423 169 z "},"z":{"ha":701,"x_min":77,"x_max":621,"o":"m 621 793 l 621 681 l 197 98 l 621 98 l 621 0 l 77 0 l 77 113 l 510 698 l 98 698 l 98 793 l 621 793 z "},"{":{"ha":519,"x_min":39,"x_max":478,"o":"m 39 387 l 39 515 l 39 515 q 168 582 136 515 q 191 652 183 613 q 202 735 198 692 q 211 823 205 780 q 275 977 222 917 q 477 1044 334 1043 l 477 1044 l 478 929 l 476 929 q 347 878 380 929 q 325 823 332 853 q 316 756 317 792 q 312 660 315 720 q 282 544 309 599 q 152 451 248 476 q 282 358 248 426 q 304 290 297 328 q 316 146 312 252 q 347 24 319 68 q 476 -27 380 -27 l 478 -27 l 477 -142 l 477 -142 q 275 -75 334 -141 q 232 -4 248 -43 q 211 79 216 35 q 199 196 205 123 q 168 320 193 269 q 39 387 136 387 l 39 387 z "},"|":{"ha":296,"x_min":87,"x_max":208,"o":"m 87 -75 l 87 1150 l 208 1150 l 208 -75 l 87 -75 z "},"}":{"ha":519,"x_min":42,"x_max":481,"o":"m 481 387 l 481 387 q 352 320 385 387 q 321 196 327 269 q 309 79 315 123 q 288 -4 304 35 q 245 -75 272 -43 q 43 -142 186 -141 l 43 -142 l 42 -27 l 44 -27 q 173 24 140 -27 q 204 146 201 68 q 216 290 208 252 q 239 358 224 328 q 368 451 273 426 q 239 544 273 476 q 208 660 211 600 q 204 756 205 720 q 195 823 202 792 q 172 878 187 853 q 44 929 140 929 l 42 929 l 43 1044 l 43 1044 q 245 977 186 1043 q 309 823 298 917 q 318 736 315 780 q 330 652 322 692 q 352 582 337 613 q 481 515 385 515 l 481 515 l 481 387 z "},"~":{"ha":659,"x_min":73,"x_max":588,"o":"m 278 326 q 222 346 239 346 q 195 338 205 345 q 183 316 186 330 q 178 267 178 292 l 73 267 q 209 444 73 444 q 336 401 271 444 q 442 359 401 359 q 482 434 482 359 l 588 434 q 555 315 588 366 q 460 264 522 264 q 278 326 398 264 z "}," ":{"ha":347,"x_min":0,"x_max":0,"o":""},"¡":{"ha":278,"x_min":49,"x_max":201,"o":"m 191 945 l 49 945 l 49 1082 l 191 1082 l 191 945 m 201 800 l 201 0 l 83 0 l 83 800 l 201 800 z "},"¢":{"ha":688,"x_min":43,"x_max":652,"o":"m 652 730 q 614 640 652 730 q 434 704 528 703 l 434 88 q 614 139 530 88 l 645 46 q 434 -13 531 -12 l 434 -108 l 364 -108 l 364 -15 q 219 25 282 -10 q 118 117 156 60 q 43 393 42 231 q 118 671 43 559 q 364 806 198 790 l 364 901 l 434 901 l 434 804 q 652 730 533 803 m 364 87 l 364 703 q 172 393 172 679 q 195 233 172 301 q 364 87 239 100 z "},"£":{"ha":684,"x_min":41,"x_max":643,"o":"m 79 85 q 150 232 125 137 q 175 409 175 327 l 41 409 l 41 479 l 158 479 q 103 555 125 504 q 80 662 80 606 q 117 775 80 718 q 215 865 155 833 q 349 897 276 897 q 505 879 422 897 q 643 827 587 862 l 609 738 q 385 800 481 800 q 203 650 203 800 q 282 479 203 562 l 572 479 l 572 409 l 282 409 q 262 236 282 327 q 201 90 241 144 l 619 90 l 619 0 l 79 0 l 79 85 z "},"¤":{"ha":800,"x_min":30,"x_max":773,"o":"m 404 859 q 365 859 404 859 q 267 799 327 859 q 208 663 208 740 q 263 530 208 587 q 395 474 319 474 q 531 535 471 474 q 591 671 591 595 q 536 803 591 747 q 404 859 480 859 m 157 503 q 111 659 111 574 q 161 819 111 744 l 30 951 l 114 1035 l 245 904 q 407 956 321 956 q 563 909 492 956 l 689 1035 l 773 951 l 646 824 q 688 674 688 758 q 636 513 688 589 l 773 376 l 689 292 l 551 429 q 393 378 477 378 q 242 420 308 378 l 114 292 l 30 376 l 157 503 z "},"¥":{"ha":719,"x_min":-58,"x_max":775,"o":"m 270 467 l -58 1071 l 74 1071 l 359 534 l 644 1071 l 775 1071 l 449 467 l 627 467 l 627 396 l 427 396 l 427 331 l 627 331 l 627 264 l 427 264 l 427 0 l 298 0 l 298 264 l 93 264 l 93 331 l 298 331 l 298 396 l 93 396 l 93 467 l 270 467 z "},"¦":{"ha":292,"x_min":83,"x_max":210,"o":"m 83 603 l 83 1071 l 210 1071 l 210 603 l 83 603 m 83 0 l 83 468 l 210 468 l 210 0 l 83 0 z "},"§":{"ha":627,"x_min":54,"x_max":589,"o":"m 60 14 l 102 107 q 194 54 138 75 q 290 34 249 34 q 360 39 332 34 q 415 56 388 44 q 475 151 475 83 q 422 245 475 212 q 323 286 383 269 q 229 315 264 303 q 163 343 195 326 q 106 382 131 359 q 54 523 54 432 q 80 602 54 568 q 227 675 127 663 q 112 736 145 706 q 66 798 78 766 q 54 875 54 829 q 77 959 54 920 q 138 1020 100 998 q 309 1064 214 1065 q 440 1040 361 1064 q 555 985 519 1016 l 515 892 q 316 966 420 966 q 159 865 159 966 q 227 787 160 814 q 356 740 298 757 q 452 702 414 722 q 521 658 491 682 q 588 506 587 604 q 537 400 588 441 q 419 354 487 359 q 546 277 502 326 q 589 160 589 229 q 565 48 589 92 q 499 -18 541 5 q 409 -54 457 -42 q 307 -65 361 -65 q 176 -42 253 -65 q 60 14 99 -18 m 479 509 q 362 613 479 604 q 317 614 342 614 q 158 511 158 614 q 319 407 158 407 q 479 509 479 407 z "},"¨":{"ha":556,"x_min":41,"x_max":523,"o":"m 41 336 q 41 352 41 336 q 63 391 41 368 q 118 414 85 414 q 170 392 150 414 q 191 336 191 369 q 170 281 191 304 q 117 258 150 258 q 63 281 85 258 q 41 336 41 304 m 374 336 q 374 352 374 336 q 396 391 374 368 q 450 414 418 414 q 503 392 482 414 q 523 336 523 369 q 503 281 523 304 q 450 258 482 258 q 395 281 417 258 q 374 336 374 304 z "},"©":{"ha":1232,"x_min":24,"x_max":1211,"o":"m 642 228 q 379 311 470 228 q 288 564 288 395 q 379 816 288 732 q 642 899 470 899 q 832 846 729 899 l 832 761 q 633 812 730 812 q 451 754 503 812 q 398 564 398 696 q 451 373 398 431 q 633 315 503 315 q 832 366 730 315 l 832 281 q 642 228 729 228 m 24 562 q 24 622 24 562 q 72 790 24 682 q 200 975 119 898 q 389 1098 280 1053 q 617 1144 498 1144 q 845 1098 736 1144 q 1035 975 954 1053 q 1163 790 1115 898 q 1211 563 1211 682 q 1130 268 1211 401 q 914 60 1050 135 q 617 -16 778 -16 q 387 29 496 -16 q 198 149 278 73 q 71 333 118 225 q 24 562 24 441 m 124 559 q 124 490 124 559 q 188 309 124 422 q 364 132 252 196 q 617 68 477 68 q 870 132 758 68 q 1046 309 983 196 q 1110 562 1110 422 q 1071 754 1110 662 q 966 913 1032 846 q 809 1020 901 980 q 600 1059 718 1059 q 369 992 483 1059 q 190 811 256 925 q 124 559 124 696 z "},"ª":{"ha":619,"x_min":39,"x_max":550,"o":"m 82 390 l 546 390 l 546 302 l 82 302 l 82 390 m 148 659 q 177 558 148 587 q 266 530 207 530 q 369 553 324 530 q 441 612 414 576 l 441 774 q 321 785 366 785 q 148 659 148 785 m 311 1026 q 113 979 201 1026 l 77 1053 q 186 1095 124 1080 q 313 1111 249 1111 q 426 1095 378 1111 q 500 1043 473 1078 q 550 838 549 979 l 550 465 l 471 465 l 453 562 q 372 481 430 510 q 254 453 315 453 q 97 504 156 453 q 39 651 39 555 q 190 841 39 799 q 297 853 233 853 q 441 826 361 853 l 441 865 q 424 975 441 945 q 379 1016 406 1006 q 311 1026 353 1026 z "},"«":{"ha":863,"x_min":10,"x_max":835,"o":"m 835 571 l 538 391 l 835 208 l 835 67 l 422 326 l 422 452 l 835 711 l 835 571 m 422 571 l 127 391 l 422 208 l 422 67 l 10 326 l 10 452 l 422 711 l 422 571 z "},"¬":{"ha":985,"x_min":1,"x_max":919,"o":"m 919 229 l 800 229 l 800 694 l 1 694 l 1 796 l 919 796 l 919 229 z "},"­":{"ha":401,"x_min":46,"x_max":363,"o":"m 363 345 l 46 345 l 46 433 l 363 433 l 363 345 z "},"®":{"ha":836,"x_min":19,"x_max":819,"o":"m 403 780 q 495 814 477 780 q 503 852 503 829 q 393 899 503 899 l 370 899 l 370 780 l 403 780 m 553 909 q 574 844 574 887 q 547 775 574 800 q 461 736 519 751 l 583 567 q 515 532 574 564 l 397 724 l 368 724 l 368 547 l 296 547 l 296 955 l 378 955 q 553 909 509 955 m 764 554 q 736 510 764 554 q 617 417 709 466 q 418 368 526 368 q 219 417 311 368 q 74 554 128 466 q 19 751 19 643 q 74 948 19 859 q 220 1086 129 1036 q 419 1135 312 1135 q 617 1086 526 1135 q 764 948 709 1037 q 819 751 819 859 q 764 554 819 643 m 136 587 q 158 551 136 587 q 254 475 180 515 q 417 435 328 435 q 582 475 507 435 q 701 588 656 515 q 745 750 745 661 q 650 976 745 886 q 418 1066 554 1066 q 254 1025 328 1066 q 136 912 180 985 q 92 749 92 839 q 136 587 92 659 z "},"¯":{"ha":567,"x_min":60,"x_max":522,"o":"m 522 66 l 60 66 l 60 146 l 522 146 l 522 66 z "},"°":{"ha":383,"x_min":29,"x_max":355,"o":"m 262 682 q 249 696 262 682 q 193 711 235 711 q 123 681 151 711 q 95 610 95 652 q 124 538 95 568 q 194 509 153 509 q 262 538 235 509 q 289 610 289 567 q 262 682 289 652 m 29 610 q 29 645 29 610 q 76 726 29 680 q 194 772 123 772 q 309 726 264 772 q 355 610 355 680 q 310 494 355 540 q 194 448 264 448 q 77 493 124 448 q 29 610 29 539 z "},"±":{"ha":578,"x_min":35,"x_max":555,"o":"m 555 351 l 342 351 l 342 118 l 247 118 l 247 351 l 35 351 l 35 441 l 247 441 l 247 675 l 342 675 l 342 441 l 555 441 l 555 351 m 533 -37 l 58 -37 l 58 60 l 533 60 l 533 -37 z "},"²":{"ha":527,"x_min":35,"x_max":486,"o":"m 192 556 l 467 556 l 467 453 l 35 453 l 35 546 q 82 586 46 556 q 152 643 119 615 q 227 709 186 671 q 298 782 269 748 q 370 915 370 863 q 332 991 370 968 q 235 1014 294 1014 q 46 979 176 1014 l 46 1077 q 254 1111 135 1111 q 414 1065 347 1111 q 486 920 486 1016 q 377 712 487 821 q 274 623 340 676 q 192 556 208 570 z "},"³":{"ha":541,"x_min":18,"x_max":505,"o":"m 379 938 q 227 1045 379 1045 q 68 1006 146 1045 l 37 1093 q 231 1137 127 1137 q 401 1095 328 1137 q 461 1034 439 1073 q 484 937 484 996 q 434 827 484 878 q 317 774 385 775 q 453 704 401 758 q 505 566 505 650 q 480 476 505 516 q 418 414 457 437 q 241 366 339 366 q 121 380 185 366 q 18 419 58 393 l 53 505 q 227 456 151 456 q 347 488 302 456 q 392 578 392 521 q 214 727 392 707 l 214 819 q 353 869 305 819 q 379 938 380 898 z "},"´":{"ha":292,"x_min":26,"x_max":292,"o":"m 65 222 l 26 240 l 134 654 l 292 593 l 65 222 z "},"µ":{"ha":895,"x_min":125,"x_max":791,"o":"m 414 83 q 550 113 486 83 q 650 186 614 142 l 650 793 l 791 793 l 791 11 l 692 11 l 675 115 q 406 -14 559 -14 q 243 77 313 -14 l 243 -197 l 125 -197 l 125 793 l 243 793 l 243 300 q 414 83 243 83 z "},"¶":{"ha":736,"x_min":-22,"x_max":656,"o":"m 340 1070 q 656 1070 340 1070 l 656 0 l 530 0 l 530 968 l 438 968 l 438 0 l 309 0 l 309 614 q 125 642 205 613 q 49 683 81 658 q -2 751 18 709 q -22 861 -22 793 q 22 981 -22 929 q 340 1070 96 1070 z "},"·":{"ha":223,"x_min":41,"x_max":191,"o":"m 41 440 q 41 457 41 440 q 63 496 41 473 q 118 519 85 519 q 170 496 150 519 q 191 441 191 473 q 170 386 191 408 q 117 363 150 363 q 63 386 85 363 q 41 440 41 408 z "},"¸":{"ha":340,"x_min":45,"x_max":341,"o":"m 45 -366 l 45 -287 q 167 -315 125 -315 q 230 -296 210 -315 q 251 -238 251 -277 q 244 -183 251 -200 q 222 -155 237 -165 q 192 -139 207 -145 q 155 -130 178 -133 q 79 -126 121 -126 l 79 52 l 161 52 l 161 -66 q 295 -106 250 -66 q 341 -232 341 -145 q 170 -392 341 -392 q 45 -366 121 -392 z "},"¹":{"ha":308,"x_min":-20,"x_max":236,"o":"m 121 324 l 121 884 l 5 836 l -20 912 l 141 977 l 236 959 l 236 324 l 121 324 z "},"º":{"ha":648,"x_min":37,"x_max":613,"o":"m 96 390 l 559 390 l 559 302 l 96 302 l 96 390 m 167 920 q 160 904 167 920 q 149 854 154 888 q 144 778 144 821 q 153 694 144 734 q 181 617 161 653 q 325 541 223 541 q 483 646 440 541 q 506 762 506 703 q 501 854 506 821 q 483 919 496 887 q 449 975 469 951 q 397 1011 429 998 q 325 1025 366 1025 q 252 1011 284 1025 q 200 975 220 998 q 167 920 180 952 m 164 499 q 131 522 164 499 q 68 616 98 544 q 37 769 37 688 q 55 909 37 850 q 108 1013 73 968 q 325 1111 182 1111 q 543 1013 468 1111 q 613 781 613 921 q 543 550 613 642 q 325 454 469 454 q 164 499 231 454 z "},"»":{"ha":868,"x_min":40,"x_max":865,"o":"m 40 571 l 40 711 l 453 452 l 453 326 l 40 67 l 40 208 l 343 391 l 40 571 m 452 571 l 452 711 l 865 452 l 865 326 l 452 67 l 452 208 l 755 391 l 452 571 z "},"¼":{"ha":978,"x_min":-34,"x_max":996,"o":"m 806 642 l 893 621 l 893 98 l 996 98 l 996 23 l 893 23 l 893 -154 l 795 -170 l 795 23 l 439 23 l 424 98 l 806 642 m 532 98 l 795 98 l 795 477 q 532 98 671 286 m 107 385 l 107 958 l -8 909 l -34 972 l 127 1037 l 216 1019 l 216 385 l 107 385 m 14 -20 l 718 926 l 801 863 l 95 -83 l 14 -20 z "},"½":{"ha":1111,"x_min":-34,"x_max":1103,"o":"m 808 -14 l 1084 -14 l 1084 -117 l 651 -117 l 651 -24 q 699 16 663 -14 q 769 73 735 45 q 844 140 802 101 q 915 212 885 178 q 986 346 986 293 q 948 421 986 398 q 851 444 911 444 q 663 409 792 444 l 663 507 q 870 541 751 541 q 1031 495 964 541 q 1103 351 1103 446 q 993 142 1103 251 q 890 53 956 106 q 808 -14 825 0 m 14 -20 l 718 926 l 801 863 l 95 -83 l 14 -20 m 107 385 l 107 958 l -8 909 l -34 972 l 127 1037 l 216 1019 l 216 385 l 107 385 z "},"¾":{"ha":1192,"x_min":-7,"x_max":1211,"o":"m 1021 642 l 1108 621 l 1108 98 l 1211 98 l 1211 23 l 1108 23 l 1108 -154 l 1010 -170 l 1010 23 l 654 23 l 639 98 l 1021 642 m 353 938 q 201 1045 353 1045 q 43 1006 120 1045 l 11 1093 q 205 1137 102 1137 q 376 1095 302 1137 q 435 1034 413 1073 q 458 937 458 996 q 409 827 458 878 q 292 774 359 775 q 427 704 376 758 q 479 566 479 650 q 454 476 479 516 q 392 414 431 437 q 204 366 313 366 q -7 419 95 366 l 27 505 q 201 456 125 456 q 321 488 277 456 q 366 578 366 521 q 189 727 366 707 l 189 819 q 327 869 279 819 q 353 938 354 898 m 229 -20 l 927 926 l 1016 863 l 310 -83 l 229 -20 m 747 98 l 1010 98 l 1010 477 q 878 276 944 367 q 747 98 812 186 z "},"¿":{"ha":585,"x_min":12,"x_max":614,"o":"m 374 536 l 374 795 l 496 795 l 496 467 q 315 395 368 422 q 141 182 141 309 q 230 46 141 75 q 342 32 276 31 q 574 90 481 32 l 614 -7 q 484 -58 561 -39 q 347 -77 406 -77 q 242 -70 288 -77 q 153 -45 197 -63 q 79 -1 110 -28 q 12 169 12 60 q 99 385 12 300 q 209 466 153 438 q 374 536 285 504 m 370 950 q 370 965 370 950 q 391 1000 370 979 q 441 1021 412 1021 q 491 998 471 1021 q 511 947 511 976 q 489 899 511 918 q 438 879 467 879 q 390 900 410 879 q 370 950 370 922 z "},"À":{"ha":1018,"x_min":57,"x_max":960,"o":"m 57 0 m 532 1179 l 486 1161 l 264 1537 l 428 1598 l 532 1179 m 724 329 l 509 990 l 294 329 l 724 329 m 746 260 l 271 260 l 188 0 l 57 0 l 407 1071 l 610 1071 l 960 0 l 829 0 l 746 260 z "},"Á":{"ha":1018,"x_min":57,"x_max":960,"o":"m 57 0 m 528 1161 l 489 1179 l 597 1593 l 754 1531 l 528 1161 m 724 329 l 509 990 l 294 329 l 724 329 m 746 260 l 271 260 l 188 0 l 57 0 l 407 1071 l 610 1071 l 960 0 l 829 0 l 746 260 z "},"Â":{"ha":1018,"x_min":57,"x_max":960,"o":"m 57 0 m 509 1417 l 365 1161 l 278 1214 l 476 1554 l 541 1554 l 739 1214 l 652 1161 l 509 1417 m 724 329 l 509 990 l 294 329 l 724 329 m 746 260 l 271 260 l 188 0 l 57 0 l 407 1071 l 610 1071 l 960 0 l 829 0 l 746 260 z "},"Ã":{"ha":1018,"x_min":57,"x_max":960,"o":"m 57 0 m 766 1331 q 733 1209 766 1257 q 636 1161 701 1161 q 509 1201 573 1160 q 397 1242 429 1238 q 365 1222 372 1242 q 357 1164 357 1202 l 251 1164 q 387 1340 251 1340 q 509 1298 451 1340 q 621 1255 566 1255 q 661 1331 661 1255 l 766 1331 m 724 329 l 509 990 l 294 329 l 724 329 m 746 260 l 271 260 l 188 0 l 57 0 l 407 1071 l 610 1071 l 960 0 l 829 0 l 746 260 z "},"Ä":{"ha":1018,"x_min":57,"x_max":960,"o":"m 57 0 m 268 1239 q 268 1255 268 1239 q 290 1294 268 1271 q 344 1317 312 1317 q 397 1294 376 1317 q 417 1239 417 1272 q 397 1184 417 1206 q 344 1161 376 1161 q 290 1184 311 1161 q 268 1239 268 1206 m 600 1239 q 600 1255 600 1239 q 622 1294 600 1271 q 676 1317 644 1317 q 729 1294 709 1317 q 749 1239 749 1272 q 729 1184 749 1206 q 676 1161 709 1161 q 622 1184 644 1161 q 600 1239 600 1206 m 724 329 l 509 990 l 294 329 l 724 329 m 746 260 l 271 260 l 188 0 l 57 0 l 407 1071 l 610 1071 l 960 0 l 829 0 l 746 260 z "},"Å":{"ha":1018,"x_min":57,"x_max":960,"o":"m 57 0 m 509 1081 q 390 1126 435 1081 q 345 1244 345 1171 q 390 1362 345 1317 q 509 1407 435 1407 q 627 1362 582 1407 q 673 1244 673 1317 q 627 1126 673 1171 q 509 1081 582 1081 m 410 1244 q 410 1222 410 1244 q 438 1172 410 1200 q 508 1143 465 1143 q 579 1172 551 1143 q 607 1244 607 1200 q 579 1316 607 1287 q 508 1345 551 1345 q 438 1316 465 1345 q 410 1244 410 1287 m 724 329 l 509 990 l 294 329 l 724 329 m 746 260 l 271 260 l 188 0 l 57 0 l 407 1071 l 610 1071 l 960 0 l 829 0 l 746 260 z "},"Æ":{"ha":1224,"x_min":-16,"x_max":1200,"o":"m 1200 0 l 631 0 l 631 252 l 256 252 l 126 0 l -16 0 l 545 1071 l 1181 1071 l 1181 974 l 741 974 l 741 604 l 1152 604 l 1152 518 l 743 518 l 743 97 l 1200 97 l 1200 0 m 629 989 l 297 334 l 629 334 l 629 989 z "},"Ç":{"ha":901,"x_min":77,"x_max":830,"o":"m 77 0 m 379 -431 l 379 -351 q 501 -379 458 -379 q 564 -360 543 -379 q 585 -303 585 -341 q 577 -247 585 -264 q 555 -220 570 -230 q 526 -203 541 -210 q 488 -195 511 -197 q 413 -191 454 -191 l 413 -13 l 495 -13 l 495 -131 q 629 -170 583 -131 q 675 -296 675 -210 q 504 -456 675 -456 q 379 -431 455 -456 m 781 939 q 554 989 648 989 q 400 962 459 989 q 306 894 340 936 q 249 790 271 852 q 221 667 228 728 q 214 532 214 606 q 221 396 214 457 q 250 273 229 334 q 307 169 272 211 q 401 101 342 127 q 538 75 460 75 q 746 129 614 75 q 792 148 785 145 l 830 54 q 651 -12 710 5 q 509 -28 592 -28 q 347 2 425 -28 q 220 84 269 33 q 137 208 170 134 q 77 534 77 341 q 359 1063 77 963 q 538 1092 438 1092 q 660 1080 614 1092 q 719 1065 705 1069 q 764 1052 732 1061 q 811 1038 797 1042 l 781 939 z "},"È":{"ha":827,"x_min":83,"x_max":750,"o":"m 83 0 m 439 1179 l 394 1161 l 172 1537 l 336 1598 l 439 1179 m 750 0 l 83 0 l 83 1071 l 741 1071 l 741 974 l 215 974 l 215 604 l 675 604 l 675 526 l 215 526 l 215 97 l 750 97 l 750 0 z "},"É":{"ha":827,"x_min":83,"x_max":750,"o":"m 83 0 m 436 1161 l 397 1179 l 505 1593 l 663 1531 l 436 1161 m 750 0 l 83 0 l 83 1071 l 741 1071 l 741 974 l 215 974 l 215 604 l 675 604 l 675 526 l 215 526 l 215 97 l 750 97 l 750 0 z "},"Ê":{"ha":827,"x_min":83,"x_max":750,"o":"m 83 0 m 416 1417 l 273 1161 l 186 1214 l 384 1554 l 449 1554 l 647 1214 l 560 1161 l 416 1417 m 750 0 l 83 0 l 83 1071 l 741 1071 l 741 974 l 215 974 l 215 604 l 675 604 l 675 526 l 215 526 l 215 97 l 750 97 l 750 0 z "},"Ë":{"ha":827,"x_min":83,"x_max":750,"o":"m 83 0 m 176 1239 q 176 1255 176 1239 q 198 1294 176 1271 q 252 1317 220 1317 q 304 1294 284 1317 q 325 1239 325 1272 q 304 1184 325 1206 q 252 1161 284 1161 q 197 1184 219 1161 q 176 1239 176 1206 m 508 1239 q 508 1255 508 1239 q 530 1294 508 1271 q 584 1317 552 1317 q 637 1294 616 1317 q 657 1239 657 1272 q 637 1184 657 1206 q 584 1161 616 1161 q 530 1184 551 1161 q 508 1239 508 1206 m 750 0 l 83 0 l 83 1071 l 741 1071 l 741 974 l 215 974 l 215 604 l 675 604 l 675 526 l 215 526 l 215 97 l 750 97 l 750 0 z "},"Ì":{"ha":558,"x_min":33,"x_max":479,"o":"m 33 0 m 301 1179 l 256 1161 l 33 1537 l 197 1598 l 301 1179 m 77 76 l 216 76 l 216 991 l 77 991 l 77 1071 l 479 1071 l 479 991 l 340 991 l 340 76 l 479 76 l 479 0 l 77 0 l 77 76 z "},"Í":{"ha":558,"x_min":77,"x_max":524,"o":"m 77 0 m 298 1161 l 259 1179 l 367 1593 l 524 1531 l 298 1161 m 77 76 l 216 76 l 216 991 l 77 991 l 77 1071 l 479 1071 l 479 991 l 340 991 l 340 76 l 479 76 l 479 0 l 77 0 l 77 76 z "},"Î":{"ha":558,"x_min":47,"x_max":509,"o":"m 47 0 m 278 1417 l 134 1161 l 47 1214 l 245 1554 l 311 1554 l 509 1214 l 422 1161 l 278 1417 m 77 76 l 216 76 l 216 991 l 77 991 l 77 1071 l 479 1071 l 479 991 l 340 991 l 340 76 l 479 76 l 479 0 l 77 0 l 77 76 z "},"Ï":{"ha":558,"x_min":37,"x_max":519,"o":"m 37 0 m 37 1239 q 37 1255 37 1239 q 59 1294 37 1271 q 114 1317 81 1317 q 166 1294 146 1317 q 186 1239 186 1272 q 166 1184 186 1206 q 113 1161 146 1161 q 59 1184 81 1161 q 37 1239 37 1206 m 370 1239 q 370 1255 370 1239 q 392 1294 370 1271 q 446 1317 414 1317 q 498 1294 478 1317 q 519 1239 519 1272 q 498 1184 519 1206 q 446 1161 478 1161 q 391 1184 413 1161 q 370 1239 370 1206 m 77 76 l 216 76 l 216 991 l 77 991 l 77 1071 l 479 1071 l 479 991 l 340 991 l 340 76 l 479 76 l 479 0 l 77 0 l 77 76 z "},"Ð":{"ha":982,"x_min":7,"x_max":939,"o":"m 492 1071 q 878 853 773 1072 q 939 534 939 725 q 492 0 939 0 l 117 0 l 117 518 l 7 518 l 7 607 l 117 607 l 117 1071 l 492 1071 m 407 518 l 248 518 l 248 97 l 492 97 q 626 122 569 97 q 716 187 683 147 q 769 287 749 227 q 802 535 802 385 q 669 925 802 833 q 492 974 599 974 l 248 974 l 248 607 l 407 607 l 407 518 z "},"Ñ":{"ha":1017,"x_min":83,"x_max":933,"o":"m 83 0 m 766 1331 q 733 1209 766 1257 q 635 1161 700 1161 q 509 1201 572 1160 q 396 1242 428 1238 q 364 1222 372 1242 q 356 1164 356 1202 l 250 1164 q 387 1340 250 1340 q 508 1298 450 1340 q 620 1255 566 1255 q 660 1331 660 1255 l 766 1331 m 823 98 l 823 1071 l 933 1071 l 933 0 l 755 0 l 193 972 l 193 0 l 83 0 l 83 1071 l 261 1071 l 823 98 z "},"Ò":{"ha":1042,"x_min":77,"x_max":966,"o":"m 77 0 m 544 1179 l 498 1161 l 276 1537 l 440 1598 l 544 1179 m 905 861 q 922 825 905 861 q 952 708 939 789 q 966 533 966 627 q 952 358 966 438 q 907 206 939 279 q 825 83 875 134 q 521 -28 716 -28 q 137 203 240 -28 q 77 532 77 336 q 216 979 77 831 q 340 1061 264 1031 q 514 1092 416 1092 q 691 1063 612 1092 q 821 983 770 1034 q 905 861 872 933 m 830 532 q 775 842 830 741 q 636 970 723 939 q 526 989 586 989 q 421 975 467 989 q 344 936 376 960 q 289 876 313 912 q 251 802 264 840 q 228 716 237 764 q 213 554 213 635 q 218 421 213 472 q 235 316 223 370 q 271 220 248 262 q 328 145 294 179 q 528 75 398 76 q 830 532 830 75 z "},"Ó":{"ha":1042,"x_min":77,"x_max":966,"o":"m 77 0 m 541 1161 l 503 1179 l 610 1593 l 768 1531 l 541 1161 m 905 861 q 922 825 905 861 q 952 708 939 789 q 966 533 966 627 q 952 358 966 438 q 907 206 939 279 q 825 83 875 134 q 521 -28 716 -28 q 137 203 240 -28 q 77 532 77 336 q 216 979 77 831 q 340 1061 264 1031 q 514 1092 416 1092 q 691 1063 612 1092 q 821 983 770 1034 q 905 861 872 933 m 830 532 q 775 842 830 741 q 636 970 723 939 q 526 989 586 989 q 421 975 467 989 q 344 936 376 960 q 289 876 313 912 q 251 802 264 840 q 228 716 237 764 q 213 554 213 635 q 218 421 213 472 q 235 316 223 370 q 271 220 248 262 q 328 145 294 179 q 528 75 398 76 q 830 532 830 75 z "},"Ô":{"ha":1042,"x_min":77,"x_max":966,"o":"m 77 0 m 522 1417 l 378 1161 l 291 1214 l 489 1554 l 554 1554 l 752 1214 l 665 1161 l 522 1417 m 905 861 q 922 825 905 861 q 952 708 939 789 q 966 533 966 627 q 952 358 966 438 q 907 206 939 279 q 825 83 875 134 q 521 -28 716 -28 q 137 203 240 -28 q 77 532 77 336 q 216 979 77 831 q 340 1061 264 1031 q 514 1092 416 1092 q 691 1063 612 1092 q 821 983 770 1034 q 905 861 872 933 m 830 532 q 775 842 830 741 q 636 970 723 939 q 526 989 586 989 q 421 975 467 989 q 344 936 376 960 q 289 876 313 912 q 251 802 264 840 q 228 716 237 764 q 213 554 213 635 q 218 421 213 472 q 235 316 223 370 q 271 220 248 262 q 328 145 294 179 q 528 75 398 76 q 830 532 830 75 z "},"Õ":{"ha":1042,"x_min":77,"x_max":966,"o":"m 77 0 m 779 1331 q 746 1209 779 1257 q 649 1161 713 1161 q 522 1201 586 1160 q 410 1242 441 1238 q 377 1222 385 1242 q 370 1164 370 1202 l 264 1164 q 400 1340 264 1340 q 522 1298 464 1340 q 633 1255 579 1255 q 673 1331 673 1255 l 779 1331 m 905 861 q 922 825 905 861 q 952 708 939 789 q 966 533 966 627 q 952 358 966 438 q 907 206 939 279 q 825 83 875 134 q 521 -28 716 -28 q 137 203 240 -28 q 77 532 77 336 q 216 979 77 831 q 340 1061 264 1031 q 514 1092 416 1092 q 691 1063 612 1092 q 821 983 770 1034 q 905 861 872 933 m 830 532 q 775 842 830 741 q 636 970 723 939 q 526 989 586 989 q 421 975 467 989 q 344 936 376 960 q 289 876 313 912 q 251 802 264 840 q 228 716 237 764 q 213 554 213 635 q 218 421 213 472 q 235 316 223 370 q 271 220 248 262 q 328 145 294 179 q 528 75 398 76 q 830 532 830 75 z "},"Ö":{"ha":1042,"x_min":77,"x_max":966,"o":"m 77 0 m 281 1239 q 281 1255 281 1239 q 303 1294 281 1271 q 357 1317 325 1317 q 410 1294 389 1317 q 430 1239 430 1272 q 410 1184 430 1206 q 357 1161 389 1161 q 302 1184 324 1161 q 281 1239 281 1206 m 613 1239 q 613 1255 613 1239 q 635 1294 613 1271 q 689 1317 657 1317 q 742 1294 722 1317 q 762 1239 762 1272 q 742 1184 762 1206 q 689 1161 722 1161 q 635 1184 656 1161 q 613 1239 613 1206 m 905 861 q 922 825 905 861 q 952 708 939 789 q 966 533 966 627 q 952 358 966 438 q 907 206 939 279 q 825 83 875 134 q 521 -28 716 -28 q 137 203 240 -28 q 77 532 77 336 q 216 979 77 831 q 340 1061 264 1031 q 514 1092 416 1092 q 691 1063 612 1092 q 821 983 770 1034 q 905 861 872 933 m 830 532 q 775 842 830 741 q 636 970 723 939 q 526 989 586 989 q 421 975 467 989 q 344 936 376 960 q 289 876 313 912 q 251 802 264 840 q 228 716 237 764 q 213 554 213 635 q 218 421 213 472 q 235 316 223 370 q 271 220 248 262 q 328 145 294 179 q 528 75 398 76 q 830 532 830 75 z "},"×":{"ha":611,"x_min":16,"x_max":585,"o":"m 16 585 l 85 654 l 300 439 l 515 654 l 585 585 l 370 370 l 585 155 l 515 86 l 300 301 l 85 86 l 16 155 l 231 370 l 16 585 z "},"Ø":{"ha":970,"x_min":37,"x_max":926,"o":"m 926 532 q 657 2 926 106 q 481 -28 580 -28 q 307 0 383 -28 l 258 -108 l 190 -77 l 239 33 q 75 255 118 115 q 37 500 37 378 q 50 702 37 623 q 95 854 63 782 q 176 979 127 927 q 300 1061 224 1031 q 490 1092 376 1092 q 696 1043 604 1092 l 749 1160 l 818 1131 l 760 1002 q 926 532 926 868 m 481 989 q 176 625 202 989 q 173 532 174 582 q 289 142 173 250 l 651 943 q 481 989 583 989 m 789 532 q 707 886 789 775 l 352 100 l 353 100 q 477 75 410 75 q 596 94 545 75 q 679 147 646 113 q 734 223 712 181 q 768 319 757 265 q 789 532 789 418 z "},"Ù":{"ha":1017,"x_min":83,"x_max":935,"o":"m 83 0 m 532 1179 l 486 1161 l 264 1537 l 428 1598 l 532 1179 m 507 -28 q 336 -2 410 -28 q 216 67 263 23 q 137 177 167 111 q 83 485 83 296 l 83 1071 l 213 1071 l 213 482 q 245 222 213 304 q 334 109 276 145 q 507 68 400 68 q 734 160 669 68 q 786 282 775 218 q 802 482 802 375 l 802 1071 l 935 1071 l 935 485 q 802 67 935 190 q 507 -28 699 -28 z "},"Ú":{"ha":1017,"x_min":83,"x_max":935,"o":"m 83 0 m 528 1161 l 489 1179 l 597 1593 l 754 1531 l 528 1161 m 507 -28 q 336 -2 410 -28 q 216 67 263 23 q 137 177 167 111 q 83 485 83 296 l 83 1071 l 213 1071 l 213 482 q 245 222 213 304 q 334 109 276 145 q 507 68 400 68 q 734 160 669 68 q 786 282 775 218 q 802 482 802 375 l 802 1071 l 935 1071 l 935 485 q 802 67 935 190 q 507 -28 699 -28 z "},"Û":{"ha":1017,"x_min":83,"x_max":935,"o":"m 83 0 m 509 1417 l 365 1161 l 278 1214 l 476 1554 l 541 1554 l 739 1214 l 652 1161 l 509 1417 m 507 -28 q 336 -2 410 -28 q 216 67 263 23 q 137 177 167 111 q 83 485 83 296 l 83 1071 l 213 1071 l 213 482 q 245 222 213 304 q 334 109 276 145 q 507 68 400 68 q 734 160 669 68 q 786 282 775 218 q 802 482 802 375 l 802 1071 l 935 1071 l 935 485 q 802 67 935 190 q 507 -28 699 -28 z "},"Ü":{"ha":1017,"x_min":83,"x_max":935,"o":"m 83 0 m 268 1239 q 268 1255 268 1239 q 290 1294 268 1271 q 344 1317 312 1317 q 397 1294 376 1317 q 417 1239 417 1272 q 397 1184 417 1206 q 344 1161 376 1161 q 290 1184 311 1161 q 268 1239 268 1206 m 600 1239 q 600 1255 600 1239 q 622 1294 600 1271 q 676 1317 644 1317 q 729 1294 709 1317 q 749 1239 749 1272 q 729 1184 749 1206 q 676 1161 709 1161 q 622 1184 644 1161 q 600 1239 600 1206 m 507 -28 q 336 -2 410 -28 q 216 67 263 23 q 137 177 167 111 q 83 485 83 296 l 83 1071 l 213 1071 l 213 482 q 245 222 213 304 q 334 109 276 145 q 507 68 400 68 q 734 160 669 68 q 786 282 775 218 q 802 482 802 375 l 802 1071 l 935 1071 l 935 485 q 802 67 935 190 q 507 -28 699 -28 z "},"Ý":{"ha":938,"x_min":56,"x_max":882,"o":"m 56 0 m 488 1161 l 450 1179 l 557 1593 l 715 1531 l 488 1161 m 472 459 l 752 1071 l 882 1071 l 533 329 l 533 0 l 404 0 l 404 329 l 56 1071 l 189 1071 q 472 459 328 759 z "},"Þ":{"ha":850,"x_min":83,"x_max":822,"o":"m 215 979 l 339 980 q 545 968 488 980 q 636 944 601 956 q 698 916 672 932 q 749 875 724 899 q 788 820 773 850 q 822 660 822 753 q 734 442 822 514 q 618 379 675 395 q 526 356 561 363 q 444 347 491 350 q 279 342 376 342 l 215 342 l 215 0 l 83 0 l 83 1071 l 215 1071 l 215 979 m 325 440 q 478 446 441 440 q 545 460 515 452 q 595 478 575 467 q 636 504 615 488 q 670 541 658 520 q 699 637 699 588 q 693 717 699 687 q 678 770 687 747 q 652 810 669 792 q 619 839 635 827 q 577 859 603 850 q 530 871 551 867 q 476 878 509 875 q 357 882 425 882 l 215 882 l 215 440 l 325 440 z "},"ß":{"ha":884,"x_min":75,"x_max":851,"o":"m 563 669 q 574 680 563 669 q 598 728 585 691 q 611 809 611 764 q 599 882 611 853 q 568 929 587 911 q 519 956 548 946 q 408 974 468 974 q 315 964 348 974 q 262 932 282 955 q 230 890 242 910 q 214 830 218 869 q 207 690 207 773 l 207 11 l 75 -4 l 75 709 q 241 1047 75 983 q 393 1071 304 1072 q 728 798 728 1071 q 656 613 728 675 q 561 572 618 579 q 774 489 697 572 q 851 268 851 406 q 819 119 851 183 q 735 16 786 54 q 613 -46 685 -22 q 326 -87 491 -87 l 326 18 q 575 47 495 18 q 686 129 651 75 q 728 293 728 193 q 612 477 727 425 q 380 524 519 519 q 304 525 347 525 l 304 614 q 376 612 344 612 q 442 617 408 612 q 509 634 476 621 q 563 669 542 648 z "},"à":{"ha":809,"x_min":75,"x_max":729,"o":"m 75 0 m 425 894 l 379 876 l 157 1253 l 321 1313 l 425 894 m 372 79 q 600 184 488 79 l 600 386 q 448 400 511 400 q 354 397 384 400 q 295 383 325 393 q 247 356 266 373 q 204 236 204 318 q 245 117 204 155 q 372 79 286 79 m 600 451 l 600 484 q 552 672 600 631 q 432 710 507 710 q 170 634 289 710 l 124 717 q 269 784 202 761 q 419 807 336 807 q 565 788 503 807 q 663 726 627 770 q 714 621 700 683 q 729 465 729 559 l 729 0 l 634 0 l 615 121 q 340 -14 517 -14 q 145 48 216 -14 q 75 233 75 111 q 165 425 75 361 q 376 485 250 485 q 492 475 422 485 q 600 451 561 465 z "},"á":{"ha":809,"x_min":75,"x_max":729,"o":"m 75 0 m 421 876 l 382 894 l 490 1308 l 648 1246 l 421 876 m 372 79 q 600 184 488 79 l 600 386 q 448 400 511 400 q 354 397 384 400 q 295 383 325 393 q 247 356 266 373 q 204 236 204 318 q 245 117 204 155 q 372 79 286 79 m 600 451 l 600 484 q 552 672 600 631 q 432 710 507 710 q 170 634 289 710 l 124 717 q 269 784 202 761 q 419 807 336 807 q 565 788 503 807 q 663 726 627 770 q 714 621 700 683 q 729 465 729 559 l 729 0 l 634 0 l 615 121 q 340 -14 517 -14 q 145 48 216 -14 q 75 233 75 111 q 165 425 75 361 q 376 485 250 485 q 492 475 422 485 q 600 451 561 465 z "},"â":{"ha":809,"x_min":75,"x_max":729,"o":"m 75 0 m 401 1132 l 258 876 l 171 929 l 369 1269 l 434 1269 l 632 929 l 545 876 l 401 1132 m 372 79 q 600 184 488 79 l 600 386 q 448 400 511 400 q 354 397 384 400 q 295 383 325 393 q 247 356 266 373 q 204 236 204 318 q 245 117 204 155 q 372 79 286 79 m 600 451 l 600 484 q 552 672 600 631 q 432 710 507 710 q 170 634 289 710 l 124 717 q 269 784 202 761 q 419 807 336 807 q 565 788 503 807 q 663 726 627 770 q 714 621 700 683 q 729 465 729 559 l 729 0 l 634 0 l 615 121 q 340 -14 517 -14 q 145 48 216 -14 q 75 233 75 111 q 165 425 75 361 q 376 485 250 485 q 492 475 422 485 q 600 451 561 465 z "},"ã":{"ha":809,"x_min":75,"x_max":729,"o":"m 75 0 m 660 1046 q 627 924 660 972 q 530 876 594 876 q 403 916 467 876 q 290 957 322 954 q 258 937 266 957 q 250 879 250 918 l 144 879 q 281 1055 144 1055 q 402 1013 345 1055 q 514 970 460 970 q 554 1046 554 970 l 660 1046 m 372 79 q 600 184 488 79 l 600 386 q 448 400 511 400 q 354 397 384 400 q 295 383 325 393 q 247 356 266 373 q 204 236 204 318 q 245 117 204 155 q 372 79 286 79 m 600 451 l 600 484 q 552 672 600 631 q 432 710 507 710 q 170 634 289 710 l 124 717 q 269 784 202 761 q 419 807 336 807 q 565 788 503 807 q 663 726 627 770 q 714 621 700 683 q 729 465 729 559 l 729 0 l 634 0 l 615 121 q 340 -14 517 -14 q 145 48 216 -14 q 75 233 75 111 q 165 425 75 361 q 376 485 250 485 q 492 475 422 485 q 600 451 561 465 z "},"ä":{"ha":809,"x_min":75,"x_max":729,"o":"m 75 0 m 161 954 q 161 970 161 954 q 183 1009 161 986 q 237 1032 205 1032 q 290 1009 269 1032 q 310 954 310 987 q 290 899 310 922 q 237 876 269 876 q 182 899 204 876 q 161 954 161 922 m 493 954 q 493 970 493 954 q 515 1009 493 986 q 569 1032 537 1032 q 622 1009 602 1032 q 642 954 642 987 q 622 899 642 922 q 569 876 602 876 q 515 899 536 876 q 493 954 493 922 m 372 79 q 600 184 488 79 l 600 386 q 448 400 511 400 q 354 397 384 400 q 295 383 325 393 q 247 356 266 373 q 204 236 204 318 q 245 117 204 155 q 372 79 286 79 m 600 451 l 600 484 q 552 672 600 631 q 432 710 507 710 q 170 634 289 710 l 124 717 q 269 784 202 761 q 419 807 336 807 q 565 788 503 807 q 663 726 627 770 q 714 621 700 683 q 729 465 729 559 l 729 0 l 634 0 l 615 121 q 340 -14 517 -14 q 145 48 216 -14 q 75 233 75 111 q 165 425 75 361 q 376 485 250 485 q 492 475 422 485 q 600 451 561 465 z "},"å":{"ha":809,"x_min":75,"x_max":729,"o":"m 75 0 m 401 876 q 283 921 328 876 q 237 1039 237 966 q 283 1157 237 1112 q 401 1202 328 1202 q 520 1157 475 1202 q 566 1039 566 1112 q 520 921 566 966 q 401 876 475 876 m 303 1039 q 303 1017 303 1039 q 331 967 303 996 q 401 938 358 938 q 472 967 444 938 q 500 1039 500 996 q 472 1111 500 1082 q 401 1140 444 1140 q 331 1111 358 1140 q 303 1039 303 1082 m 372 79 q 600 184 488 79 l 600 386 q 448 400 511 400 q 354 397 384 400 q 295 383 325 393 q 247 356 266 373 q 204 236 204 318 q 245 117 204 155 q 372 79 286 79 m 600 451 l 600 484 q 552 672 600 631 q 432 710 507 710 q 170 634 289 710 l 124 717 q 269 784 202 761 q 419 807 336 807 q 565 788 503 807 q 663 726 627 770 q 714 621 700 683 q 729 465 729 559 l 729 0 l 634 0 l 615 121 q 340 -14 517 -14 q 145 48 216 -14 q 75 233 75 111 q 165 425 75 361 q 376 485 250 485 q 492 475 422 485 q 600 451 561 465 z "},"æ":{"ha":1222,"x_min":26,"x_max":1183,"o":"m 888 -16 q 595 140 684 -16 q 460 27 541 69 q 292 -16 379 -16 q 96 47 167 -16 q 26 233 26 109 q 117 425 26 361 q 327 485 201 485 q 435 476 375 485 q 533 451 495 467 l 533 484 q 522 623 533 597 q 498 666 511 649 q 468 690 486 682 q 366 710 427 709 q 233 688 304 710 q 116 634 161 667 l 71 717 q 203 781 115 755 q 347 807 291 807 q 441 801 404 807 q 514 780 478 795 q 614 658 587 749 q 723 769 650 731 q 877 807 795 807 q 1017 780 958 807 q 1111 704 1076 752 q 1183 458 1183 607 q 1177 385 1183 424 l 662 385 q 732 143 662 213 q 900 86 789 86 q 1104 165 1012 86 l 1146 67 q 1023 8 1099 33 q 888 -16 948 -16 m 155 237 q 155 196 155 237 q 196 118 155 155 q 329 81 236 81 q 533 184 422 81 l 533 386 q 391 400 448 400 q 306 397 335 400 q 247 383 276 393 q 198 356 217 373 q 155 237 155 318 m 1069 486 q 970 699 1069 651 q 883 717 933 716 q 717 647 772 717 q 662 463 662 578 l 1069 463 l 1069 486 z "},"ç":{"ha":756,"x_min":75,"x_max":685,"o":"m 75 0 m 305 -416 l 305 -337 q 427 -365 385 -365 q 490 -346 469 -365 q 511 -289 511 -327 q 504 -233 511 -250 q 481 -205 496 -216 q 452 -189 467 -195 q 414 -180 437 -183 q 339 -176 380 -176 l 339 1 l 421 1 l 421 -117 q 555 -156 509 -117 q 601 -282 601 -195 q 430 -442 601 -442 q 305 -416 381 -442 m 232 570 q 224 550 232 570 q 210 486 216 529 q 204 368 204 444 q 231 218 204 292 q 423 79 283 79 q 646 166 559 79 l 685 75 q 420 -14 558 -14 q 266 19 334 -14 q 158 109 199 52 q 75 393 75 224 q 159 682 76 564 q 267 774 199 741 q 422 807 335 807 q 685 717 558 807 l 646 627 q 442 705 555 705 q 273 641 329 705 q 232 570 248 612 z "},"è":{"ha":802,"x_min":77,"x_max":726,"o":"m 77 0 m 612 486 q 572 647 612 583 q 427 717 527 716 q 206 463 228 717 l 612 463 l 612 486 m 203 382 q 346 96 206 151 q 440 79 387 79 q 648 165 555 79 l 690 67 q 567 9 640 32 q 418 -14 494 -14 q 273 18 342 -14 q 161 105 203 50 q 77 392 76 217 q 161 680 77 562 q 271 773 203 739 q 420 807 339 807 q 560 780 501 807 q 654 704 618 752 q 726 458 726 608 q 719 382 726 428 l 203 382 m 449 907 l 404 890 l 181 1266 l 345 1326 l 449 907 z "},"é":{"ha":802,"x_min":77,"x_max":726,"o":"m 77 0 m 612 486 q 572 647 612 583 q 427 717 527 716 q 206 463 228 717 l 612 463 l 612 486 m 203 382 q 346 96 206 151 q 440 79 387 79 q 648 165 555 79 l 690 67 q 567 9 640 32 q 418 -14 494 -14 q 273 18 342 -14 q 161 105 203 50 q 77 392 76 217 q 161 680 77 562 q 271 773 203 739 q 420 807 339 807 q 560 780 501 807 q 654 704 618 752 q 726 458 726 608 q 719 382 726 428 l 203 382 m 445 890 l 406 907 l 514 1322 l 671 1260 l 445 890 z "},"ê":{"ha":802,"x_min":77,"x_max":726,"o":"m 77 0 m 612 486 q 572 647 612 583 q 427 717 527 716 q 206 463 228 717 l 612 463 l 612 486 m 203 382 q 346 96 206 151 q 440 79 387 79 q 648 165 555 79 l 690 67 q 567 9 640 32 q 418 -14 494 -14 q 273 18 342 -14 q 161 105 203 50 q 77 392 76 217 q 161 680 77 562 q 271 773 203 739 q 420 807 339 807 q 560 780 501 807 q 654 704 618 752 q 726 458 726 608 q 719 382 726 428 l 203 382 m 426 1145 l 282 890 l 195 943 l 393 1282 l 458 1282 l 656 943 l 570 890 l 426 1145 z "},"ë":{"ha":802,"x_min":77,"x_max":726,"o":"m 77 0 m 612 486 q 572 647 612 583 q 427 717 527 716 q 206 463 228 717 l 612 463 l 612 486 m 203 382 q 346 96 206 151 q 440 79 387 79 q 648 165 555 79 l 690 67 q 567 9 640 32 q 418 -14 494 -14 q 273 18 342 -14 q 161 105 203 50 q 77 392 76 217 q 161 680 77 562 q 271 773 203 739 q 420 807 339 807 q 560 780 501 807 q 654 704 618 752 q 726 458 726 608 q 719 382 726 428 l 203 382 m 185 967 q 185 984 185 967 q 207 1023 185 1000 q 261 1046 229 1046 q 314 1023 294 1046 q 334 968 334 1000 q 314 912 334 935 q 261 890 294 890 q 207 912 229 890 q 185 967 185 935 m 517 967 q 517 984 517 967 q 539 1023 517 1000 q 594 1046 562 1046 q 646 1023 626 1046 q 667 968 667 1000 q 646 912 667 935 q 593 890 626 890 q 539 912 561 890 q 517 967 517 935 z "},"ì":{"ha":430,"x_min":-32,"x_max":275,"o":"m 0 0 m 236 894 l 191 876 l -32 1253 l 132 1313 l 236 894 m 275 0 l 152 0 l 152 793 l 275 793 l 275 0 z "},"í":{"ha":430,"x_min":152,"x_max":460,"o":"m 152 0 m 233 876 l 195 894 l 302 1308 l 460 1246 l 233 876 m 275 0 l 152 0 l 152 793 l 275 793 l 275 0 z "},"î":{"ha":430,"x_min":-17,"x_max":444,"o":"m 0 0 m 214 1132 l 70 876 l -17 929 l 181 1269 l 246 1269 l 444 929 l 357 876 l 214 1132 m 275 0 l 152 0 l 152 793 l 275 793 l 275 0 z "},"ï":{"ha":430,"x_min":-27,"x_max":454,"o":"m 0 0 m -27 954 q -27 970 -27 954 q -5 1009 -27 986 q 49 1032 17 1032 q 102 1009 81 1032 q 122 954 122 987 q 102 899 122 922 q 49 876 81 876 q -5 899 16 876 q -27 954 -27 922 m 305 954 q 305 970 305 954 q 327 1009 305 986 q 381 1032 349 1032 q 434 1009 414 1032 q 454 954 454 987 q 434 899 454 922 q 381 876 414 876 q 327 899 349 876 q 305 954 305 922 m 275 0 l 152 0 l 152 793 l 275 793 l 275 0 z "},"ð":{"ha":767,"x_min":23,"x_max":722,"o":"m 299 1182 q 500 1023 386 1133 l 694 1080 l 722 1019 l 546 967 q 672 731 631 851 q 713 468 713 610 q 351 -14 713 -14 q 71 161 153 -14 q 23 396 23 262 q 69 624 23 521 q 218 783 120 738 q 337 807 271 807 q 473 777 403 807 q 584 697 544 747 q 442 936 544 818 l 283 889 l 254 950 l 392 991 q 242 1113 317 1065 l 299 1182 m 588 446 q 588 484 588 446 q 564 580 588 522 q 489 674 541 637 q 375 710 437 710 q 272 692 312 710 q 208 647 232 675 q 170 576 184 618 q 146 398 146 506 q 349 83 146 83 q 578 304 544 83 q 588 446 588 370 z "},"ñ":{"ha":832,"x_min":83,"x_max":751,"o":"m 83 0 m 212 597 l 212 0 l 83 0 l 83 793 l 178 793 l 195 666 q 331 765 241 725 q 494 806 421 806 q 617 781 567 806 q 695 712 667 756 q 751 493 751 626 l 751 0 l 622 0 l 622 493 q 579 665 621 612 q 479 710 543 709 q 336 674 416 710 q 212 597 256 637 m 398 951 q 342 971 359 971 q 315 963 325 970 q 303 941 306 956 q 298 892 298 918 l 193 892 q 329 1069 193 1069 q 456 1026 391 1069 q 562 984 522 984 q 602 1059 602 984 l 708 1059 q 675 940 708 991 q 580 890 642 890 q 398 951 518 890 z "},"ò":{"ha":871,"x_min":76,"x_max":795,"o":"m 76 0 m 458 894 l 413 876 l 191 1253 l 355 1313 l 458 894 m 206 488 q 203 466 206 488 q 199 395 199 444 q 206 302 199 345 q 230 217 213 258 q 273 145 247 175 q 435 79 330 79 q 642 216 587 79 q 671 395 671 292 q 530 694 671 632 q 435 713 489 713 q 340 694 382 713 q 273 646 299 676 q 230 574 247 616 q 206 488 213 532 m 98 235 q 87 272 98 235 q 76 395 76 309 q 98 554 76 481 q 164 685 121 628 q 277 774 208 742 q 435 807 347 807 q 594 774 524 807 q 707 685 664 742 q 773 555 751 629 q 795 395 795 481 q 773 235 795 309 q 707 106 751 162 q 594 18 664 50 q 435 -14 524 -14 q 277 18 347 -14 q 164 106 208 50 q 98 235 121 162 z "},"ó":{"ha":871,"x_min":76,"x_max":795,"o":"m 76 0 m 455 876 l 416 894 l 524 1308 l 682 1246 l 455 876 m 206 488 q 203 466 206 488 q 199 395 199 444 q 206 302 199 345 q 230 217 213 258 q 273 145 247 175 q 435 79 330 79 q 642 216 587 79 q 671 395 671 292 q 530 694 671 632 q 435 713 489 713 q 340 694 382 713 q 273 646 299 676 q 230 574 247 616 q 206 488 213 532 m 98 235 q 87 272 98 235 q 76 395 76 309 q 98 554 76 481 q 164 685 121 628 q 277 774 208 742 q 435 807 347 807 q 594 774 524 807 q 707 685 664 742 q 773 555 751 629 q 795 395 795 481 q 773 235 795 309 q 707 106 751 162 q 594 18 664 50 q 435 -14 524 -14 q 277 18 347 -14 q 164 106 208 50 q 98 235 121 162 z "},"ô":{"ha":871,"x_min":76,"x_max":795,"o":"m 76 0 m 435 1132 l 292 876 l 205 929 l 403 1269 l 468 1269 l 666 929 l 579 876 l 435 1132 m 206 488 q 203 466 206 488 q 199 395 199 444 q 206 302 199 345 q 230 217 213 258 q 273 145 247 175 q 435 79 330 79 q 642 216 587 79 q 671 395 671 292 q 530 694 671 632 q 435 713 489 713 q 340 694 382 713 q 273 646 299 676 q 230 574 247 616 q 206 488 213 532 m 98 235 q 87 272 98 235 q 76 395 76 309 q 98 554 76 481 q 164 685 121 628 q 277 774 208 742 q 435 807 347 807 q 594 774 524 807 q 707 685 664 742 q 773 555 751 629 q 795 395 795 481 q 773 235 795 309 q 707 106 751 162 q 594 18 664 50 q 435 -14 524 -14 q 277 18 347 -14 q 164 106 208 50 q 98 235 121 162 z "},"õ":{"ha":871,"x_min":76,"x_max":795,"o":"m 76 0 m 694 1046 q 661 924 694 972 q 564 876 628 876 q 437 916 500 876 q 324 957 356 954 q 292 937 300 957 q 284 879 284 918 l 178 879 q 315 1055 178 1055 q 436 1013 378 1055 q 548 970 494 970 q 588 1046 588 970 l 694 1046 m 206 488 q 203 466 206 488 q 199 395 199 444 q 206 302 199 345 q 230 217 213 258 q 273 145 247 175 q 435 79 330 79 q 642 216 587 79 q 671 395 671 292 q 530 694 671 632 q 435 713 489 713 q 340 694 382 713 q 273 646 299 676 q 230 574 247 616 q 206 488 213 532 m 98 235 q 87 272 98 235 q 76 395 76 309 q 98 554 76 481 q 164 685 121 628 q 277 774 208 742 q 435 807 347 807 q 594 774 524 807 q 707 685 664 742 q 773 555 751 629 q 795 395 795 481 q 773 235 795 309 q 707 106 751 162 q 594 18 664 50 q 435 -14 524 -14 q 277 18 347 -14 q 164 106 208 50 q 98 235 121 162 z "},"ö":{"ha":871,"x_min":76,"x_max":795,"o":"m 76 0 m 195 954 q 195 970 195 954 q 217 1009 195 986 q 271 1032 239 1032 q 323 1009 303 1032 q 344 954 344 987 q 323 899 344 922 q 271 876 303 876 q 216 899 238 876 q 195 954 195 922 m 527 954 q 527 970 527 954 q 549 1009 527 986 q 603 1032 571 1032 q 656 1009 635 1032 q 676 954 676 987 q 656 899 676 922 q 603 876 635 876 q 549 899 570 876 q 527 954 527 922 m 206 488 q 203 466 206 488 q 199 395 199 444 q 206 302 199 345 q 230 217 213 258 q 273 145 247 175 q 435 79 330 79 q 642 216 587 79 q 671 395 671 292 q 530 694 671 632 q 435 713 489 713 q 340 694 382 713 q 273 646 299 676 q 230 574 247 616 q 206 488 213 532 m 98 235 q 87 272 98 235 q 76 395 76 309 q 98 554 76 481 q 164 685 121 628 q 277 774 208 742 q 435 807 347 807 q 594 774 524 807 q 707 685 664 742 q 773 555 751 629 q 795 395 795 481 q 773 235 795 309 q 707 106 751 162 q 594 18 664 50 q 435 -14 524 -14 q 277 18 347 -14 q 164 106 208 50 q 98 235 121 162 z "},"÷":{"ha":491,"x_min":6,"x_max":469,"o":"m 469 345 l 6 345 l 6 433 l 469 433 l 469 345 m 160 552 q 160 568 160 552 q 182 608 160 585 q 236 631 204 631 q 289 608 269 631 q 309 553 309 585 q 289 497 309 520 q 236 475 269 475 q 182 497 203 475 q 160 552 160 520 m 159 223 q 159 240 159 223 q 181 279 159 256 q 235 302 203 302 q 288 279 267 302 q 308 224 308 256 q 288 169 308 191 q 235 146 267 146 q 180 169 202 146 q 159 223 159 191 z "},"ø":{"ha":787,"x_min":24,"x_max":743,"o":"m 177 -114 l 222 19 q 72 169 119 68 q 24 375 24 269 q 46 554 24 481 q 112 685 68 628 q 224 774 155 742 q 368 807 294 807 q 490 793 441 807 l 536 926 l 591 905 l 545 773 q 695 620 648 721 q 743 395 743 519 q 616 65 743 178 q 383 -14 527 -14 q 281 -1 328 -14 l 237 -134 l 177 -114 m 147 395 q 256 115 147 189 l 458 702 q 378 713 426 713 q 288 694 330 713 q 221 646 247 676 q 178 574 195 616 q 147 395 147 498 m 312 88 q 389 79 342 79 q 478 97 437 79 q 547 145 520 115 q 589 216 572 174 q 619 395 618 292 q 512 675 619 600 l 312 88 z "},"ù":{"ha":821,"x_min":82,"x_max":737,"o":"m 82 0 m 433 894 l 387 876 l 165 1253 l 329 1313 l 433 894 m 368 79 q 608 186 500 79 l 608 793 l 737 793 l 737 0 l 642 0 l 623 119 q 361 -14 505 -14 q 150 69 217 -14 q 82 300 82 151 l 82 793 l 211 793 l 211 300 q 289 98 212 141 q 368 79 321 80 z "},"ú":{"ha":821,"x_min":82,"x_max":737,"o":"m 82 0 m 429 876 l 390 894 l 498 1308 l 655 1246 l 429 876 m 368 79 q 608 186 500 79 l 608 793 l 737 793 l 737 0 l 642 0 l 623 119 q 361 -14 505 -14 q 150 69 217 -14 q 82 300 82 151 l 82 793 l 211 793 l 211 300 q 289 98 212 141 q 368 79 321 80 z "},"û":{"ha":821,"x_min":82,"x_max":737,"o":"m 82 0 m 410 1132 l 266 876 l 179 929 l 377 1269 l 442 1269 l 640 929 l 553 876 l 410 1132 m 368 79 q 608 186 500 79 l 608 793 l 737 793 l 737 0 l 642 0 l 623 119 q 361 -14 505 -14 q 150 69 217 -14 q 82 300 82 151 l 82 793 l 211 793 l 211 300 q 289 98 212 141 q 368 79 321 80 z "},"ü":{"ha":821,"x_min":82,"x_max":737,"o":"m 82 0 m 169 954 q 169 970 169 954 q 191 1009 169 986 q 245 1032 213 1032 q 298 1009 277 1032 q 318 954 318 987 q 298 899 318 922 q 245 876 277 876 q 191 899 212 876 q 169 954 169 922 m 501 954 q 501 970 501 954 q 523 1009 501 986 q 577 1032 545 1032 q 630 1009 610 1032 q 650 954 650 987 q 630 899 650 922 q 577 876 610 876 q 523 899 545 876 q 501 954 501 922 m 368 79 q 608 186 500 79 l 608 793 l 737 793 l 737 0 l 642 0 l 623 119 q 361 -14 505 -14 q 150 69 217 -14 q 82 300 82 151 l 82 793 l 211 793 l 211 300 q 289 98 212 141 q 368 79 321 80 z "},"ý":{"ha":820,"x_min":59,"x_max":760,"o":"m 59 0 m 429 876 l 390 894 l 498 1308 l 655 1246 l 429 876 m 423 169 l 627 793 l 760 793 l 463 -25 q 445 -75 452 -56 q 426 -122 438 -94 q 404 -167 414 -150 q 380 -206 395 -184 q 351 -242 366 -229 q 317 -270 336 -256 q 275 -293 297 -285 q 169 -311 227 -311 l 134 -227 q 271 -171 221 -210 q 365 16 323 -130 l 59 793 l 182 793 l 423 169 z "},"þ":{"ha":923,"x_min":87,"x_max":775,"o":"m 701 685 q 719 657 701 685 q 756 555 738 628 q 775 396 775 482 q 756 238 775 311 q 700 109 737 165 q 600 19 662 52 q 457 -14 538 -14 q 214 79 288 -14 l 214 -315 l 87 -330 l 87 1061 l 212 1061 l 212 681 q 319 771 256 734 q 460 807 382 807 q 601 775 538 807 q 701 685 663 743 m 609 175 q 620 195 609 175 q 641 265 631 216 q 652 363 652 314 q 649 451 652 413 q 638 530 646 490 q 616 602 630 570 q 581 658 601 633 q 457 710 538 710 q 229 604 336 710 l 218 165 q 327 107 258 132 q 454 83 395 83 q 550 108 513 83 q 609 175 588 133 z "},"ÿ":{"ha":820,"x_min":59,"x_max":760,"o":"m 59 0 m 169 954 q 169 970 169 954 q 191 1009 169 986 q 245 1032 213 1032 q 298 1009 277 1032 q 318 954 318 987 q 298 899 318 922 q 245 876 277 876 q 191 899 212 876 q 169 954 169 922 m 501 954 q 501 970 501 954 q 523 1009 501 986 q 577 1032 545 1032 q 630 1009 610 1032 q 650 954 650 987 q 630 899 650 922 q 577 876 610 876 q 523 899 545 876 q 501 954 501 922 m 423 169 l 627 793 l 760 793 l 463 -25 q 445 -75 452 -56 q 426 -122 438 -94 q 404 -167 414 -150 q 380 -206 395 -184 q 351 -242 366 -229 q 317 -270 336 -256 q 275 -293 297 -285 q 169 -311 227 -311 l 134 -227 q 271 -171 221 -210 q 365 16 323 -130 l 59 793 l 182 793 l 423 169 z "},"Ā":{"ha":1018,"x_min":57,"x_max":960,"o":"m 57 0 m 740 1161 l 277 1161 l 277 1240 l 740 1240 l 740 1161 m 724 329 l 509 990 l 294 329 l 724 329 m 746 260 l 271 260 l 188 0 l 57 0 l 407 1071 l 610 1071 l 960 0 l 829 0 l 746 260 z "},"ā":{"ha":809,"x_min":75,"x_max":729,"o":"m 75 0 m 633 876 l 171 876 l 171 956 l 633 956 l 633 876 m 372 79 q 600 184 488 79 l 600 386 q 448 400 511 400 q 354 397 384 400 q 295 383 325 393 q 247 356 266 373 q 204 236 204 318 q 245 117 204 155 q 372 79 286 79 m 600 451 l 600 484 q 552 672 600 631 q 432 710 507 710 q 170 634 289 710 l 124 717 q 269 784 202 761 q 419 807 336 807 q 565 788 503 807 q 663 726 627 770 q 714 621 700 683 q 729 465 729 559 l 729 0 l 634 0 l 615 121 q 340 -14 517 -14 q 145 48 216 -14 q 75 233 75 111 q 165 425 75 361 q 376 485 250 485 q 492 475 422 485 q 600 451 561 465 z "},"Ă":{"ha":1018,"x_min":57,"x_max":960,"o":"m 57 0 m 510 1236 q 580 1259 554 1236 q 606 1323 606 1282 l 685 1323 q 510 1161 685 1161 q 378 1202 425 1161 q 332 1323 332 1242 l 412 1323 q 439 1259 412 1282 q 510 1236 466 1236 m 724 329 l 509 990 l 294 329 l 724 329 m 746 260 l 271 260 l 188 0 l 57 0 l 407 1071 l 610 1071 l 960 0 l 829 0 l 746 260 z "},"ă":{"ha":809,"x_min":75,"x_max":729,"o":"m 75 0 m 404 951 q 473 974 448 951 q 499 1038 499 997 l 578 1038 q 404 876 578 876 q 272 917 318 876 q 226 1038 226 958 l 305 1038 q 332 974 305 997 q 404 951 359 951 m 372 79 q 600 184 488 79 l 600 386 q 448 400 511 400 q 354 397 384 400 q 295 383 325 393 q 247 356 266 373 q 204 236 204 318 q 245 117 204 155 q 372 79 286 79 m 600 451 l 600 484 q 552 672 600 631 q 432 710 507 710 q 170 634 289 710 l 124 717 q 269 784 202 761 q 419 807 336 807 q 565 788 503 807 q 663 726 627 770 q 714 621 700 683 q 729 465 729 559 l 729 0 l 634 0 l 615 121 q 340 -14 517 -14 q 145 48 216 -14 q 75 233 75 111 q 165 425 75 361 q 376 485 250 485 q 492 475 422 485 q 600 451 561 465 z "},"Ą":{"ha":1389,"x_min":0,"x_max":0,"o":""},"ą":{"ha":1389,"x_min":0,"x_max":0,"o":""},"Ć":{"ha":901,"x_min":77,"x_max":830,"o":"m 77 0 m 473 1161 l 435 1179 l 543 1593 l 700 1531 l 473 1161 m 781 939 q 554 989 648 989 q 400 962 459 989 q 306 894 340 936 q 249 790 271 852 q 221 667 228 728 q 214 532 214 606 q 221 396 214 457 q 250 273 229 334 q 307 169 272 211 q 401 101 342 127 q 538 75 460 75 q 746 129 614 75 q 792 148 785 145 l 830 54 q 651 -12 710 5 q 509 -28 592 -28 q 347 2 425 -28 q 220 84 269 33 q 137 208 170 134 q 77 534 77 341 q 359 1063 77 963 q 538 1092 438 1092 q 660 1080 614 1092 q 719 1065 705 1069 q 764 1052 732 1061 q 811 1038 797 1042 l 781 939 z "},"ć":{"ha":756,"x_min":75,"x_max":685,"o":"m 75 0 m 399 876 l 361 894 l 469 1308 l 626 1246 l 399 876 m 232 570 q 224 550 232 570 q 210 486 216 529 q 204 368 204 444 q 231 218 204 292 q 423 79 283 79 q 646 166 559 79 l 685 75 q 420 -14 558 -14 q 266 19 334 -14 q 158 109 199 52 q 75 393 75 224 q 159 682 76 564 q 267 774 199 741 q 422 807 335 807 q 685 717 558 807 l 646 627 q 442 705 555 705 q 273 641 329 705 q 232 570 248 612 z "},"Ĉ":{"ha":901,"x_min":77,"x_max":830,"o":"m 77 0 m 454 1417 l 310 1161 l 223 1214 l 421 1554 l 486 1554 l 684 1214 l 597 1161 l 454 1417 m 781 939 q 554 989 648 989 q 400 962 459 989 q 306 894 340 936 q 249 790 271 852 q 221 667 228 728 q 214 532 214 606 q 221 396 214 457 q 250 273 229 334 q 307 169 272 211 q 401 101 342 127 q 538 75 460 75 q 746 129 614 75 q 792 148 785 145 l 830 54 q 651 -12 710 5 q 509 -28 592 -28 q 347 2 425 -28 q 220 84 269 33 q 137 208 170 134 q 77 534 77 341 q 359 1063 77 963 q 538 1092 438 1092 q 660 1080 614 1092 q 719 1065 705 1069 q 764 1052 732 1061 q 811 1038 797 1042 l 781 939 z "},"ĉ":{"ha":756,"x_min":75,"x_max":685,"o":"m 75 0 m 380 1132 l 236 876 l 149 929 l 347 1269 l 412 1269 l 610 929 l 524 876 l 380 1132 m 232 570 q 224 550 232 570 q 210 486 216 529 q 204 368 204 444 q 231 218 204 292 q 423 79 283 79 q 646 166 559 79 l 685 75 q 420 -14 558 -14 q 266 19 334 -14 q 158 109 199 52 q 75 393 75 224 q 159 682 76 564 q 267 774 199 741 q 422 807 335 807 q 685 717 558 807 l 646 627 q 442 705 555 705 q 273 641 329 705 q 232 570 248 612 z "},"Č":{"ha":901,"x_min":77,"x_max":830,"o":"m 77 0 m 454 1298 l 597 1554 l 684 1501 l 486 1161 l 421 1161 l 223 1501 l 310 1554 l 454 1298 m 781 939 q 554 989 648 989 q 400 962 459 989 q 306 894 340 936 q 249 790 271 852 q 221 667 228 728 q 214 532 214 606 q 221 396 214 457 q 250 273 229 334 q 307 169 272 211 q 401 101 342 127 q 538 75 460 75 q 746 129 614 75 q 792 148 785 145 l 830 54 q 651 -12 710 5 q 509 -28 592 -28 q 347 2 425 -28 q 220 84 269 33 q 137 208 170 134 q 77 534 77 341 q 359 1063 77 963 q 538 1092 438 1092 q 660 1080 614 1092 q 719 1065 705 1069 q 764 1052 732 1061 q 811 1038 797 1042 l 781 939 z "},"č":{"ha":756,"x_min":75,"x_max":685,"o":"m 75 0 m 380 1013 l 524 1269 l 610 1216 l 412 876 l 347 876 l 149 1216 l 236 1269 l 380 1013 m 232 570 q 224 550 232 570 q 210 486 216 529 q 204 368 204 444 q 231 218 204 292 q 423 79 283 79 q 646 166 559 79 l 685 75 q 420 -14 558 -14 q 266 19 334 -14 q 158 109 199 52 q 75 393 75 224 q 159 682 76 564 q 267 774 199 741 q 422 807 335 807 q 685 717 558 807 l 646 627 q 442 705 555 705 q 273 641 329 705 q 232 570 248 612 z "},"Ē":{"ha":827,"x_min":83,"x_max":750,"o":"m 83 0 m 648 1161 l 186 1161 l 186 1240 l 648 1240 l 648 1161 m 750 0 l 83 0 l 83 1071 l 741 1071 l 741 974 l 215 974 l 215 604 l 675 604 l 675 526 l 215 526 l 215 97 l 750 97 l 750 0 z "},"ē":{"ha":802,"x_min":77,"x_max":726,"o":"m 77 0 m 633 876 l 170 876 l 170 956 l 633 956 l 633 876 m 612 486 q 572 647 612 583 q 427 717 527 716 q 206 463 228 717 l 612 463 l 612 486 m 203 382 q 346 96 206 151 q 440 79 387 79 q 648 165 555 79 l 690 67 q 567 9 640 32 q 418 -14 494 -14 q 273 18 342 -14 q 161 105 203 50 q 77 392 76 217 q 161 680 77 562 q 271 773 203 739 q 420 807 339 807 q 560 780 501 807 q 654 704 618 752 q 726 458 726 608 q 719 382 726 428 l 203 382 z "},"Ę":{"ha":1389,"x_min":0,"x_max":0,"o":""},"ę":{"ha":1389,"x_min":0,"x_max":0,"o":""},"Ģ":{"ha":999,"x_min":77,"x_max":918,"o":"m 77 0 m 402 -296 l 402 -97 l 593 -97 l 593 -266 q 553 -394 593 -343 q 437 -467 513 -446 l 403 -404 q 471 -364 450 -387 q 491 -296 492 -341 l 402 -296 m 696 6 q 672 -3 696 6 q 602 -20 649 -12 q 492 -28 555 -28 q 365 -5 429 -28 q 255 58 301 18 q 174 151 209 98 q 119 268 140 204 q 77 511 77 393 q 92 710 77 629 q 141 863 107 792 q 227 985 175 935 q 534 1092 337 1092 q 834 1001 690 1092 l 789 909 q 672 968 745 947 q 537 989 599 989 q 429 975 476 989 q 350 937 382 961 q 293 878 317 913 q 253 805 268 843 q 229 719 238 767 q 214 556 214 633 q 217 434 214 478 q 230 342 220 389 q 254 256 239 294 q 294 184 269 218 q 353 126 319 149 q 537 75 425 76 q 711 118 640 76 q 792 271 792 165 l 792 464 l 519 464 l 519 550 l 918 550 l 918 0 l 858 0 l 822 144 q 776 60 810 96 q 696 6 743 24 z "},"ģ":{"ha":1389,"x_min":0,"x_max":0,"o":""},"Ĩ":{"ha":558,"x_min":21,"x_max":536,"o":"m 21 0 m 536 1331 q 504 1209 536 1257 q 406 1161 471 1161 q 279 1201 343 1160 q 167 1242 199 1238 q 135 1222 142 1242 q 127 1164 127 1202 l 21 1164 q 157 1340 21 1340 q 279 1298 221 1340 q 391 1255 336 1255 q 431 1331 431 1255 l 536 1331 m 77 76 l 216 76 l 216 991 l 77 991 l 77 1071 l 479 1071 l 479 991 l 340 991 l 340 76 l 479 76 l 479 0 l 77 0 l 77 76 z "},"ĩ":{"ha":430,"x_min":-44,"x_max":471,"o":"m 0 0 m 471 1046 q 438 924 471 972 q 341 876 406 876 q 214 916 278 876 q 102 957 134 954 q 70 937 77 957 q 62 879 62 918 l -44 879 q 92 1055 -44 1055 q 214 1013 156 1055 q 326 970 271 970 q 366 1046 366 970 l 471 1046 m 275 0 l 152 0 l 152 793 l 275 793 l 275 0 z "},"Ī":{"ha":558,"x_min":47,"x_max":510,"o":"m 47 0 m 510 1161 l 47 1161 l 47 1240 l 510 1240 l 510 1161 m 77 76 l 216 76 l 216 991 l 77 991 l 77 1071 l 479 1071 l 479 991 l 340 991 l 340 76 l 479 76 l 479 0 l 77 0 l 77 76 z "},"ī":{"ha":430,"x_min":-18,"x_max":445,"o":"m 0 0 m 445 876 l -18 876 l -18 956 l 445 956 l 445 876 m 275 0 l 152 0 l 152 793 l 275 793 l 275 0 z "},"Į":{"ha":1389,"x_min":0,"x_max":0,"o":""},"į":{"ha":1389,"x_min":0,"x_max":0,"o":""},"ı":{"ha":430,"x_min":152,"x_max":275,"o":"m 275 0 l 152 0 l 152 793 l 275 793 l 275 0 z "},"Ĵ":{"ha":493,"x_min":60,"x_max":573,"o":"m 60 0 m 342 1417 l 199 1161 l 112 1214 l 310 1554 l 375 1554 l 573 1214 l 486 1161 l 342 1417 m 92 -61 l 60 25 q 228 90 187 45 q 261 144 254 121 q 271 183 268 167 q 277 225 275 199 q 279 325 279 260 l 279 1071 l 409 1071 l 409 349 q 372 88 410 171 q 277 -21 338 12 q 92 -61 205 -61 z "},"ĵ":{"ha":411,"x_min":-35,"x_max":426,"o":"m 0 0 m 195 1394 l 52 1139 l -35 1192 l 163 1531 l 228 1531 l 426 1192 l 339 1139 l 195 1394 m 63 -175 q 179 -18 159 -113 q 191 119 190 36 l 191 793 l 319 793 l 319 104 q 268 -115 319 -15 q 198 -202 242 -165 q 95 -253 153 -239 l 63 -175 m 178 991 q 178 1007 178 991 q 200 1046 178 1023 q 255 1069 222 1069 q 307 1047 287 1069 q 328 991 328 1024 q 307 936 328 959 q 254 913 287 913 q 200 936 222 913 q 178 991 178 959 z "},"ķ":{"ha":823,"x_min":85,"x_max":768,"o":"m 85 0 m 331 -268 l 331 -69 l 522 -69 l 522 -238 q 481 -367 522 -315 q 366 -439 441 -418 l 332 -376 q 399 -336 378 -359 q 420 -268 420 -313 l 331 -268 m 745 793 l 370 439 l 768 0 l 618 0 l 292 376 l 214 311 l 214 0 l 85 0 l 85 1071 l 214 1095 l 214 425 l 593 793 l 745 793 z "},"Ń":{"ha":1017,"x_min":83,"x_max":933,"o":"m 83 0 m 528 1161 l 489 1179 l 597 1593 l 754 1531 l 528 1161 m 823 98 l 823 1071 l 933 1071 l 933 0 l 755 0 l 193 972 l 193 0 l 83 0 l 83 1071 l 261 1071 l 823 98 z "},"ń":{"ha":832,"x_min":83,"x_max":751,"o":"m 83 0 m 437 876 l 398 894 l 506 1308 l 663 1246 l 437 876 m 212 597 l 212 0 l 83 0 l 83 793 l 178 793 l 195 666 q 331 765 241 725 q 494 806 421 806 q 617 781 567 806 q 695 712 667 756 q 751 493 751 626 l 751 0 l 622 0 l 622 493 q 579 665 621 612 q 479 710 543 709 q 336 674 416 710 q 212 597 256 637 z "},"Œ":{"ha":1539,"x_min":84,"x_max":1502,"o":"m 1502 0 l 836 0 l 836 115 q 528 -28 731 -28 q 147 193 252 -28 q 84 532 84 327 q 352 1065 84 964 q 518 1092 425 1092 q 836 947 730 1092 l 836 1071 l 1493 1071 l 1493 974 l 967 974 l 967 604 l 1427 604 l 1427 526 l 967 526 l 967 97 l 1502 97 l 1502 0 m 836 595 q 732 916 825 823 q 529 989 659 989 q 257 800 323 989 q 220 532 220 694 q 313 162 220 272 q 529 75 388 75 q 788 236 718 76 q 836 469 828 326 l 836 595 z "},"œ":{"ha":1384,"x_min":85,"x_max":1331,"o":"m 743 652 q 1030 807 834 807 q 1253 712 1176 807 q 1331 458 1331 616 q 1325 385 1331 429 l 810 385 q 932 107 810 161 q 1044 86 978 87 q 1252 165 1160 86 l 1294 67 q 1175 10 1251 35 q 1036 -16 1099 -16 q 742 138 834 -16 q 445 -14 648 -14 q 245 39 328 -14 q 85 395 85 142 q 246 753 85 648 q 445 807 328 807 q 743 652 649 807 m 445 79 q 555 103 509 79 q 629 171 602 127 q 681 395 681 256 q 537 696 681 638 q 439 713 496 713 q 334 688 381 713 q 260 619 288 664 q 209 395 209 532 q 334 103 209 168 q 445 79 381 79 m 1217 486 q 1031 717 1217 717 q 866 649 922 717 q 810 463 810 581 l 1217 463 l 1217 486 z "},"Ŕ":{"ha":904,"x_min":83,"x_max":825,"o":"m 83 0 m 473 1161 l 435 1179 l 543 1593 l 700 1531 l 473 1161 m 700 0 l 703 212 q 674 393 703 345 q 598 462 647 442 q 467 492 534 488 q 337 497 399 497 l 215 497 l 215 0 l 83 0 l 83 1071 l 338 1071 q 544 1063 501 1071 q 628 1046 587 1056 q 693 1022 669 1036 q 745 987 717 1008 q 788 937 773 965 q 825 787 825 871 q 743 607 825 673 q 545 541 661 541 q 804 387 754 517 q 823 269 823 336 l 823 0 l 700 0 m 415 975 l 338 974 l 215 974 l 215 585 l 378 585 q 668 662 597 585 q 709 780 709 707 q 638 932 709 888 q 549 966 594 959 q 415 975 484 975 z "},"Ŗ":{"ha":904,"x_min":83,"x_max":825,"o":"m 83 0 m 359 -268 l 359 -69 l 549 -69 l 549 -238 q 509 -367 549 -315 q 394 -439 469 -418 l 359 -376 q 427 -336 406 -359 q 448 -268 448 -313 l 359 -268 m 700 0 l 703 212 q 674 393 703 345 q 598 462 647 442 q 467 492 534 488 q 337 497 399 497 l 215 497 l 215 0 l 83 0 l 83 1071 l 338 1071 q 544 1063 501 1071 q 628 1046 587 1056 q 693 1022 669 1036 q 745 987 717 1008 q 788 937 773 965 q 825 787 825 871 q 743 607 825 673 q 545 541 661 541 q 804 387 754 517 q 823 269 823 336 l 823 0 l 700 0 m 415 975 l 338 974 l 215 974 l 215 585 l 378 585 q 668 662 597 585 q 709 780 709 707 q 638 932 709 888 q 549 966 594 959 q 415 975 484 975 z "},"ŗ":{"ha":564,"x_min":83,"x_max":487,"o":"m 83 0 m 190 -268 l 190 -69 l 380 -69 l 380 -238 q 340 -367 380 -315 q 225 -439 300 -418 l 191 -376 q 258 -336 237 -359 q 279 -268 279 -313 l 190 -268 m 419 807 q 487 799 458 807 l 487 696 q 433 699 473 699 q 321 670 392 699 q 212 606 250 642 l 212 0 l 83 0 l 83 793 l 180 793 l 201 663 q 419 807 312 807 z "},"Ř":{"ha":904,"x_min":83,"x_max":825,"o":"m 83 0 m 454 1298 l 598 1554 l 685 1501 l 487 1161 l 422 1161 l 224 1501 l 311 1554 l 454 1298 m 700 0 l 703 212 q 674 393 703 345 q 598 462 647 442 q 467 492 534 488 q 337 497 399 497 l 215 497 l 215 0 l 83 0 l 83 1071 l 338 1071 q 544 1063 501 1071 q 628 1046 587 1056 q 693 1022 669 1036 q 745 987 717 1008 q 788 937 773 965 q 825 787 825 871 q 743 607 825 673 q 545 541 661 541 q 804 387 754 517 q 823 269 823 336 l 823 0 l 700 0 m 415 975 l 338 974 l 215 974 l 215 585 l 378 585 q 668 662 597 585 q 709 780 709 707 q 638 932 709 888 q 549 966 594 959 q 415 975 484 975 z "},"ř":{"ha":564,"x_min":54,"x_max":515,"o":"m 54 0 m 285 1013 l 429 1269 l 515 1216 l 317 876 l 252 876 l 54 1216 l 141 1269 l 285 1013 m 419 807 q 487 799 458 807 l 487 696 q 433 699 473 699 q 321 670 392 699 q 212 606 250 642 l 212 0 l 83 0 l 83 793 l 180 793 l 201 663 q 419 807 312 807 z "},"Ś":{"ha":743,"x_min":1,"x_max":743,"o":"m 1 0 m 391 1161 l 352 1179 l 460 1593 l 617 1531 l 391 1161 m 47 49 l 61 151 q 199 93 138 110 q 322 75 259 75 q 424 80 385 75 q 499 99 462 85 q 562 136 536 113 q 618 282 618 186 q 540 430 618 377 q 393 499 477 473 q 258 542 309 525 q 161 583 207 559 q 79 637 115 606 q 1 825 1 705 q 30 946 1 893 q 109 1029 60 998 q 339 1092 207 1092 q 673 1006 523 1092 l 653 907 q 522 966 595 944 q 394 989 448 989 q 307 986 339 989 q 238 972 274 983 q 179 944 203 962 q 125 819 125 903 q 203 694 125 738 q 346 639 257 664 q 485 598 434 614 q 583 556 536 581 q 665 496 629 530 q 743 289 743 423 q 585 18 743 98 q 361 -28 492 -28 q 194 -8 281 -28 q 47 49 106 12 z "},"ś":{"ha":683,"x_min":60,"x_max":625,"o":"m 60 0 m 362 876 l 323 894 l 431 1308 l 589 1246 l 362 876 m 67 68 l 111 166 q 216 104 154 129 q 321 79 278 79 q 392 85 363 79 q 448 106 420 92 q 508 213 507 136 q 419 329 508 292 q 332 358 380 345 q 236 389 284 372 q 149 430 189 406 q 85 498 110 454 q 60 599 60 543 q 85 696 60 656 q 149 760 109 736 q 330 807 230 807 q 468 782 386 807 q 589 724 549 757 l 547 627 q 337 707 448 707 q 169 597 169 707 q 259 505 168 538 q 348 476 300 490 q 445 441 397 461 q 534 393 494 420 q 600 318 574 366 q 625 211 625 271 q 599 105 625 150 q 529 35 572 60 q 328 -14 444 -14 q 189 11 269 -14 q 67 68 109 35 z "},"Š":{"ha":743,"x_min":1,"x_max":743,"o":"m 1 0 m 372 1298 l 515 1554 l 602 1501 l 404 1161 l 339 1161 l 141 1501 l 228 1554 l 372 1298 m 47 49 l 61 151 q 199 93 138 110 q 322 75 259 75 q 424 80 385 75 q 499 99 462 85 q 562 136 536 113 q 618 282 618 186 q 540 430 618 377 q 393 499 477 473 q 258 542 309 525 q 161 583 207 559 q 79 637 115 606 q 1 825 1 705 q 30 946 1 893 q 109 1029 60 998 q 339 1092 207 1092 q 673 1006 523 1092 l 653 907 q 522 966 595 944 q 394 989 448 989 q 307 986 339 989 q 238 972 274 983 q 179 944 203 962 q 125 819 125 903 q 203 694 125 738 q 346 639 257 664 q 485 598 434 614 q 583 556 536 581 q 665 496 629 530 q 743 289 743 423 q 585 18 743 98 q 361 -28 492 -28 q 194 -8 281 -28 q 47 49 106 12 z "},"š":{"ha":683,"x_min":60,"x_max":625,"o":"m 60 0 m 342 1013 l 486 1269 l 573 1216 l 375 876 l 310 876 l 112 1216 l 199 1269 l 342 1013 m 67 68 l 111 166 q 216 104 154 129 q 321 79 278 79 q 392 85 363 79 q 448 106 420 92 q 508 213 507 136 q 419 329 508 292 q 332 358 380 345 q 236 389 284 372 q 149 430 189 406 q 85 498 110 454 q 60 599 60 543 q 85 696 60 656 q 149 760 109 736 q 330 807 230 807 q 468 782 386 807 q 589 724 549 757 l 547 627 q 337 707 448 707 q 169 597 169 707 q 259 505 168 538 q 348 476 300 490 q 445 441 397 461 q 534 393 494 420 q 600 318 574 366 q 625 211 625 271 q 599 105 625 150 q 529 35 572 60 q 328 -14 444 -14 q 189 11 269 -14 q 67 68 109 35 z "},"Ū":{"ha":1017,"x_min":83,"x_max":935,"o":"m 83 0 m 740 1161 l 277 1161 l 277 1240 l 740 1240 l 740 1161 m 507 -28 q 336 -2 410 -28 q 216 67 263 23 q 137 177 167 111 q 83 485 83 296 l 83 1071 l 213 1071 l 213 482 q 245 222 213 304 q 334 109 276 145 q 507 68 400 68 q 734 160 669 68 q 786 282 775 218 q 802 482 802 375 l 802 1071 l 935 1071 l 935 485 q 802 67 935 190 q 507 -28 699 -28 z "},"ū":{"ha":821,"x_min":82,"x_max":737,"o":"m 82 0 m 641 876 l 178 876 l 178 956 l 641 956 l 641 876 m 368 79 q 608 186 500 79 l 608 793 l 737 793 l 737 0 l 642 0 l 623 119 q 361 -14 505 -14 q 150 69 217 -14 q 82 300 82 151 l 82 793 l 211 793 l 211 300 q 289 98 212 141 q 368 79 321 80 z "},"Ų":{"ha":1389,"x_min":0,"x_max":0,"o":""},"ų":{"ha":1389,"x_min":0,"x_max":0,"o":""},"Ÿ":{"ha":938,"x_min":56,"x_max":882,"o":"m 56 0 m 228 1239 q 228 1255 228 1239 q 250 1294 228 1271 q 304 1317 272 1317 q 357 1294 336 1317 q 377 1239 377 1272 q 357 1184 377 1206 q 304 1161 336 1161 q 250 1184 271 1161 q 228 1239 228 1206 m 560 1239 q 560 1255 560 1239 q 582 1294 560 1271 q 636 1317 604 1317 q 689 1294 669 1317 q 709 1239 709 1272 q 689 1184 709 1206 q 636 1161 669 1161 q 582 1184 604 1161 q 560 1239 560 1206 m 472 459 l 752 1071 l 882 1071 l 533 329 l 533 0 l 404 0 l 404 329 l 56 1071 l 189 1071 q 472 459 328 759 z "},"Ź":{"ha":861,"x_min":81,"x_max":781,"o":"m 81 0 m 450 1161 l 412 1179 l 519 1593 l 677 1531 l 450 1161 m 779 1071 l 779 962 l 214 97 l 781 97 l 781 0 l 81 0 l 81 122 l 643 981 l 81 981 l 81 1071 l 779 1071 z "},"ź":{"ha":701,"x_min":77,"x_max":621,"o":"m 77 0 m 369 876 l 330 894 l 438 1308 l 595 1246 l 369 876 m 621 793 l 621 681 l 197 98 l 621 98 l 621 0 l 77 0 l 77 113 l 510 698 l 98 698 l 98 793 l 621 793 z "},"Ż":{"ha":861,"x_min":81,"x_max":781,"o":"m 81 0 m 356 1239 q 356 1255 356 1239 q 378 1294 356 1271 q 432 1317 400 1317 q 485 1294 465 1317 q 505 1239 505 1272 q 485 1184 505 1206 q 432 1161 465 1161 q 378 1184 399 1161 q 356 1239 356 1206 m 779 1071 l 779 962 l 214 97 l 781 97 l 781 0 l 81 0 l 81 122 l 643 981 l 81 981 l 81 1071 l 779 1071 z "},"ż":{"ha":701,"x_min":77,"x_max":621,"o":"m 77 0 m 275 954 q 275 970 275 954 q 297 1009 275 986 q 351 1032 319 1032 q 404 1009 383 1032 q 424 954 424 987 q 404 899 424 922 q 351 876 383 876 q 296 899 318 876 q 275 954 275 922 m 621 793 l 621 681 l 197 98 l 621 98 l 621 0 l 77 0 l 77 113 l 510 698 l 98 698 l 98 793 l 621 793 z "},"Ž":{"ha":861,"x_min":81,"x_max":781,"o":"m 81 0 m 431 1298 l 574 1554 l 661 1501 l 463 1161 l 398 1161 l 200 1501 l 287 1554 l 431 1298 m 779 1071 l 779 962 l 214 97 l 781 97 l 781 0 l 81 0 l 81 122 l 643 981 l 81 981 l 81 1071 l 779 1071 z "},"ž":{"ha":701,"x_min":77,"x_max":621,"o":"m 77 0 m 349 1013 l 493 1269 l 580 1216 l 382 876 l 317 876 l 119 1216 l 205 1269 l 349 1013 m 621 793 l 621 681 l 197 98 l 621 98 l 621 0 l 77 0 l 77 113 l 510 698 l 98 698 l 98 793 l 621 793 z "},"ˆ":{"ha":968,"x_min":254,"x_max":715,"o":"m 484 549 l 340 293 l 254 346 l 452 686 l 517 686 l 715 346 l 628 293 l 484 549 z "},"ˇ":{"ha":968,"x_min":254,"x_max":715,"o":"m 484 429 l 628 685 l 715 632 l 517 292 l 452 292 l 254 632 l 340 685 l 484 429 z "},"˚":{"ha":1158,"x_min":415,"x_max":743,"o":"m 579 702 q 460 747 506 702 q 415 865 415 791 q 460 983 415 938 q 579 1027 506 1027 q 698 983 652 1027 q 743 865 743 938 q 698 747 743 791 q 579 702 652 702 m 481 865 q 481 843 481 865 q 508 792 481 821 q 579 764 536 764 q 650 792 622 764 q 677 865 677 821 q 650 937 677 908 q 579 966 622 966 q 508 937 536 966 q 481 865 481 908 z "},"˜":{"ha":1158,"x_min":319,"x_max":835,"o":"m 835 871 q 802 750 835 798 q 705 702 769 702 q 578 742 642 701 q 465 783 497 779 q 433 763 441 783 q 425 705 425 743 l 319 705 q 456 881 319 881 q 577 839 519 881 q 689 796 635 796 q 729 871 729 796 l 835 871 z "},"́":{"ha":744,"x_min":332,"x_max":597,"o":"m 370 1112 l 332 1129 l 439 1544 l 597 1482 l 370 1112 z "},"̆":{"ha":529,"x_min":83,"x_max":436,"o":"m 261 1023 q 331 1046 305 1023 q 357 1111 357 1069 l 436 1111 q 261 949 436 949 q 130 989 176 949 q 83 1111 83 1030 l 163 1111 q 190 1046 163 1069 q 261 1023 217 1023 z "},"ກ":{"ha":1024,"x_min":54,"x_max":940,"o":"m 198 269 l 279 258 l 279 561 q 211 548 241 548 q 96 580 138 548 q 54 677 54 612 q 97 775 54 742 q 208 808 140 808 q 379 697 339 808 q 410 718 385 701 q 445 741 436 736 q 478 761 454 747 q 518 781 503 775 q 556 794 533 786 q 665 808 597 808 q 788 789 732 808 q 878 727 844 769 q 940 482 940 650 l 940 0 l 824 0 l 824 521 q 791 683 825 633 q 646 736 754 736 q 437 652 546 736 q 395 621 427 644 l 395 245 q 213 0 395 0 q 55 134 55 0 q 95 231 55 194 q 198 269 136 267 m 279 635 q 214 739 279 739 q 163 725 182 739 q 144 682 144 710 q 208 616 144 616 q 279 635 239 616 m 145 134 q 162 86 145 104 q 203 69 179 69 q 239 76 227 69 q 260 92 252 82 q 271 118 267 102 q 279 185 278 144 l 279 208 l 225 208 q 145 134 145 208 z "},"ຂ":{"ha":900,"x_min":64,"x_max":821,"o":"m 178 154 q 243 90 178 90 q 300 101 273 90 q 353 125 326 113 q 388 142 379 138 l 556 219 q 692 253 623 250 q 821 103 821 250 l 821 0 l 707 0 l 707 102 q 693 145 707 129 q 650 161 680 161 q 580 140 621 161 l 352 36 q 213 0 273 0 q 108 41 153 0 q 64 148 64 81 q 94 241 64 207 q 158 293 126 278 q 232 325 204 315 q 263 336 260 334 l 427 395 q 482 414 445 402 q 545 433 519 425 q 604 457 571 441 q 656 489 636 472 q 705 591 705 530 q 665 687 705 655 q 578 726 624 720 q 441 738 508 738 q 212 684 283 738 q 246 686 229 686 q 354 650 315 686 q 394 549 394 614 q 351 451 394 483 q 237 418 309 418 q 74 584 74 418 q 334 801 75 769 q 443 807 384 807 q 552 802 502 807 q 654 783 602 798 q 741 746 706 769 q 799 683 777 723 q 821 600 821 642 q 812 530 821 557 q 785 482 803 503 q 747 446 766 461 q 699 416 728 430 q 622 382 657 395 q 581 368 586 370 l 259 245 q 184 190 197 220 q 178 154 178 175 m 241 481 q 305 556 305 481 q 279 609 305 595 q 206 623 254 623 l 166 623 q 159 581 159 600 q 241 481 159 481 z "},"ຄ":{"ha":869,"x_min":73,"x_max":804,"o":"m 431 736 q 184 606 184 736 q 221 516 184 549 q 316 482 258 482 l 408 482 l 408 400 l 316 400 q 222 364 255 400 q 185 264 190 328 l 185 258 l 230 265 q 267 268 247 268 q 370 235 332 268 q 408 135 408 201 q 367 35 408 69 q 244 0 325 0 q 118 63 163 0 q 73 222 73 126 q 123 373 73 317 q 262 441 173 429 q 127 485 182 442 q 73 604 73 528 q 431 808 73 808 q 711 739 622 808 q 804 482 804 666 l 804 0 l 688 0 l 688 479 q 630 678 688 621 q 431 736 573 736 m 185 193 q 253 70 187 70 q 318 140 318 70 q 295 193 318 178 q 230 208 273 208 l 185 208 l 185 193 z "},"ງ":{"ha":727,"x_min":30,"x_max":673,"o":"m 673 98 q 495 -286 674 -214 q 332 -313 429 -313 q 119 -260 194 -313 q 45 -87 45 -207 l 133 -87 q 330 -240 136 -240 q 480 -198 433 -240 q 545 -81 531 -153 q 559 96 559 -9 l 559 438 q 515 657 559 583 q 332 739 467 739 l 310 739 q 330 659 330 680 q 182 539 327 539 q 74 572 117 539 q 30 665 30 605 q 300 808 30 808 q 578 715 483 808 q 673 441 673 622 l 673 98 m 121 667 q 189 602 121 602 q 249 677 249 602 l 249 739 q 132 703 156 736 q 121 667 121 688 z "},"ຈ":{"ha":928,"x_min":23,"x_max":852,"o":"m 416 595 q 586 406 586 595 q 626 188 586 287 q 737 47 665 90 l 737 462 q 676 675 737 615 q 463 736 616 736 q 127 511 132 736 l 127 496 l 24 496 q 23 519 23 507 l 23 529 q 210 770 23 701 q 435 808 315 808 q 629 791 556 808 q 753 734 701 774 q 852 458 852 656 l 852 1 l 746 -47 l 715 -34 q 559 109 619 15 q 483 330 498 203 l 452 324 q 412 321 421 321 q 252 454 252 321 q 298 558 252 522 q 416 595 343 595 m 411 530 q 342 456 342 530 q 367 398 342 414 q 440 382 391 382 l 477 382 q 477 394 477 385 l 477 414 q 463 501 477 471 q 411 530 450 530 z "},"ຊ":{"ha":894,"x_min":64,"x_max":844,"o":"m 170 156 q 231 90 170 95 q 406 146 307 92 q 572 227 522 211 q 651 243 621 243 q 695 242 680 243 q 721 235 709 240 q 742 225 732 229 q 758 210 751 220 q 771 194 766 200 q 781 172 776 187 q 788 149 785 157 q 793 122 790 141 q 802 63 799 93 l 844 -239 l 745 -239 l 707 63 q 705 82 706 69 q 702 102 703 96 q 699 120 701 109 q 694 137 697 132 q 686 150 690 143 q 646 162 677 162 q 570 145 616 162 q 484 105 525 129 q 401 57 443 81 q 227 0 300 0 q 108 41 153 0 q 64 149 64 82 q 162 294 64 243 q 248 331 206 317 q 297 349 290 346 l 431 397 q 486 416 448 404 q 551 437 525 428 q 613 462 578 446 q 670 494 648 478 q 723 581 723 534 q 699 658 722 627 q 635 705 675 689 q 448 738 557 738 q 212 684 285 738 q 251 687 249 687 q 357 651 319 686 q 396 551 396 616 q 350 448 396 485 q 233 410 304 410 q 72 584 72 410 q 232 779 72 723 q 415 808 319 808 q 575 798 511 808 q 697 764 639 788 q 788 695 755 741 q 821 599 821 650 q 809 519 821 549 q 780 470 798 490 q 734 434 762 451 q 599 375 694 410 l 386 294 q 297 264 340 277 q 232 243 254 252 q 198 222 210 233 q 170 156 170 198 m 159 565 q 159 547 159 565 q 177 505 159 530 q 235 479 195 479 q 290 498 276 479 q 305 556 304 517 q 210 623 305 623 l 166 623 q 159 565 159 600 z "},"ຍ":{"ha":859,"x_min":63,"x_max":794,"o":"m 175 203 q 407 71 175 71 q 613 122 551 71 q 678 315 678 175 l 678 808 l 794 808 l 794 327 q 700 71 793 145 q 422 0 610 0 q 63 205 63 0 q 118 322 63 278 q 253 367 174 367 q 112 431 161 376 q 63 586 63 486 q 109 747 63 686 q 235 808 155 808 q 399 674 399 808 q 362 576 399 610 q 257 540 325 542 q 215 543 252 540 l 176 551 l 176 536 q 210 445 176 480 q 300 409 243 409 l 398 409 l 398 326 l 300 326 q 210 292 245 326 q 175 203 175 258 m 222 602 q 287 616 267 602 q 309 669 307 631 q 250 739 306 737 q 194 711 212 739 q 176 637 176 683 l 176 602 l 222 602 z "},"ດ":{"ha":879,"x_min":73,"x_max":812,"o":"m 257 268 q 370 235 327 268 q 412 140 412 203 q 246 0 412 0 q 73 237 73 0 l 73 482 q 161 735 73 661 q 439 808 249 808 q 718 738 627 808 q 812 482 812 664 l 812 0 l 697 0 l 697 479 q 637 676 697 616 q 440 736 578 736 q 245 676 303 736 q 188 479 188 616 l 188 258 l 229 266 q 257 268 250 268 m 188 180 q 202 98 188 125 q 258 69 216 71 q 321 140 321 71 q 298 193 321 179 q 224 208 274 208 l 188 208 l 188 180 z "},"ຕ":{"ha":1050,"x_min":73,"x_max":984,"o":"m 336 808 q 528 648 504 808 q 588 769 541 730 q 718 808 635 808 q 850 785 800 808 q 930 718 902 763 q 984 479 985 635 l 984 0 l 869 0 l 869 485 q 848 658 869 610 q 787 726 825 710 q 733 735 764 735 q 681 727 703 735 q 643 708 658 720 q 616 675 627 696 q 600 633 606 653 q 591 583 594 614 q 587 466 587 536 l 587 375 l 471 375 l 471 466 q 454 651 471 606 q 427 701 439 690 q 404 720 416 712 q 340 736 380 736 q 273 725 301 736 q 228 695 245 713 q 202 646 212 677 q 188 505 187 596 l 188 259 l 216 265 q 256 268 245 268 q 370 236 328 268 q 412 135 412 204 q 248 0 412 0 q 115 60 158 0 q 73 225 73 121 l 73 482 q 209 787 72 730 q 336 808 260 808 m 322 140 q 298 192 322 177 q 228 208 273 208 l 188 208 l 188 167 q 261 69 188 69 q 322 140 321 69 z "},"ຖ":{"ha":936,"x_min":-22,"x_max":866,"o":"m 576 808 q 798 731 730 808 q 866 494 866 654 l 866 -228 l 751 -228 l 751 507 q 712 681 751 626 q 569 736 674 736 q 470 715 511 736 q 411 684 429 694 q 361 652 393 673 q 318 623 330 631 l 318 258 l 341 264 q 385 267 354 267 q 500 235 458 267 q 542 140 542 204 q 378 0 534 0 q 203 236 203 0 l 203 564 q 125 549 157 549 q 18 580 52 549 q -22 680 -16 612 q 21 777 -22 745 q 139 808 64 808 q 303 702 267 808 q 304 699 303 700 q 330 717 309 703 q 358 735 351 731 q 383 751 364 739 q 412 767 402 763 q 439 781 421 772 q 470 793 457 789 q 502 800 484 796 q 576 808 534 808 m 68 682 q 133 620 72 620 q 203 638 164 620 l 203 644 q 188 716 203 693 q 132 740 172 740 q 68 682 70 740 m 382 69 q 451 130 448 69 l 451 140 q 428 193 451 178 q 357 208 404 208 l 318 208 l 318 176 q 332 97 318 125 q 382 69 345 69 z "},"ທ":{"ha":1015,"x_min":9,"x_max":945,"o":"m 349 0 q 121 202 121 0 q 172 446 121 296 q 205 550 198 523 l 155 541 q 48 575 87 541 q 9 675 9 610 q 168 808 9 808 q 292 774 245 808 q 340 671 340 739 q 332 614 340 648 q 237 208 237 274 q 263 107 237 142 q 347 72 288 72 q 435 109 408 72 q 471 189 465 147 q 479 315 479 250 l 479 503 q 533 730 479 652 q 713 808 587 808 q 898 723 846 808 q 945 500 945 645 l 945 0 l 831 0 l 831 548 q 718 736 831 736 q 595 555 595 736 l 595 339 q 573 148 595 209 q 524 60 551 87 q 349 0 465 0 m 238 680 q 238 692 238 680 q 219 721 238 704 q 168 739 200 739 q 100 677 100 739 l 100 673 q 122 617 100 633 q 189 602 144 602 l 220 602 l 226 620 q 238 680 238 656 z "},"ນ":{"ha":965,"x_min":7,"x_max":897,"o":"m 154 540 q 48 574 88 540 q 7 669 8 608 q 165 808 7 808 q 345 584 345 808 l 345 295 q 402 126 345 180 q 571 72 459 72 q 732 120 682 72 q 781 273 781 168 l 781 808 l 897 808 l 897 313 q 817 77 897 155 q 576 0 736 0 q 386 43 461 0 q 290 172 311 86 q 202 44 270 88 q 28 0 135 0 l 28 73 q 179 131 127 73 q 231 293 231 189 l 231 559 q 154 540 185 540 m 231 629 q 217 710 231 682 q 167 739 203 739 q 114 722 130 739 q 97 667 97 705 q 119 615 97 629 q 189 602 141 602 l 231 602 l 231 629 z "},"ບ":{"ha":894,"x_min":10,"x_max":824,"o":"m 321 566 l 246 273 q 237 197 237 235 q 258 134 237 160 q 313 96 278 110 q 469 72 378 72 q 654 129 600 72 q 709 319 709 186 l 709 808 l 824 808 l 824 339 q 740 80 824 159 q 473 0 655 0 q 142 127 212 0 q 122 209 122 165 q 132 281 122 252 l 208 549 q 154 539 175 539 q 50 576 90 539 q 10 675 10 612 q 182 808 10 807 q 295 770 250 808 q 340 668 340 731 q 321 566 340 644 m 164 739 q 101 675 102 739 q 124 617 101 632 q 195 602 146 602 l 222 602 l 235 648 q 239 669 239 661 q 219 720 239 702 q 164 739 199 739 z "},"ປ":{"ha":894,"x_min":11,"x_max":825,"o":"m 151 539 q 50 577 90 539 q 11 675 11 614 q 180 808 11 803 q 295 775 250 808 q 341 687 341 743 q 327 587 341 632 l 248 275 q 238 208 238 242 q 253 149 238 173 q 290 111 267 125 q 346 88 313 98 q 477 72 402 72 q 658 132 605 72 q 711 326 711 193 l 711 1045 l 825 1045 l 825 354 q 744 83 825 166 q 475 0 662 0 q 143 127 212 0 q 123 209 123 164 q 132 285 123 254 l 208 548 q 151 539 176 539 m 239 677 q 172 739 239 739 q 102 676 105 732 q 123 617 102 632 q 194 602 144 602 l 222 602 l 236 648 q 239 677 239 671 z "},"ຜ":{"ha":1139,"x_min":73,"x_max":1081,"o":"m 799 540 q 638 671 638 540 q 681 774 638 743 q 805 808 724 806 q 968 657 943 807 q 995 771 995 697 l 995 907 l 1081 907 l 1081 771 q 1054 660 1081 704 q 977 582 1027 615 q 977 549 977 569 l 977 353 q 846 26 977 94 q 719 0 796 0 q 589 43 641 0 q 525 165 537 87 q 464 43 514 85 q 331 0 413 0 q 199 23 250 0 q 121 93 149 46 q 73 340 73 177 l 73 589 q 251 808 73 808 q 412 669 412 808 q 372 574 412 609 q 266 540 331 540 q 187 555 231 540 l 187 300 q 223 115 187 160 q 326 72 257 72 q 440 140 410 72 q 467 305 467 199 l 467 347 l 583 347 l 583 304 q 724 72 583 72 q 837 136 808 72 q 863 295 863 194 l 863 544 q 799 540 834 540 m 794 739 q 729 673 729 739 q 754 615 729 629 q 813 601 779 601 q 863 603 848 601 l 863 629 q 848 711 863 683 q 794 739 834 739 m 321 669 q 257 739 321 738 q 202 710 217 739 q 187 629 187 681 l 187 602 l 225 602 q 297 615 273 602 q 321 669 321 629 z "},"ຝ":{"ha":1049,"x_min":72,"x_max":983,"o":"m 186 296 q 226 114 186 160 q 330 72 260 73 q 443 137 412 72 q 469 296 469 194 l 469 348 l 585 348 l 585 296 q 720 72 585 72 q 852 161 825 72 q 867 296 867 212 l 867 1045 l 983 1045 l 983 353 q 960 155 983 218 q 910 63 937 92 q 733 0 850 0 q 527 165 560 2 q 463 42 509 83 q 342 1 416 1 q 338 1 340 1 q 221 16 266 0 q 148 60 176 33 q 102 132 119 88 q 72 345 72 209 l 72 569 q 113 745 72 685 q 250 808 153 804 q 412 677 412 806 q 372 575 412 611 q 263 540 332 540 q 186 559 232 540 l 186 296 m 321 669 q 260 739 321 739 q 202 711 217 739 q 186 629 186 684 l 186 602 l 225 602 q 297 615 273 602 q 321 669 321 629 z "},"ພ":{"ha":1060,"x_min":9,"x_max":992,"o":"m 9 678 q 181 808 9 808 q 294 770 249 808 q 339 667 339 731 q 329 602 339 642 l 252 300 q 235 181 235 234 q 263 100 235 128 q 334 72 291 72 q 401 83 377 72 q 441 113 426 94 q 465 160 456 132 q 481 291 481 210 l 481 808 l 597 808 l 597 291 q 744 72 597 72 q 875 222 860 72 q 878 294 878 254 l 878 808 l 992 808 l 992 354 q 970 155 992 218 q 921 64 948 93 q 744 0 862 0 q 607 43 654 0 q 539 169 559 86 q 474 41 524 81 q 325 0 425 0 q 171 51 224 0 q 118 201 118 102 q 130 281 118 239 l 205 548 q 153 539 173 539 q 47 576 85 539 q 9 678 9 612 m 163 739 q 100 676 101 739 q 121 617 100 633 q 191 602 142 602 l 220 602 l 232 642 q 235 659 233 647 q 237 675 236 670 q 217 722 237 705 q 163 739 197 739 z "},"ຟ":{"ha":1122,"x_min":9,"x_max":991,"o":"m 9 675 q 173 808 9 808 q 292 773 245 808 q 339 673 339 739 q 327 602 339 651 l 254 312 q 234 192 234 248 q 261 104 234 136 q 332 72 288 72 q 403 83 376 72 q 444 111 429 94 q 468 159 460 129 q 481 291 481 207 l 481 808 l 597 808 l 597 291 q 673 88 597 127 q 743 72 703 72 q 806 84 782 72 q 844 115 830 96 q 864 165 856 134 q 876 294 876 212 l 876 1046 l 991 1046 l 991 354 q 969 155 991 218 q 920 64 947 93 q 755 0 859 0 q 604 42 650 0 q 539 169 557 84 q 475 41 525 83 q 332 0 426 0 l 323 0 q 174 55 231 1 q 117 201 117 109 q 130 283 117 240 l 207 552 q 143 543 168 543 q 45 578 82 543 q 9 675 9 614 m 237 679 q 215 723 237 705 q 163 740 193 740 q 99 671 100 740 q 123 617 99 631 q 194 602 146 602 l 220 602 l 228 631 q 232 647 229 637 q 237 679 237 670 z "},"ມ":{"ha":1097,"x_min":-12,"x_max":1027,"o":"m 477 304 q 532 130 477 186 q 696 73 588 73 q 699 73 698 73 q 912 274 912 73 l 912 808 l 1027 808 l 1027 342 q 705 0 1027 0 q 420 173 471 0 q 158 0 376 0 q 36 34 83 0 q -12 133 -12 68 q 26 233 -12 198 q 132 269 65 269 q 280 151 280 269 q 263 80 280 129 q 362 303 362 117 l 362 808 l 477 808 l 477 304 m 199 140 q 139 208 199 208 q 79 134 79 208 q 101 81 79 94 q 172 69 123 69 l 199 70 l 199 140 z "},"ຢ":{"ha":897,"x_min":77,"x_max":846,"o":"m 268 367 q 77 586 77 387 q 123 747 77 686 q 250 808 170 808 q 372 774 330 808 q 414 674 414 739 q 376 575 414 610 q 271 540 338 541 q 230 543 267 540 l 190 551 l 190 536 q 224 445 190 481 q 315 409 259 409 l 413 409 l 413 326 l 315 326 q 224 292 260 326 q 189 211 189 257 q 208 139 189 165 q 261 98 227 113 q 422 71 326 71 l 436 72 q 633 126 574 72 q 692 315 692 181 l 692 786 q 735 1036 692 935 l 846 1036 q 809 769 809 897 l 809 327 q 715 72 809 145 q 436 1 624 1 q 77 205 77 1 q 133 322 77 278 q 268 367 188 367 m 237 602 q 302 616 283 602 q 323 669 322 630 q 264 739 321 737 q 209 711 227 739 q 190 637 190 683 l 190 602 l 237 602 z "},"ຣ":{"ha":919,"x_min":63,"x_max":855,"o":"m 230 392 q 387 258 387 392 q 350 164 387 200 q 256 127 313 129 l 191 138 q 446 71 271 71 q 647 97 583 71 q 739 217 738 135 q 684 324 738 293 q 600 360 640 350 l 290 467 q 255 479 281 470 q 217 492 228 488 q 182 506 205 496 q 149 524 159 516 q 121 544 138 531 q 98 571 105 557 q 78 643 78 606 q 92 705 79 678 q 132 749 106 732 q 191 779 159 767 q 266 798 223 791 q 414 808 342 808 q 527 806 487 808 q 610 799 566 804 q 686 783 654 793 q 749 755 718 772 q 799 713 780 737 q 841 575 841 659 l 841 559 l 748 559 l 748 578 q 675 703 749 667 q 506 735 614 732 q 439 736 479 736 l 430 736 q 306 731 335 736 q 256 719 277 726 q 223 703 235 712 q 203 679 212 694 q 195 646 195 665 q 205 612 195 628 q 230 586 216 596 q 268 565 243 575 q 309 549 292 554 q 353 535 326 543 q 390 524 380 528 l 483 494 q 585 464 538 477 q 666 439 631 452 q 725 414 701 427 q 776 384 750 402 q 818 343 802 365 q 855 233 854 294 q 832 135 855 175 q 771 69 809 94 q 678 28 733 45 q 443 0 581 0 q 145 71 250 0 q 63 225 64 127 q 230 392 63 391 m 239 328 q 149 229 149 328 q 157 185 149 208 l 184 185 q 270 198 245 185 q 296 258 295 211 q 239 328 296 328 z "},"ລ":{"ha":951,"x_min":51,"x_max":884,"o":"m 220 0 q 96 55 141 0 q 51 206 51 110 q 114 375 51 302 q 278 448 176 448 q 434 381 370 448 q 522 262 488 323 q 620 109 585 142 q 679 76 654 76 q 718 83 703 76 q 742 105 733 91 q 756 136 751 120 q 765 175 762 152 q 769 257 769 210 l 769 456 q 732 648 769 585 q 485 736 682 736 l 481 736 q 195 623 260 736 q 170 522 171 581 l 71 522 q 498 808 71 808 q 788 734 696 808 q 884 466 884 656 l 884 302 q 823 56 884 126 q 677 0 774 0 q 534 68 595 0 q 448 189 481 128 q 349 339 384 307 q 280 372 314 372 q 167 248 182 372 q 191 258 176 251 q 241 271 224 271 q 348 235 309 271 q 387 132 387 198 q 220 0 387 0 m 195 79 q 237 69 210 69 q 297 140 293 69 q 276 190 297 176 q 212 208 255 204 l 163 208 l 163 193 q 195 79 164 98 z "},"ວ":{"ha":954,"x_min":76,"x_max":887,"o":"m 267 392 q 425 260 425 392 q 296 127 425 127 l 220 140 q 467 71 286 71 q 772 340 772 71 l 772 456 q 731 650 772 586 q 475 736 677 735 q 176 522 182 736 l 76 522 q 108 656 76 599 q 197 745 140 713 q 481 808 308 808 q 818 714 730 808 q 887 496 887 640 l 887 330 q 637 19 887 81 q 480 0 563 0 q 333 11 397 0 q 209 46 268 22 q 115 116 150 71 q 80 232 80 161 q 131 348 80 304 q 267 392 181 392 m 265 327 q 188 229 188 327 q 194 185 188 212 l 206 185 q 311 201 290 185 q 333 257 334 220 q 317 310 333 294 q 265 327 300 327 z "},"ສ":{"ha":1013,"x_min":79,"x_max":937,"o":"m 874 653 q 916 475 916 606 l 916 294 q 868 77 916 153 q 705 1 819 1 q 553 59 608 1 q 477 165 504 111 q 384 305 423 271 q 294 340 344 340 q 217 317 244 340 q 182 248 191 295 l 263 269 q 364 234 327 269 q 401 138 401 200 q 238 0 401 0 q 119 54 158 0 q 79 203 79 107 q 135 354 79 298 q 290 409 190 409 q 440 359 386 408 q 511 269 482 321 q 556 189 538 217 q 654 90 597 120 q 703 77 679 77 q 744 84 728 77 q 769 105 760 91 q 786 135 779 119 q 795 174 792 151 q 800 260 800 214 l 800 555 q 732 495 785 519 q 497 454 639 453 q 282 466 340 454 q 193 491 224 479 q 140 521 161 504 q 94 618 94 558 q 161 739 94 697 q 297 791 228 781 q 497 808 405 808 q 811 728 701 808 q 845 900 845 793 l 937 900 q 874 653 937 784 m 207 618 q 256 556 207 575 q 357 533 308 536 q 519 528 428 528 q 776 648 733 528 q 497 736 703 736 q 207 618 207 736 m 311 141 q 286 194 311 181 q 207 208 260 208 l 178 208 q 177 201 177 205 l 177 185 q 191 101 177 131 q 243 69 204 72 q 311 141 311 70 z "},"ຫ":{"ha":1366,"x_min":12,"x_max":1259,"o":"m 12 676 q 168 808 12 808 q 291 774 241 808 q 340 676 340 741 q 323 577 340 647 l 253 299 q 242 228 242 261 q 448 71 242 71 q 616 133 571 71 q 657 321 658 191 l 657 549 q 599 539 629 539 q 431 676 431 539 q 479 775 431 744 q 605 807 528 807 q 769 682 741 807 q 822 719 782 690 q 886 763 862 748 q 950 793 910 779 q 1043 808 991 808 q 1142 785 1096 808 q 1214 716 1189 761 q 1259 485 1259 635 l 1259 0 l 1145 0 l 1145 508 q 1137 636 1145 608 q 1121 683 1130 665 q 1100 712 1112 702 q 1030 736 1071 736 q 952 720 990 736 q 887 685 914 704 q 826 640 861 666 q 772 602 791 614 l 772 339 q 700 80 772 159 q 454 0 628 0 q 227 49 317 0 q 127 224 127 103 q 138 300 127 262 l 208 553 q 154 540 159 540 q 50 576 89 540 q 12 676 12 612 m 657 671 q 597 740 657 740 q 522 682 522 740 q 605 604 524 607 q 657 616 631 605 l 657 671 m 238 682 q 238 693 238 682 q 219 721 238 704 q 171 739 201 739 q 121 722 140 738 q 102 667 102 705 q 125 617 102 632 q 200 602 149 602 l 221 602 q 238 682 238 660 z "},"ອ":{"ha":954,"x_min":79,"x_max":888,"o":"m 469 808 q 812 714 714 808 q 888 510 888 642 l 888 370 q 782 88 888 176 q 467 0 676 0 q 165 71 277 0 q 103 135 127 96 q 79 222 79 174 q 130 348 79 303 q 260 392 180 392 q 424 260 424 392 q 390 166 424 203 q 301 127 357 129 q 220 138 275 127 q 465 71 283 71 q 670 119 606 71 q 733 195 718 156 q 755 263 749 234 q 766 332 762 292 q 773 501 773 403 l 773 507 q 657 457 736 470 q 498 445 578 445 q 375 447 418 445 q 286 456 332 450 q 203 475 239 463 q 139 507 168 488 q 79 618 79 545 q 469 808 79 808 m 616 723 q 596 726 616 723 q 541 733 576 730 q 459 736 506 736 q 370 732 413 736 q 284 716 328 728 q 193 618 193 692 q 262 540 193 560 q 377 522 319 522 q 469 521 435 521 q 757 618 750 521 q 736 669 756 647 q 686 703 716 690 q 616 723 656 715 m 333 258 q 262 327 333 326 q 188 229 188 326 q 194 185 188 206 l 229 185 q 308 200 283 185 q 333 258 333 214 z "},"ຮ":{"ha":911,"x_min":75,"x_max":833,"o":"m 265 392 q 426 256 426 392 q 389 163 426 199 q 293 128 351 128 l 216 141 q 467 71 275 71 q 670 115 611 71 q 718 212 718 152 q 682 311 718 272 q 590 376 646 351 q 465 422 533 401 q 328 466 396 444 q 202 512 259 487 q 110 575 146 536 q 75 673 75 613 q 118 770 75 732 q 233 808 161 808 q 412 757 312 808 q 497 712 454 735 q 674 652 599 658 l 678 652 q 751 749 751 652 l 751 808 l 832 808 l 832 749 q 794 624 832 672 q 684 576 755 576 q 415 667 633 576 q 294 715 326 705 q 241 726 262 726 q 178 659 178 726 q 279 556 178 594 q 321 542 295 551 q 358 530 347 534 l 567 451 q 605 437 578 447 q 645 422 631 428 q 684 407 659 417 q 723 388 709 397 q 757 366 737 379 q 788 339 777 353 q 811 308 800 326 q 832 224 833 275 q 811 134 832 174 q 754 70 789 94 q 670 28 720 45 q 492 0 583 0 q 350 6 401 0 q 247 28 298 12 q 161 68 197 43 q 81 225 81 123 q 131 349 81 305 q 265 392 181 392 m 336 253 q 271 327 336 327 q 189 224 189 327 q 195 185 189 201 l 239 185 q 313 199 290 185 q 336 253 336 214 z "},"ຯ":{"ha":951,"x_min":37,"x_max":922,"o":"m 152 525 q 325 372 152 372 q 522 440 434 372 q 661 584 594 496 l 799 767 l 922 705 l 499 -283 l 404 -243 l 755 581 l 726 538 q 337 287 561 287 q 60 410 124 288 q 37 514 37 454 q 110 726 37 644 q 306 808 182 808 q 446 768 391 808 q 500 652 500 727 q 461 536 500 578 q 360 495 422 495 q 261 524 298 495 q 224 603 224 553 q 250 706 224 629 q 178 638 205 688 q 152 525 152 589 m 298 625 q 311 583 298 599 q 349 566 324 566 q 404 635 404 566 q 377 696 404 678 q 298 715 349 713 l 298 625 z "},"ະ":{"ha":866,"x_min":62,"x_max":800,"o":"m 63 662 q 63 698 63 662 q 104 771 63 734 q 210 808 144 808 q 313 778 275 808 q 351 688 351 747 q 342 639 351 665 l 327 593 l 494 593 q 665 642 613 593 q 719 808 718 692 l 800 808 q 728 574 799 646 q 494 503 657 503 l 333 503 q 114 548 172 502 q 63 662 62 589 m 288 641 q 271 710 288 688 q 214 732 254 732 q 145 672 145 732 q 174 613 145 633 q 251 593 203 593 l 288 593 l 288 641 m 63 274 q 63 311 63 274 q 104 385 63 348 q 208 422 144 422 q 312 389 272 422 q 351 304 351 356 q 344 262 351 282 l 323 205 l 494 205 q 666 254 614 205 q 720 421 718 304 l 800 421 q 734 190 800 262 q 517 117 669 117 l 354 117 q 122 160 186 117 q 63 274 64 199 m 288 267 q 214 345 288 345 q 145 280 145 345 q 173 224 145 243 q 244 205 200 205 l 288 205 l 288 267 z "},"ັ":{"ha":3,"x_min":-726,"x_max":-27,"o":"m -726 1093 q -685 1196 -726 1160 q -579 1233 -644 1233 q -477 1202 -515 1233 q -439 1117 -439 1171 q -447 1069 -439 1092 l -465 1017 l -326 1017 q -159 1064 -210 1017 q -108 1223 -108 1111 l -27 1223 q -106 991 -27 1055 q -355 930 -182 930 l -435 930 q -637 957 -580 930 q -715 1030 -697 985 q -726 1093 -726 1057 m -501 1081 q -574 1155 -501 1155 q -644 1093 -644 1155 q -543 1017 -644 1017 l -501 1017 l -501 1081 z "},"າ":{"ha":692,"x_min":73,"x_max":626,"o":"m 387 637 q 247 495 387 495 q 120 536 168 495 q 73 652 73 577 q 111 741 72 704 q 319 808 183 808 q 626 531 626 808 l 626 0 l 511 0 l 511 536 q 479 675 511 625 q 375 735 446 724 q 387 637 384 682 m 175 699 q 162 646 161 681 q 184 589 163 614 q 251 564 208 564 q 309 587 295 564 q 322 667 322 610 l 322 739 q 175 699 203 736 z "},"ຳ":{"ha":1202,"x_min":73,"x_max":1137,"o":"m 236 1181 q 271 1181 236 1181 q 352 1137 306 1181 q 399 1024 399 1093 q 353 912 399 955 q 236 869 307 869 q 233 869 235 869 q 119 912 165 869 q 73 1024 73 956 q 120 1136 73 1092 q 236 1181 167 1181 m 143 1023 q 143 1004 143 1023 q 171 958 143 984 q 239 932 199 932 q 305 957 279 932 q 332 1024 332 983 q 305 1089 331 1063 q 238 1116 278 1116 q 171 1089 198 1116 q 143 1023 143 1063 m 886 736 l 899 637 q 758 496 899 496 q 631 537 678 496 q 583 652 583 577 q 623 741 583 704 q 838 808 694 808 q 1137 532 1137 808 l 1137 0 l 1022 0 l 1022 536 q 886 736 1022 714 m 686 699 q 673 646 673 681 q 696 590 674 614 q 763 565 719 566 q 820 588 806 565 q 833 669 833 612 l 833 740 q 686 699 715 738 z "},"ິ":{"ha":3,"x_min":-821,"x_max":-100,"o":"m -341 1005 q -206 1046 -233 1005 q -194 1090 -194 1063 q -461 1199 -194 1199 q -728 1090 -728 1199 q -681 1019 -727 1036 q -580 1005 -644 1005 l -547 1005 l -547 934 l -593 934 q -821 1095 -821 934 q -460 1274 -821 1274 q -100 1080 -100 1274 q -344 934 -100 934 l -373 934 l -373 1005 l -341 1005 z "},"ີ":{"ha":3,"x_min":-933,"x_max":-102,"o":"m -212 1090 q -268 1005 -212 1040 l -102 1005 l -102 934 l -488 934 l -488 1005 l -454 1005 q -319 1046 -346 1005 q -307 1090 -307 1063 q -573 1199 -307 1199 q -840 1090 -840 1199 q -793 1019 -840 1036 q -692 1005 -756 1005 l -660 1005 l -660 934 l -706 934 q -933 1095 -933 934 q -573 1274 -933 1274 q -212 1090 -212 1274 z "},"ຶ":{"ha":3,"x_min":-821,"x_max":-100,"o":"m -341 1005 q -221 1028 -251 1005 q -194 1090 -194 1048 q -461 1198 -194 1198 q -465 1198 -463 1198 q -728 1090 -728 1198 q -627 1006 -728 1014 q -580 1005 -608 1005 l -547 1005 l -547 934 l -593 934 q -821 1095 -821 934 q -460 1274 -821 1274 q -142 1198 -221 1274 q -100 1101 -100 1156 q -118 1014 -100 1045 q -172 966 -137 983 q -344 934 -237 934 l -373 934 l -373 1005 l -341 1005 m -503 1113 q -493 1119 -503 1113 q -457 1126 -484 1126 q -411 1113 -431 1126 q -392 1075 -392 1099 q -410 1036 -392 1051 q -456 1021 -429 1021 q -504 1036 -484 1021 q -523 1075 -523 1051 q -503 1113 -523 1099 z "},"ື":{"ha":3,"x_min":-933,"x_max":-102,"o":"m -268 1005 l -102 1005 l -102 934 l -488 934 l -488 1005 l -454 1005 q -334 1028 -363 1005 q -307 1090 -307 1048 q -574 1199 -307 1199 q -841 1090 -841 1199 q -739 1006 -841 1014 q -692 1005 -720 1005 l -660 1005 l -660 934 l -706 934 q -933 1095 -933 934 q -876 1213 -933 1174 q -756 1261 -818 1253 q -597 1274 -660 1274 q -500 1273 -534 1274 q -429 1266 -467 1271 q -361 1253 -391 1261 q -302 1231 -331 1245 q -255 1198 -274 1217 q -213 1098 -213 1156 q -268 1005 -212 1039 m -642 1075 q -642 1087 -642 1075 q -623 1113 -642 1099 q -577 1126 -604 1126 q -531 1113 -551 1126 q -511 1076 -511 1099 q -530 1036 -511 1052 q -576 1021 -549 1021 q -623 1036 -604 1021 q -642 1075 -642 1051 z "},"ຸ":{"ha":3,"x_min":-380,"x_max":-81,"o":"m -202 -317 q -281 -332 -269 -332 q -352 -302 -324 -332 q -380 -221 -380 -272 q -341 -142 -380 -171 q -239 -113 -303 -113 q -237 -113 -238 -113 q -126 -141 -171 -114 q -81 -213 -81 -168 q -98 -299 -81 -258 q -142 -375 -115 -340 q -252 -488 -194 -440 l -300 -444 q -202 -317 -227 -359 m -182 -278 q -167 -222 -168 -246 q -237 -169 -172 -169 q -239 -169 -237 -169 q -307 -226 -305 -170 q -237 -278 -305 -278 l -182 -278 z "},"ູ":{"ha":3,"x_min":-571,"x_max":-82,"o":"m -233 -447 q -176 -421 -186 -447 q -167 -349 -167 -399 l -167 -146 l -82 -146 l -82 -332 q -115 -473 -82 -427 q -232 -519 -148 -519 q -382 -414 -382 -519 q -380 -390 -382 -403 l -377 -372 q -448 -387 -400 -387 q -533 -356 -496 -387 q -571 -269 -571 -325 q -532 -179 -571 -212 q -431 -146 -494 -146 q -327 -181 -368 -146 q -286 -277 -286 -216 q -297 -332 -286 -295 q -308 -389 -308 -369 q -233 -447 -308 -447 m -433 -213 q -502 -267 -502 -213 q -479 -315 -502 -302 q -427 -329 -456 -329 q -369 -323 -397 -329 l -369 -281 q -433 -213 -370 -213 z "},"ົ":{"ha":3,"x_min":-804,"x_max":-100,"o":"m -516 1015 q -555 929 -516 961 q -657 897 -593 897 q -763 935 -722 897 q -804 1040 -804 972 q -735 1164 -804 1128 q -509 1200 -666 1200 l -406 1200 q -168 1134 -235 1200 q -100 897 -100 1067 l -180 897 q -228 1066 -180 1017 q -394 1115 -275 1115 l -544 1115 l -526 1066 q -516 1015 -516 1038 m -617 1115 q -723 1040 -720 1115 q -654 975 -722 976 q -652 975 -653 975 q -581 1044 -586 975 l -581 1115 l -617 1115 z "},"ຼ":{"ha":3,"x_min":-768,"x_max":-115,"o":"m -197 -130 l -198 -64 l -115 -64 q -134 -245 -114 -201 q -197 -313 -157 -298 q -260 -322 -221 -323 q -417 -248 -330 -322 l -481 -193 q -545 -146 -515 -159 l -539 -170 q -533 -217 -533 -197 q -563 -292 -533 -263 q -646 -321 -592 -321 q -734 -287 -699 -321 q -768 -201 -768 -253 q -740 -119 -768 -149 q -579 -64 -688 -64 q -380 -149 -470 -64 l -334 -193 q -315 -212 -330 -197 q -294 -232 -301 -227 q -254 -250 -273 -250 q -224 -240 -235 -250 q -207 -212 -212 -231 q -197 -130 -197 -179 m -578 -139 q -690 -195 -690 -141 q -645 -249 -690 -249 q -592 -230 -606 -249 q -578 -168 -578 -211 l -578 -139 z "},"ຽ":{"ha":832,"x_min":73,"x_max":810,"o":"m 188 0 q 232 -156 188 -107 q 392 -204 277 -204 q 557 -147 507 -204 q 606 43 606 -90 l 606 256 q 482 501 606 429 l 258 610 q 169 667 195 642 q 123 787 123 709 q 173 910 123 865 q 307 955 223 955 q 402 921 330 955 q 552 853 474 887 q 666 819 630 819 q 707 868 692 819 l 734 962 l 810 962 l 776 844 q 723 746 751 762 q 672 738 709 738 q 576 760 636 738 q 448 817 515 783 q 307 869 340 869 q 228 783 228 869 q 250 722 228 744 q 313 681 271 701 l 533 574 q 638 505 599 542 q 722 255 722 425 l 722 62 q 641 -196 722 -116 q 380 -277 560 -277 q 73 1 73 -277 q 164 248 73 199 q 251 267 199 267 q 408 135 408 267 q 252 3 408 3 q 188 9 244 3 l 188 0 m 319 134 q 258 208 319 208 q 202 176 216 208 q 188 82 188 144 l 188 58 l 222 58 q 296 74 273 58 q 319 134 319 90 z "},"ເ":{"ha":477,"x_min":89,"x_max":428,"o":"m 271 0 q 89 225 89 0 l 89 450 q 111 671 89 602 q 171 770 133 741 q 288 808 219 808 q 401 793 356 808 l 401 723 q 314 734 338 734 q 273 727 290 734 q 245 709 256 720 q 226 679 234 699 q 214 644 218 660 q 208 600 210 627 q 205 507 205 563 l 205 248 q 311 265 262 265 q 393 230 359 265 q 428 138 428 194 q 271 0 428 0 m 337 137 q 315 190 337 177 q 243 203 294 203 l 205 203 l 205 170 q 273 68 205 68 q 337 137 336 68 z "},"ແ":{"ha":911,"x_min":100,"x_max":865,"o":"m 100 0 m 282 0 q 100 225 100 0 l 100 450 q 122 671 100 602 q 182 770 144 741 q 299 808 231 808 q 412 793 368 808 l 412 723 q 326 734 349 734 q 285 727 302 734 q 257 709 268 720 q 238 679 245 699 q 226 644 230 660 q 220 600 222 627 q 217 507 217 563 l 217 248 q 322 265 274 265 q 405 230 370 265 q 439 138 439 194 q 282 0 439 0 m 349 137 q 327 190 349 177 q 255 203 305 203 l 217 203 l 217 170 q 285 68 217 68 q 349 137 348 68 m 708 0 q 526 225 526 0 l 526 450 q 548 671 526 602 q 608 770 570 741 q 725 808 656 808 q 838 793 793 808 l 838 723 q 751 734 775 734 q 711 727 728 734 q 683 709 694 720 q 664 679 671 699 q 652 644 656 660 q 646 600 648 627 q 643 507 643 563 l 643 248 q 748 265 700 265 q 831 230 796 265 q 865 138 865 194 q 708 0 865 0 m 774 137 q 753 190 774 177 q 681 203 731 203 l 643 203 l 643 170 q 711 68 643 68 q 774 137 774 68 z "},"ໂ":{"ha":573,"x_min":-153,"x_max":500,"o":"m 334 0 q 191 73 231 0 q 155 260 156 139 l 155 640 q 124 816 155 755 q 20 935 94 878 l -104 1029 q -153 1131 -153 1066 q -111 1237 -153 1196 q -2 1279 -68 1279 q 84 1261 50 1279 q 125 1239 118 1243 q 153 1221 132 1235 q 177 1206 174 1208 l 475 1018 l 425 939 l 126 1129 q 101 1145 119 1133 q 75 1162 83 1158 q 54 1173 68 1166 q 4 1186 28 1185 q -46 1135 -46 1186 q -4 1073 -46 1106 l 121 972 q 189 910 163 938 q 233 844 213 882 q 271 638 270 773 l 271 248 q 290 255 275 250 q 311 262 304 260 q 351 269 333 269 q 457 234 414 269 q 500 140 500 199 q 334 0 500 0 m 340 69 q 405 140 405 69 q 381 192 405 177 q 314 208 358 208 l 271 208 l 271 170 q 286 95 271 121 q 340 69 302 69 z "},"ໃ":{"ha":604,"x_min":-25,"x_max":566,"o":"m 262 248 q 340 269 323 269 q 449 234 406 269 q 492 140 492 199 q 328 0 492 0 q 184 68 227 0 q 145 248 145 132 l 145 473 q 173 645 145 586 q 271 751 201 705 l 338 797 q 405 852 380 826 q 464 1023 464 912 q 253 1213 464 1213 q 69 1046 69 1213 q 172 927 69 927 q 262 1000 262 927 q 229 1086 262 1044 l 321 1086 q 349 1000 349 1048 q 300 891 349 930 q 168 853 250 853 q 30 905 85 853 q -25 1044 -25 958 q 51 1232 -25 1166 q 264 1298 126 1298 q 484 1227 401 1298 q 566 1017 566 1156 q 379 705 566 843 q 358 689 373 700 q 338 674 343 678 q 321 661 333 671 q 306 646 309 651 q 293 631 302 642 q 282 613 285 621 q 274 593 279 606 q 267 568 269 581 q 262 506 262 524 l 262 248 m 328 69 q 395 144 395 69 q 313 208 395 208 l 262 208 l 262 171 q 277 96 262 122 q 328 69 291 69 z "},"ໄ":{"ha":563,"x_min":-120,"x_max":540,"o":"m 234 248 q 309 269 288 269 q 420 235 377 269 q 464 140 464 201 q 300 0 464 0 q 118 247 118 1 l 118 671 q 193 906 118 818 q 305 1005 233 953 l 358 1044 q 379 1059 365 1049 q 400 1074 393 1068 q 418 1089 408 1080 q 439 1134 435 1105 q 389 1180 437 1175 q 244 1108 338 1178 q 196 1073 202 1077 q 173 1058 189 1069 q 149 1044 156 1048 q 128 1031 142 1040 q 103 1020 113 1023 q 80 1012 94 1017 q 23 1004 56 1004 q -82 1035 -44 1004 q -120 1129 -120 1067 l -120 1265 l -26 1265 l -26 1127 q -14 1098 -26 1109 q 12 1087 -1 1087 q 32 1088 25 1087 q 45 1091 38 1088 q 58 1095 53 1093 q 72 1101 64 1097 q 84 1107 80 1105 q 98 1114 89 1109 q 110 1121 106 1119 q 122 1129 113 1123 q 134 1137 132 1135 l 201 1179 q 254 1217 227 1196 q 294 1245 282 1237 q 393 1266 327 1266 q 500 1232 460 1266 q 540 1135 540 1198 q 460 998 540 1065 q 389 943 425 969 q 270 835 293 872 q 234 671 234 774 l 234 248 m 306 70 q 368 140 368 73 q 290 208 368 208 l 234 208 l 234 168 q 250 95 234 119 q 306 70 266 72 z "},"ໆ":{"ha":954,"x_min":50,"x_max":876,"o":"m 239 -100 q 519 -186 429 -180 q 675 -133 623 -186 q 745 4 728 -80 q 762 198 761 87 l 762 538 q 658 736 762 736 q 567 691 604 736 q 536 653 551 672 q 457 608 500 608 q 374 653 415 608 q 340 691 357 672 q 248 736 298 736 q 165 571 165 736 l 165 543 q 238 565 212 565 q 351 531 308 565 q 393 434 393 498 q 233 296 393 296 q 50 535 50 296 q 155 787 50 731 q 248 808 194 808 q 456 693 372 808 q 667 808 549 808 q 833 716 786 808 q 876 487 876 633 l 876 199 q 765 -184 876 -78 q 519 -267 680 -267 q 204 -131 313 -267 l 239 -100 m 298 427 l 298 432 q 274 489 298 475 q 199 503 251 503 l 165 503 l 165 467 q 180 392 165 417 q 231 366 195 366 q 232 366 231 366 q 298 427 298 366 z "},"່":{"ha":12,"x_min":-407,"x_max":-306,"o":"m -407 991 l -407 1291 l -306 1291 l -306 991 l -407 991 z "},"້":{"ha":5,"x_min":-812,"x_max":-113,"o":"m -113 1291 q -202 1082 -114 1142 q -444 1027 -285 1027 l -771 1027 l -771 1089 q -701 1099 -743 1089 q -645 1112 -659 1109 l -629 1159 q -641 1158 -632 1158 l -659 1158 q -812 1274 -812 1158 q -774 1366 -812 1333 q -671 1399 -736 1399 q -566 1364 -606 1399 q -527 1268 -527 1330 q -574 1125 -527 1206 l -581 1110 l -438 1110 q -222 1192 -262 1110 q -205 1275 -205 1225 l -205 1352 l -113 1352 l -113 1291 m -610 1251 q -621 1314 -610 1295 q -669 1333 -632 1333 q -743 1280 -743 1333 q -610 1214 -743 1214 l -610 1251 z "},"໊":{"ha":9,"x_min":-798,"x_max":-235,"o":"m -627 972 q -752 1007 -707 972 q -798 1106 -798 1042 q -765 1202 -798 1169 q -676 1234 -731 1234 q -555 1158 -582 1234 q -440 1234 -526 1234 q -347 1202 -382 1234 q -311 1107 -311 1170 q -372 1027 -311 1044 l -235 1027 l -235 971 l -490 971 l -490 1027 q -382 1109 -382 1027 q -445 1176 -382 1176 q -498 1154 -478 1176 q -518 1097 -518 1131 l -590 1097 q -611 1154 -590 1131 q -663 1176 -633 1176 q -709 1158 -693 1176 q -726 1104 -726 1142 q -627 1027 -726 1028 l -627 972 z "},"໋":{"ha":19,"x_min":-749,"x_max":-497,"o":"m -581 951 l -665 951 l -665 1033 l -749 1033 l -749 1110 l -665 1110 l -665 1193 l -581 1193 l -581 1110 l -497 1110 l -497 1033 l -581 1033 l -581 951 z "},"໌":{"ha":9,"x_min":-751,"x_max":-259,"o":"m -516 1013 q -547 942 -516 968 q -629 916 -577 916 q -716 952 -682 916 q -751 1045 -751 987 q -706 1138 -751 1103 q -606 1173 -660 1173 q -475 1159 -552 1173 q -374 1145 -399 1145 q -340 1151 -349 1145 q -327 1170 -331 1157 q -321 1225 -321 1189 l -259 1225 q -285 1099 -259 1127 q -358 1072 -309 1072 q -425 1076 -398 1072 q -522 1093 -503 1090 l -516 1013 m -593 1099 q -673 1041 -673 1099 q -660 1002 -673 1017 q -622 988 -646 988 q -562 1052 -562 988 l -562 1098 q -593 1099 -572 1099 z "},"ໍ":{"ha":11,"x_min":-607,"x_max":-288,"o":"m -447 1205 q -414 1205 -447 1205 q -334 1161 -380 1205 q -288 1051 -288 1117 q -333 941 -288 985 q -446 898 -378 898 q -561 941 -514 898 q -607 1051 -607 985 q -561 1161 -607 1118 q -447 1205 -515 1205 m -531 1053 q -531 1036 -531 1053 q -507 994 -531 1018 q -447 970 -484 970 q -387 994 -411 970 q -363 1053 -363 1017 q -388 1114 -363 1089 q -447 1139 -412 1139 q -507 1114 -482 1139 q -531 1053 -531 1088 z "},"໐":{"ha":869,"x_min":90,"x_max":785,"o":"m 625 757 q 665 731 625 757 q 745 618 705 705 q 785 430 785 530 q 763 253 785 329 q 699 121 741 178 q 589 32 656 64 q 437 0 522 0 q 286 32 353 0 q 176 121 218 64 q 90 418 90 237 q 130 618 90 531 q 250 757 170 706 q 437 808 330 808 q 625 757 545 808 m 303 692 q 275 670 303 692 q 221 577 247 647 q 195 428 195 507 q 208 289 195 349 q 249 179 221 229 q 325 101 277 130 q 438 73 373 73 q 552 101 503 73 q 628 179 600 130 q 682 421 682 275 q 572 692 682 604 q 438 738 515 738 q 303 692 360 738 z "},"໑":{"ha":956,"x_min":64,"x_max":890,"o":"m 449 729 q 179 477 179 729 q 227 335 179 388 q 359 269 274 282 q 349 287 357 273 q 339 308 342 301 q 329 347 330 331 q 367 436 329 406 q 475 466 405 466 q 587 431 545 466 q 629 329 629 397 q 452 197 629 207 l 408 195 q 159 266 254 195 q 64 477 64 337 q 174 726 64 640 q 451 808 279 808 q 772 701 654 808 q 890 397 890 593 q 665 18 890 152 q 359 -67 532 -62 l 359 -3 q 692 157 578 23 q 775 405 774 254 q 692 643 775 556 q 449 729 610 729 m 409 348 l 408 266 q 512 282 486 266 q 539 332 538 298 q 469 404 538 404 q 409 348 412 404 z "},"໒":{"ha":975,"x_min":71,"x_max":918,"o":"m 659 380 q 514 258 659 258 q 401 291 443 258 q 359 391 359 325 q 506 523 359 496 q 605 530 547 530 q 721 516 663 530 q 823 473 779 502 q 918 280 918 412 q 637 8 918 46 q 498 0 578 0 q 343 17 418 0 q 205 69 268 35 q 107 163 143 104 q 71 301 71 222 q 101 444 71 379 q 181 553 131 509 q 293 634 231 597 q 422 704 354 671 q 549 770 489 738 q 754 1026 745 879 l 832 1026 q 734 783 832 876 q 518 639 657 708 q 400 578 456 608 q 186 315 186 465 q 326 106 187 164 q 532 72 406 73 q 730 121 658 72 q 802 281 802 170 q 628 457 802 441 q 659 380 659 398 m 450 389 q 518 320 450 320 q 579 393 579 321 l 579 459 q 460 425 481 457 q 450 389 450 410 z "},"໓":{"ha":1126,"x_min":9,"x_max":1057,"o":"m 187 0 q 9 136 9 0 q 51 234 9 199 q 162 269 92 269 q 271 241 233 269 q 309 151 309 214 q 293 82 309 130 q 370 159 349 102 q 392 311 392 216 l 392 808 l 506 808 l 506 313 q 559 131 506 190 q 729 72 612 72 q 893 133 846 72 q 941 321 941 194 q 910 655 941 557 q 833 795 882 743 q 689 909 778 855 l 604 961 q 550 994 581 972 q 513 1021 519 1015 q 495 1040 506 1028 q 479 1063 484 1053 q 465 1119 465 1092 q 509 1238 465 1198 q 635 1278 553 1278 q 818 1219 723 1279 q 961 1118 897 1170 q 1040 1054 1025 1065 l 999 996 q 921 1051 979 1008 q 824 1120 863 1093 q 732 1170 785 1146 q 638 1194 678 1194 q 562 1129 567 1194 q 581 1084 564 1102 q 630 1045 598 1065 l 751 969 q 981 780 939 853 q 1049 579 1037 684 q 1057 437 1057 515 q 1052 304 1057 359 q 1034 199 1046 250 q 998 113 1021 148 q 940 52 975 78 q 748 0 872 0 q 449 173 494 0 q 187 0 409 0 m 100 134 q 141 74 100 83 q 194 69 163 69 q 228 70 226 69 l 228 136 q 168 208 222 204 q 100 134 102 205 z "},"໔":{"ha":940,"x_min":73,"x_max":913,"o":"m 595 404 q 697 199 612 280 q 913 119 783 119 l 900 0 l 427 0 q 165 87 258 0 q 73 342 73 174 q 111 598 73 509 q 258 738 149 688 q 360 782 292 753 q 472 832 428 811 q 570 882 515 852 q 737 1023 678 942 l 793 977 q 578 788 723 866 q 422 713 507 750 q 309 663 338 677 q 260 634 280 649 q 227 597 240 618 q 206 554 214 576 q 194 499 198 532 q 188 358 188 449 q 436 72 188 72 l 745 72 q 533 244 597 149 q 476 437 476 329 q 654 654 476 654 q 816 524 816 654 q 777 422 816 460 q 674 385 739 385 q 595 404 650 385 m 663 585 q 591 477 591 584 q 591 447 591 449 l 640 447 q 705 464 684 447 q 726 521 726 481 q 663 585 720 582 z "},"໕":{"ha":940,"x_min":73,"x_max":913,"o":"m 294 757 q 239 859 239 789 q 288 965 239 928 q 404 1002 338 1002 q 509 970 471 1002 q 547 878 547 938 q 545 859 547 869 l 559 865 q 618 904 597 883 q 647 932 640 926 q 668 955 654 939 q 687 977 682 971 q 709 1003 692 983 q 730 1028 725 1022 l 783 987 q 652 835 725 895 q 475 751 580 776 q 371 686 442 713 q 267 635 295 658 q 221 574 239 610 q 188 330 187 505 q 254 139 188 207 q 441 72 319 72 l 747 72 q 532 243 593 152 q 476 437 476 327 q 656 654 476 654 q 817 528 817 654 q 777 424 817 464 q 671 385 736 385 q 625 394 651 385 q 595 404 600 403 q 698 205 614 281 q 913 119 782 130 l 900 0 l 433 0 q 169 84 265 0 q 73 328 73 168 q 120 611 73 514 q 294 757 168 708 m 406 919 q 322 859 322 919 q 399 803 322 805 q 445 824 429 803 q 461 879 461 844 q 406 919 458 919 m 663 584 q 598 533 610 584 q 591 462 593 509 l 591 447 l 629 447 q 702 462 680 447 q 726 520 725 477 q 663 584 720 581 z "},"໖":{"ha":1053,"x_min":71,"x_max":1137,"o":"m 265 540 q 186 561 244 540 l 186 281 q 206 143 186 184 q 254 87 226 102 q 326 72 282 72 q 467 284 467 72 l 467 342 l 581 342 l 581 281 q 723 72 581 72 q 834 137 805 72 q 861 347 861 197 l 861 356 q 858 561 861 528 q 851 630 854 593 q 841 688 847 667 q 826 739 835 709 q 805 788 817 768 q 778 829 793 807 q 699 905 749 870 q 673 922 692 909 q 645 941 654 935 q 618 961 636 947 q 591 984 601 975 q 569 1009 582 994 q 549 1039 556 1025 q 533 1117 533 1072 q 573 1199 533 1162 q 671 1236 614 1236 q 836 1191 760 1237 q 917 1135 880 1164 q 964 1100 955 1106 l 1137 974 l 1092 903 l 801 1102 q 688 1153 729 1153 q 652 1141 666 1153 q 638 1105 638 1128 q 666 1051 638 1082 q 728 997 694 1020 q 863 895 838 922 q 912 820 888 868 q 947 724 935 771 q 966 606 960 677 q 976 383 976 507 q 963 199 976 259 q 922 94 951 140 q 730 0 865 0 q 588 42 640 0 q 524 165 535 85 q 326 1 496 1 q 100 130 152 1 q 71 339 71 206 l 71 585 q 254 808 71 808 q 412 675 412 808 q 372 575 412 610 q 265 540 332 540 m 215 602 q 296 614 271 602 q 321 669 321 626 q 260 739 321 739 q 186 643 186 737 l 186 602 l 215 602 z "},"໗":{"ha":1037,"x_min":54,"x_max":970,"o":"m 378 697 q 428 731 418 724 q 474 758 439 738 q 530 785 509 779 q 656 808 596 808 q 877 730 812 808 q 943 485 943 652 l 943 113 q 970 -138 943 -26 l 873 -138 q 826 121 826 -28 l 826 501 q 780 696 826 651 q 655 736 739 735 q 554 716 597 736 q 490 687 510 697 q 438 657 471 676 q 391 630 405 637 q 393 593 393 593 l 393 240 q 349 64 393 129 q 212 0 305 0 q 54 140 54 0 q 95 233 54 199 q 197 268 135 268 q 245 258 216 268 q 279 248 273 249 l 279 569 q 206 548 235 548 q 95 580 136 548 q 54 677 54 612 q 96 775 54 743 q 211 808 137 808 q 378 697 339 808 m 279 650 q 212 739 279 739 q 163 723 182 739 q 144 679 144 707 q 210 616 144 616 q 279 635 239 616 l 279 650 m 225 208 q 165 193 185 208 q 146 143 146 178 q 203 70 146 71 q 263 94 248 70 q 279 174 279 119 l 279 208 l 225 208 z "},"໘":{"ha":1077,"x_min":73,"x_max":1004,"o":"m 524 -321 q 462 -357 511 -328 q 389 -397 412 -385 q 240 -433 315 -433 q 119 -393 165 -433 q 73 -279 73 -353 q 158 -136 73 -178 q 277 -92 223 -103 l 887 85 q 889 138 889 110 l 889 507 q 850 693 889 644 q 745 736 815 736 q 633 667 661 736 q 609 510 609 608 l 609 461 l 494 461 l 494 510 q 458 691 494 641 q 352 736 427 736 q 245 683 278 736 q 212 529 212 629 l 212 256 q 279 269 256 269 q 392 236 349 269 q 435 139 435 203 q 273 0 435 0 q 139 62 182 0 q 96 231 96 123 l 96 470 q 227 785 96 724 q 361 808 277 808 q 492 768 445 808 q 551 643 538 728 q 608 768 561 728 q 738 808 656 808 q 872 785 821 808 q 951 717 923 762 q 1004 474 1004 633 l 1004 147 q 981 -5 1004 47 q 895 -97 957 -56 l 738 -199 q 807 -318 807 -237 q 765 -407 807 -372 q 666 -441 724 -441 q 571 -409 608 -441 q 524 -321 534 -376 m 212 156 q 283 69 212 69 q 345 140 345 69 q 320 194 345 180 q 240 208 294 208 l 212 208 l 212 156 m 174 -267 q 242 -340 176 -340 q 327 -327 294 -340 q 392 -297 359 -313 l 433 -277 l 819 -41 q 861 -2 844 -26 l 260 -190 q 180 -235 192 -210 q 174 -267 174 -248 m 710 -359 q 719 -352 710 -359 q 728 -318 728 -345 q 711 -274 728 -292 q 667 -257 695 -257 q 620 -272 639 -257 q 602 -317 602 -287 q 665 -373 602 -373 q 710 -359 693 -373 z "},"໙":{"ha":1034,"x_min":72,"x_max":970,"o":"m 604 257 q 636 122 604 172 q 737 72 668 72 q 854 258 854 72 l 854 808 l 970 808 l 970 312 q 852 22 971 77 q 737 0 806 0 q 547 79 605 0 q 488 308 488 158 l 488 503 q 410 719 488 675 q 337 736 379 736 q 265 718 295 736 q 218 666 235 699 q 186 502 186 602 l 186 248 q 210 256 193 250 q 258 269 241 269 q 370 235 328 269 q 412 138 412 202 q 253 0 412 0 q 113 61 154 0 q 72 239 72 121 l 72 481 q 137 720 72 632 q 340 808 202 808 q 541 725 477 808 q 604 483 604 641 l 604 257 m 186 176 q 202 96 186 122 q 258 69 218 69 q 321 140 320 69 q 298 193 321 178 q 231 208 275 208 l 186 208 l 186 176 z "},"ໜ":{"ha":1866,"x_min":22,"x_max":1792,"o":"m 433 676 q 481 775 433 742 q 608 808 530 808 q 768 684 739 808 q 790 704 772 687 q 814 726 808 720 q 838 746 821 732 q 865 766 855 760 q 893 782 876 772 q 926 796 911 792 q 1011 808 968 808 q 1097 791 1055 808 q 1164 746 1139 774 q 1206 674 1191 718 q 1232 472 1233 597 l 1232 281 q 1297 129 1232 186 q 1472 72 1362 72 q 1629 123 1581 72 q 1676 297 1676 175 l 1676 808 l 1792 808 l 1792 318 q 1710 78 1792 155 q 1462 0 1628 0 q 1173 173 1228 0 q 857 0 1137 1 l 857 72 q 1116 280 1116 72 l 1116 467 q 1108 620 1116 587 q 1089 674 1099 652 q 1065 708 1079 696 q 979 736 1031 736 q 830 654 913 736 q 799 621 821 644 q 774 595 778 598 l 774 330 q 706 78 774 156 q 471 0 637 0 q 240 45 334 0 q 162 111 191 68 q 134 197 134 153 q 140 276 134 241 q 153 334 146 311 q 174 402 159 356 q 195 467 189 448 l 221 551 q 158 538 178 538 q 59 575 96 538 q 22 675 22 612 q 191 808 22 808 q 306 769 259 808 q 352 668 352 730 q 326 519 352 607 q 275 345 300 432 q 249 212 249 258 q 267 140 249 166 q 317 99 286 113 q 475 72 378 72 q 616 128 573 72 q 659 305 659 184 l 659 534 q 602 528 637 528 q 433 676 433 528 m 523 671 q 606 595 523 595 q 659 605 632 595 l 659 637 q 646 712 659 686 q 600 739 633 739 q 523 671 523 739 m 250 681 q 250 692 250 681 q 231 721 250 703 q 179 739 212 739 q 113 675 113 739 q 134 617 113 633 q 202 602 155 602 l 236 602 q 250 681 250 659 z "},"ໝ":{"ha":1960,"x_min":22,"x_max":1811,"o":"m 1074 718 q 1022 741 1048 741 q 982 738 996 741 q 955 730 967 734 q 927 718 942 726 q 902 703 912 709 q 877 684 892 696 q 854 665 863 672 q 832 644 846 658 q 812 624 818 629 q 793 603 807 618 q 776 585 779 588 l 776 345 q 712 85 776 167 q 475 0 646 0 q 205 66 298 0 q 134 211 134 118 q 145 303 134 262 q 171 390 157 345 q 191 449 186 434 l 222 550 q 155 538 176 538 q 58 575 94 538 q 22 675 22 612 q 194 808 22 808 q 308 770 263 808 q 352 665 352 731 q 301 457 352 651 q 250 212 250 262 q 468 72 250 72 q 623 137 583 72 q 659 320 659 196 l 659 533 q 603 528 630 528 q 479 564 526 528 q 433 669 433 600 q 481 773 433 738 q 604 808 530 808 q 721 771 679 808 q 772 667 762 734 q 797 693 779 674 q 823 720 815 712 q 848 744 831 728 q 877 767 865 760 q 906 784 888 774 q 940 800 924 795 q 1025 812 983 812 q 1193 721 1135 812 q 1251 470 1251 629 l 1251 191 q 1362 109 1291 146 q 1496 72 1434 72 q 1596 87 1558 72 q 1656 137 1634 103 q 1695 321 1694 197 l 1695 808 l 1811 808 l 1811 326 q 1534 0 1811 0 q 1346 34 1419 0 q 1220 125 1273 68 q 1173 32 1215 64 q 1066 0 1131 0 q 911 139 911 0 q 950 240 911 201 q 1057 278 989 278 q 1136 257 1098 275 l 1136 467 q 1074 718 1135 663 m 600 739 q 523 671 523 739 q 545 614 523 634 q 598 595 568 595 q 659 603 629 595 l 659 638 q 600 739 659 739 m 176 739 q 113 675 113 739 q 134 618 113 635 q 199 602 155 602 l 237 602 q 250 676 250 649 q 231 721 250 703 q 176 739 211 739 m 1091 205 q 1056 212 1078 212 q 1019 191 1034 212 q 1002 140 1003 171 q 1066 70 1004 70 q 1131 116 1122 70 q 1136 186 1137 139 l 1091 205 z "},"​":{"ha":229,"x_min":0,"x_max":0,"o":""},"‌":{"ha":229,"x_min":0,"x_max":0,"o":""},"‍":{"ha":229,"x_min":0,"x_max":0,"o":""},"–":{"ha":932,"x_min":271,"x_max":615,"o":"m 615 406 l 271 406 l 271 512 l 615 512 l 615 406 z "},"—":{"ha":929,"x_min":95,"x_max":783,"o":"m 783 406 l 95 406 l 95 512 l 783 512 l 783 406 z "},"‘":{"ha":574,"x_min":50,"x_max":340,"o":"m 340 260 l 291 241 l 50 648 l 228 713 l 340 260 z "},"’":{"ha":394,"x_min":85,"x_max":291,"o":"m 85 942 l 85 1156 l 291 1156 l 291 974 q 123 757 291 805 l 85 825 q 158 866 134 842 q 181 942 181 890 l 85 942 z "},"‚":{"ha":475,"x_min":168,"x_max":373,"o":"m 168 0 l 168 214 l 373 214 l 373 33 q 205 -185 373 -137 l 168 -117 q 240 -76 217 -100 q 263 0 263 -52 l 168 0 z "},"“":{"ha":690,"x_min":105,"x_max":581,"o":"m 581 993 l 581 779 l 376 779 l 376 961 q 543 1179 376 1131 l 581 1109 q 508 1069 531 1093 q 486 993 486 1045 l 581 993 m 311 993 l 311 779 l 105 779 l 105 961 q 273 1179 105 1131 l 311 1109 q 259 1087 277 1098 q 215 993 215 1061 l 311 993 z "},"”":{"ha":609,"x_min":83,"x_max":559,"o":"m 353 942 l 353 1156 l 559 1156 l 559 974 q 392 757 559 805 l 355 825 q 427 866 404 842 q 450 942 450 890 l 353 942 m 83 942 l 83 1156 l 289 1156 l 289 974 q 121 757 289 805 l 84 825 q 156 866 133 842 q 179 942 179 890 l 83 942 z "},"„":{"ha":816,"x_min":216,"x_max":692,"o":"m 487 0 l 487 214 l 692 214 l 692 33 q 525 -185 692 -137 l 488 -117 q 559 -76 536 -100 q 583 0 583 -52 l 487 0 m 216 0 l 216 214 l 422 214 l 422 33 q 254 -185 422 -137 l 217 -117 q 289 -76 266 -100 q 313 0 313 -52 l 216 0 z "},"†":{"ha":785,"x_min":83,"x_max":709,"o":"m 709 747 l 469 747 l 469 0 l 330 0 l 330 747 l 83 747 l 83 850 l 329 850 l 329 1075 l 470 1075 l 470 850 l 709 850 l 709 747 z "},"‡":{"ha":907,"x_min":151,"x_max":776,"o":"m 776 747 l 536 747 l 536 326 l 774 326 l 774 223 l 536 223 l 536 0 l 396 0 l 396 223 l 151 223 l 151 326 l 396 326 l 396 747 l 151 747 l 151 850 l 396 850 l 396 1075 l 537 1075 l 537 850 l 776 850 l 776 747 z "},"•":{"ha":1001,"x_min":225,"x_max":736,"o":"m 480 753 q 535 753 480 753 q 663 683 589 753 q 736 509 736 614 q 662 333 736 404 q 478 262 587 262 q 298 331 370 262 q 225 507 225 399 q 298 684 225 614 q 480 753 370 753 z "},"…":{"ha":1140,"x_min":100,"x_max":1019,"o":"m 859 72 q 881 132 859 109 q 939 156 904 156 q 997 132 975 156 q 1019 72 1019 107 q 997 12 1019 37 q 939 -12 975 -12 q 881 12 904 -12 q 859 72 859 35 m 479 72 q 502 132 479 109 q 560 156 525 156 q 618 132 595 156 q 640 72 640 107 q 618 12 640 37 q 560 -12 595 -12 q 502 12 525 -12 q 479 72 479 35 m 100 72 q 123 132 100 109 q 181 156 146 156 q 238 132 216 156 q 260 72 260 108 q 239 12 260 36 q 180 -12 216 -12 q 122 12 145 -12 q 100 72 100 35 z "},"‰":{"ha":1274,"x_min":0,"x_max":0,"o":""},"‹":{"ha":563,"x_min":60,"x_max":505,"o":"m 505 616 l 178 422 l 505 224 l 505 73 l 60 352 l 60 488 l 505 768 l 505 616 z "},"›":{"ha":563,"x_min":60,"x_max":505,"o":"m 60 768 l 505 488 l 505 352 l 60 73 l 60 224 l 387 422 l 60 616 l 60 768 z "},"€":{"ha":852,"x_min":36,"x_max":776,"o":"m 185 682 q 287 956 196 857 q 552 1054 378 1054 q 776 1008 685 1054 l 744 918 q 655 938 721 918 q 550 958 590 958 q 365 887 426 958 q 304 682 304 815 l 593 682 l 593 593 l 296 593 q 292 510 294 578 l 551 510 l 551 420 l 292 420 q 434 94 292 160 q 525 75 474 75 q 734 130 633 75 l 772 40 q 662 -11 738 6 q 511 -28 586 -28 q 382 -3 436 -28 q 290 65 328 22 q 224 165 252 107 q 168 420 173 275 l 47 420 l 47 510 l 165 510 q 168 593 166 563 l 36 593 l 36 682 l 185 682 z "},"₭":{"ha":684,"x_min":75,"x_max":612,"o":"m 185 441 l 487 777 l 612 777 l 309 441 l 612 441 l 612 366 l 307 366 l 612 0 l 489 0 l 185 366 l 185 0 l 75 0 l 75 777 l 185 777 l 185 441 z "},"™":{"ha":1197,"x_min":54,"x_max":1145,"o":"m 843 555 l 978 1035 l 1145 1035 l 1145 457 l 1053 457 l 1053 943 l 908 457 l 778 457 l 634 943 l 634 457 l 541 457 l 541 1035 l 708 1035 l 843 555 m 460 960 l 307 960 l 307 457 l 208 457 l 208 960 l 54 960 l 54 1035 l 460 1035 l 460 960 z "},"◌":{"ha":857,"x_min":66,"x_max":794,"o":"m 497 662 l 362 662 l 362 723 l 497 723 l 497 662 m 587 694 l 696 614 l 661 565 l 552 644 l 587 694 m 307 644 l 199 565 l 163 614 l 273 694 l 307 644 m 753 538 l 794 410 l 736 391 l 694 519 l 753 538 m 165 519 l 123 391 l 66 410 l 107 538 l 165 519 m 794 314 l 753 186 l 694 205 l 736 333 l 794 314 m 123 333 l 165 205 l 107 186 l 66 314 l 123 333 m 696 109 l 587 30 l 552 79 l 661 158 l 696 109 m 199 158 l 307 79 l 273 30 l 163 109 l 199 158 m 497 1 l 362 1 l 362 62 l 497 62 l 497 1 z "},"":{"ha":1422,"x_min":0,"x_max":0,"o":""},"":{"ha":1422,"x_min":0,"x_max":0,"o":""},"":{"ha":1422,"x_min":0,"x_max":0,"o":""},"":{"ha":1422,"x_min":0,"x_max":0,"o":""},"":{"ha":1422,"x_min":0,"x_max":0,"o":""},"":{"ha":1422,"x_min":0,"x_max":0,"o":""},"":{"ha":1422,"x_min":0,"x_max":0,"o":""},"":{"ha":1422,"x_min":0,"x_max":0,"o":""},"":{"ha":1422,"x_min":0,"x_max":0,"o":""},"":{"ha":1422,"x_min":0,"x_max":0,"o":""},"":{"ha":1422,"x_min":0,"x_max":0,"o":""},"":{"ha":1422,"x_min":0,"x_max":0,"o":""},"":{"ha":1422,"x_min":0,"x_max":0,"o":""},"":{"ha":1422,"x_min":0,"x_max":0,"o":""},"":{"ha":1422,"x_min":0,"x_max":0,"o":""},"":{"ha":1422,"x_min":0,"x_max":0,"o":""},"":{"ha":1422,"x_min":0,"x_max":0,"o":""},"":{"ha":1422,"x_min":0,"x_max":0,"o":""},"":{"ha":1422,"x_min":0,"x_max":0,"o":""},"":{"ha":1422,"x_min":0,"x_max":0,"o":""},"":{"ha":1422,"x_min":0,"x_max":0,"o":""},"":{"ha":1422,"x_min":0,"x_max":0,"o":""},"":{"ha":1422,"x_min":0,"x_max":0,"o":""}}}
